<svg version="1.0" xmlns="http://www.w3.org/2000/svg" width="300" height="300" viewBox="0 0 100 100">
<g transform="scale(0.05, 0.05)" fill="rgb(154, 195, 212)" stroke="none"><path d="M716 1800 c-51 -16 -63 -35 -70 -113 -4 -40 -10 -88 -13 -108 l-5 -36 -73 1 c-60 1 -79 -3 -102 -20 -34 -25 -60 -74 -73 -140 -17 -85 -23 -294 -11 -414 18 -192 53 -238 193 -256 29 -4 60 -10 69 -15 8 -4 23 -36 33 -71 48 -174 157 -326 260 -361 67 -23 166 -21 256 4 129 35 204 94 258 202 16 32 48 73 70 92 22 19 50 54 61 78 36 74 23 215 -23 266 -11 12 -16 37 -16 82 0 68 -29 371 -55 574 -30 234 -31 235 -195 235 -143 0 -135 7 -152 -144 l-12 -104 -38 -4 -38 -4 0 112 c0 149 1 148 -169 151 -69 1 -139 -2 -155 -7zM1440 684 c27 -27 -27 -68 -110 -84 -58 -11 -120 -4 -147 16 -17 12 -17 14 2 33 34 34 94 51 172 48 40 -1 77 -7 83 -13z"></path></g><g transform="scale(0.05, 0.05)" fill="rgb(74, 89, 99)" stroke="none"><path d="M735 1801 c-44 -11 -73 -29 -79 -48 -2 -10 -7 -49 -11 -88 -11 -132 -7 -125 -83 -123 -157 4 -192 -70 -192 -412 0 -196 9 -271 38 -329 25 -51 58 -69 151 -84 l84 -13 27 -84 c97 -307 252 -417 495 -351 146 40 223 99 273 210 14 31 35 63 46 71 39 27 76 74 92 117 24 61 15 157 -20 219 -18 32 -26 61 -26 95 0 97 -63 661 -81 733 -6 21 -21 49 -34 62 -22 22 -31 24 -134 24 -135 0 -135 0 -152 -148 -11 -96 -13 -102 -35 -102 -12 0 -29 -3 -38 -6 -14 -5 -16 7 -16 99 0 122 -3 133 -41 152 -30 16 -207 20 -264 6zM1320 1374 c14 -7 45 -33 69 -57 50 -52 56 -76 67 -237 l7 -105 -169 0 c-187 -1 -260 -15 -323 -62 -86 -65 -109 -259 -40 -338 49 -55 126 -74 316 -76 85 -2 120 -6 116 -13 -54 -98 -177 -156 -327 -156 -86 0 -121 16 -178 78 -37 42 -50 66 -66 129 -40 147 -59 398 -43 554 27 253 61 284 326 299 136 8 209 3 245 -16zM543 876 l72 -12 6 -45 c4 -24 5 -45 4 -47 -2 -2 -49 7 -123 23 -22 5 -34 27 -48 82 -5 19 -4 24 5 18 7 -4 45 -13 84 -19zM1417 699 c39 -15 45 -30 21 -56 -47 -51 -224 -72 -264 -32 -50 51 150 124 243 88z"></path></g><g transform="scale(0.05, 0.05)" fill="rgb(123, 128, 166)" stroke="none"><path d="M749 1800 c-39 -7 -87 -24 -90 -33 0 -1 -6 -51 -12 -112 l-12 -110 -80 -5 c-44 -3 -91 -11 -103 -18 -57 -33 -82 -153 -82 -396 0 -190 11 -274 43 -332 28 -48 50 -59 151 -76 l79 -13 32 -97 c59 -175 138 -287 233 -331 97 -45 290 -19 404 53 51 32 99 90 129 156 10 22 43 65 73 95 38 38 57 67 66 99 17 61 6 153 -24 204 -18 32 -25 63 -30 136 -10 142 -44 471 -61 588 -18 124 -35 169 -70 182 -41 16 -220 13 -234 -4 -12 -14 -26 -84 -36 -182 l-7 -61 -41 -1 -42 -1 3 86 c5 125 -2 151 -43 169 -37 15 -167 17 -246 4zM1294 1389 c26 -7 58 -29 91 -64 52 -53 52 -54 64 -142 6 -49 11 -116 11 -149 l0 -59 -115 4 c-205 6 -356 -30 -403 -97 -12 -16 -29 -58 -38 -92 -27 -105 -3 -204 59 -245 41 -26 156 -45 285 -45 78 0 122 -4 122 -10 0 -6 -22 -33 -48 -59 -101 -101 -311 -137 -416 -71 -104 64 -150 214 -163 530 -12 307 28 444 140 480 78 25 345 37 411 19zM550 881 l65 -6 8 -49 c4 -27 6 -50 4 -53 -3 -2 -35 2 -72 8 -73 14 -89 28 -101 89 -7 30 -5 33 12 25 10 -4 48 -10 84 -14zM1451 775 c26 -9 54 -24 62 -33 37 -41 -49 -159 -132 -182 -46 -13 -144 -13 -251 0 -125 16 -123 15 -116 63 14 84 68 150 137 168 52 13 247 3 300 -16z"></path></g><g transform="scale(0.05, 0.05)" fill="rgb(3, 3, 4)" stroke="none"><path d="M717 1790 c-49 -15 -54 -26 -67 -145 l-12 -115 -62 6 c-109 11 -156 -23 -183 -134 -19 -79 -27 -327 -15 -444 18 -167 56 -219 170 -233 101 -12 98 -10 122 -88 50 -166 130 -293 216 -343 37 -22 63 -28 124 -32 187 -11 351 70 416 206 15 31 50 78 76 104 62 60 78 100 78 187 0 57 -5 79 -30 126 -24 45 -30 70 -30 119 0 112 -60 645 -80 715 -19 66 -30 71 -155 71 -79 0 -116 -4 -123 -13 -6 -7 -16 -53 -22 -102 -18 -141 -14 -132 -65 -137 l-45 -3 0 117 c0 151 2 148 -165 147 -66 0 -133 -5 -148 -9zM948 1734 l30 -6 4 -105 c4 -137 -1 -133 182 -132 l141 1 -40 19 c-22 10 -48 19 -57 19 -9 0 -19 3 -21 8 -4 6 3 67 18 160 l6 32 84 0 83 0 11 -47 c11 -53 66 -494 77 -615 9 -106 8 -107 -62 -95 -69 12 -271 -4 -350 -28 -102 -30 -144 -91 -152 -217 -6 -97 19 -157 75 -183 53 -26 215 -47 316 -43 48 2 87 1 87 -2 0 -4 -15 -27 -34 -51 -73 -96 -262 -153 -389 -118 -114 31 -217 214 -264 469 -23 125 -22 400 2 615 9 88 20 194 24 235 l6 75 90 6 c50 3 93 6 96 7 4 1 20 -1 37 -4zM628 1465 c2 -2 -2 -52 -8 -111 -15 -146 -14 -389 3 -497 7 -48 12 -89 10 -91 -5 -4 -140 21 -152 29 -24 14 -43 107 -48 236 -9 202 23 414 65 438 14 8 119 5 130 -4zM1464 900 c72 -44 89 -189 33 -264 -35 -45 -99 -83 -157 -91 -57 -8 -284 12 -325 29 -57 25 -70 49 -69 134 0 114 37 168 128 193 127 34 334 34 390 -1z"></path></g><g transform="scale(0.05, 0.05)" fill="rgb(214, 222, 240)" stroke="none"><path d="M717 1790 c-49 -15 -54 -26 -67 -145 l-12 -115 -62 6 c-109 11 -156 -23 -183 -134 -19 -79 -27 -327 -15 -444 18 -167 56 -219 170 -233 101 -12 98 -10 122 -88 50 -166 130 -293 216 -343 37 -22 63 -28 124 -32 187 -11 351 70 416 206 15 31 50 78 76 104 62 60 78 100 78 187 0 57 -5 79 -30 126 -24 45 -30 70 -30 119 0 112 -60 645 -80 715 -19 66 -30 71 -155 71 -79 0 -116 -4 -123 -13 -6 -7 -16 -53 -22 -102 -18 -141 -14 -132 -65 -137 l-45 -3 0 117 c0 151 2 148 -165 147 -66 0 -133 -5 -148 -9zM948 1734 l30 -6 4 -105 c4 -137 -1 -133 182 -132 l141 1 -40 19 c-22 10 -48 19 -57 19 -9 0 -19 3 -21 8 -4 6 3 67 18 160 l6 32 84 0 83 0 11 -47 c11 -53 66 -494 77 -615 9 -106 8 -107 -62 -95 -69 12 -271 -4 -350 -28 -102 -30 -144 -91 -152 -217 -6 -97 19 -157 75 -183 53 -26 215 -47 316 -43 48 2 87 1 87 -2 0 -4 -15 -27 -34 -51 -73 -96 -262 -153 -389 -118 -114 31 -217 214 -264 469 -23 125 -22 400 2 615 9 88 20 194 24 235 l6 75 90 6 c50 3 93 6 96 7 4 1 20 -1 37 -4zM628 1465 c2 -2 -2 -52 -8 -111 -15 -146 -14 -389 3 -497 7 -48 12 -89 10 -91 -5 -4 -140 21 -152 29 -24 14 -43 107 -48 236 -9 202 23 414 65 438 14 8 119 5 130 -4zM1464 900 c72 -44 89 -189 33 -264 -35 -45 -99 -83 -157 -91 -57 -8 -284 12 -325 29 -57 25 -70 49 -69 134 0 114 37 168 128 193 127 34 334 34 390 -1z"></path></g><g transform="scale(0.05, 0.05)" fill="rgb(255, 255, 255)" stroke="none"></g></svg>