<svg version="1.0" xmlns="http://www.w3.org/2000/svg" width="300" height="300" viewBox="0 0 100 100" >
<g transform="scale(0.05, 0.05)" fill="rgb(100, 92, 92)" stroke="none"><path d="M324 1499 c-57 -11 -94 -39 -94 -71 0 -11 16 -35 34 -53 19 -18 32 -35 29 -39 -3 -3 -11 -2 -18 4 -23 19 -53 -1 -74 -50 -12 -27 -21 -53 -21 -59 0 -14 13 -14 28 1 6 6 15 8 19 4 11 -11 -13 -41 -32 -39 -14 1 -16 -5 -11 -28 3 -15 1 -31 -4 -34 -17 -10 -11 -50 9 -72 15 -16 21 -40 25 -102 3 -45 10 -89 16 -99 10 -15 11 -15 5 3 -5 16 -4 18 6 8 7 -7 21 -13 30 -13 12 0 16 -6 12 -20 -3 -12 1 -22 11 -26 9 -3 16 -10 16 -15 0 -6 10 -23 22 -39 12 -16 19 -32 16 -35 -3 -3 -17 12 -32 33 -15 22 -39 50 -53 63 l-27 24 19 -30 c18 -30 103 -135 131 -163 8 -8 12 -17 9 -20 -3 -4 -10 0 -15 8 -7 11 -10 11 -10 2 0 -7 12 -17 26 -22 32 -13 56 -12 29 1 -18 8 -17 9 5 5 136 -26 235 -36 350 -35 148 1 222 9 218 24 -2 5 6 11 17 13 11 2 39 13 62 23 23 10 47 19 53 19 6 0 8 5 5 10 -4 6 -3 10 2 9 20 -3 34 2 28 10 -5 9 24 31 39 31 19 0 0 -22 -41 -48 -27 -17 -56 -40 -65 -52 -38 -44 9 -15 145 90 152 116 154 117 204 125 73 10 152 35 216 66 78 40 72 45 -8 8 -38 -18 -94 -34 -134 -40 -90 -11 -121 -18 -148 -35 -19 -12 -22 -12 -17 0 3 8 60 27 137 46 73 18 156 44 186 56 62 28 64 28 56 12 -4 -7 9 4 29 24 27 28 36 46 36 71 0 18 7 42 15 53 16 21 21 109 5 99 -5 -3 -10 0 -10 9 0 8 4 16 10 18 6 2 7 24 3 57 -5 49 -9 55 -39 67 -18 8 -43 14 -54 14 l-21 0 21 22 c32 35 23 69 -25 93 -39 19 -62 20 -685 22 -380 1 -666 -3 -696 -8zM437 1434 c-3 -3 -12 -4 -19 -1 -8 3 -5 6 6 6 11 1 17 -2 13 -5zM1537 1434 c-3 -3 -12 -4 -19 -1 -8 3 -5 6 6 6 11 1 17 -2 13 -5zM407 1378 c-3 -8 -6 -5 -6 6 -1 11 2 17 5 13 3 -3 4 -12 1 -19zM447 1368 c-3 -8 -6 -5 -6 6 -1 11 2 17 5 13 3 -3 4 -12 1 -19zM376 1359 c19 -22 19 -22 -3 -8 -13 8 -23 17 -23 21 0 12 6 9 26 -13zM1490 1349 c0 -6 -4 -7 -10 -4 -5 3 -10 11 -10 16 0 6 5 7 10 4 6 -3 10 -11 10 -16zM1810 1330 c0 -5 -8 -10 -17 -10 -15 0 -16 2 -3 10 19 12 20 12 20 0zM370 1300 c12 -8 11 -10 -7 -10 -13 0 -23 5 -23 10 0 13 11 13 30 0zM1483 1293 c-7 -2 -21 -2 -30 0 -10 3 -4 5 12 5 17 0 24 -2 18 -5zM1335 1270 c-10 -17 -71 -29 -195 -39 -345 -28 -487 -31 -500 -11 -12 19 7 26 91 35 84 9 592 32 602 27 4 -2 5 -7 2 -12zM384 1245 c-16 -25 -34 -33 -34 -16 0 7 37 38 48 40 1 1 -5 -10 -14 -24zM1483 1240 c-10 -17 -19 -26 -21 -20 -4 10 25 50 35 50 2 0 -4 -14 -14 -30zM500 1228 c0 -6 -7 -5 -15 2 -8 7 -15 17 -15 22 0 6 7 5 15 -2 8 -7 15 -17 15 -22zM1604 1231 c-2 -3 -12 3 -22 13 -16 17 -16 18 5 5 12 -7 20 -15 17 -18zM1815 1250 c3 -5 1 -10 -4 -10 -6 0 -11 5 -11 10 0 6 2 10 4 10 3 0 8 -4 11 -10zM413 1203 c-3 -18 -9 -30 -14 -28 -4 3 -3 19 3 36 13 37 17 34 11 -8zM459 1188 c1 -5 -3 -8 -9 -8 -5 0 -10 12 -9 28 0 24 1 25 9 7 5 -11 9 -23 9 -27zM1510 1193 c-11 -17 -11 -17 -6 0 3 10 6 24 7 30 0 9 2 9 5 0 3 -7 0 -20 -6 -30zM1564 1195 c3 -8 1 -15 -4 -15 -6 0 -10 7 -10 15 0 8 2 15 4 15 2 0 6 -7 10 -15zM1794 1178 c-3 -5 -14 -8 -25 -8 -10 0 -19 -4 -19 -8 0 -15 24 -32 45 -32 16 0 17 -2 5 -10 -8 -5 -28 -10 -43 -10 -19 0 -37 -11 -60 -37 -18 -20 -33 -41 -33 -47 -1 -6 -2 -16 -3 -23 -1 -13 -41 -9 -51 6 -3 6 -20 7 -45 1 -21 -5 -51 -6 -67 -3 -17 3 -28 1 -28 -5 0 -6 -8 -11 -17 -11 -49 -1 -73 -4 -73 -10 0 -4 -33 -7 -72 -8 -51 -1 -65 1 -48 7 37 12 18 11 -125 -6 -105 -12 -137 -13 -168 -3 -33 11 -42 10 -82 -10 -40 -20 -61 -22 -173 -22 -70 -1 -142 1 -160 2 -20 2 -37 -3 -45 -13 -8 -11 -38 -17 -97 -22 l-85 -6 -34 55 c-22 35 -42 55 -54 55 -12 0 -17 6 -15 19 2 10 -5 27 -14 37 -14 17 -15 22 -3 44 8 14 14 19 15 11 0 -11 4 -9 15 5 8 10 15 15 15 9 0 -5 4 -4 9 4 7 10 11 8 16 -10 32 -101 151 -142 230 -79 21 17 45 30 54 30 9 -1 2 -7 -15 -14 -18 -8 -34 -19 -38 -24 -12 -19 96 -33 258 -33 238 0 263 1 356 11 47 6 115 10 153 10 40 0 67 4 67 11 0 5 4 8 9 5 14 -9 72 15 64 27 -3 6 10 -2 30 -17 70 -53 144 -44 202 26 16 19 38 33 50 33 31 1 54 22 48 44 -5 20 -33 24 -46 7 -6 -7 -7 -6 -4 4 2 8 11 15 20 15 9 0 21 5 27 11 13 13 62 -5 54 -18zM260 1169 c0 -5 -4 -8 -9 -4 -6 3 -14 -3 -20 -12 -6 -10 -11 -13 -11 -7 0 12 20 34 32 34 4 0 8 -5 8 -11zM1355 1090 c-10 -11 -22 -20 -28 -20 -5 0 1 9 14 20 31 25 37 25 14 0zM601 1063 c13 -16 12 -17 -3 -4 -10 7 -18 15 -18 17 0 8 8 3 21 -13zM1243 1063 c-13 -2 -35 -2 -50 0 -16 2 -5 4 22 4 28 0 40 -2 28 -4zM1018 1053 c-21 -2 -57 -2 -80 0 -24 2 -7 4 37 4 44 0 63 -2 43 -4zM1767 992 c-11 -12 -28 -17 -49 -16 -18 1 -37 -1 -43 -6 -23 -17 -253 -58 -375 -66 -47 -3 -83 -4 -80 -1 3 3 61 12 130 21 69 9 142 19 163 22 63 8 168 44 162 54 -4 6 -2 10 4 10 5 0 12 -4 15 -8 9 -15 67 -12 73 4 3 8 8 12 11 9 3 -2 -2 -13 -11 -23zM250 960 c0 -5 -2 -10 -4 -10 -3 0 -8 5 -11 10 -3 6 -1 10 4 10 6 0 11 -4 11 -10zM933 953 c-7 -2 -19 -2 -25 0 -7 3 -2 5 12 5 14 0 19 -2 13 -5zM1107 954 c-3 -3 -12 -4 -19 -1 -8 3 -5 6 6 6 11 1 17 -2 13 -5zM990 940 c0 -5 -8 -10 -17 -10 -15 0 -16 2 -3 10 19 12 20 12 20 0zM570 920 c-36 -11 -50 -11 -50 0 0 6 17 10 38 9 33 -1 34 -2 12 -9zM1204 902 c5 -9 -101 -22 -369 -47 -168 -16 -240 -18 -160 -4 28 5 77 11 110 13 141 13 380 38 384 42 7 7 30 4 35 -4zM1280 842 c0 -5 -9 -17 -20 -27 -16 -15 -23 -16 -33 -6 -9 10 -9 11 4 6 10 -4 20 -1 24 5 3 6 3 10 -2 9 -18 -3 -33 2 -33 11 0 6 14 10 30 10 17 0 30 -4 30 -8zM588 833 c-16 -2 -40 -2 -55 0 -16 2 -3 4 27 4 30 0 43 -2 28 -4zM480 823 c-8 -3 -24 -10 -35 -15 -20 -9 -20 -9 -1 6 11 9 27 16 35 15 14 0 14 -1 1 -6zM1132 805 c6 -13 14 -22 19 -20 4 3 10 1 14 -4 9 -16 -84 -79 -142 -96 -28 -8 -68 -15 -89 -15 -36 0 -37 0 -19 20 14 16 17 30 12 70 -6 46 -4 52 16 60 12 5 57 9 100 9 73 1 78 0 89 -24zM1303 813 c-6 -16 -5 -17 13 -3 11 8 5 0 -14 -17 -42 -40 -65 -32 -26 8 32 34 36 35 27 12zM806 773 c-3 -21 -6 -53 -6 -70 0 -33 0 -33 -49 -33 -109 0 -131 18 -117 94 7 38 16 41 125 44 l54 2 -7 -37zM580 748 c0 -7 3 -24 6 -38 5 -17 4 -22 -4 -15 -16 15 -26 65 -13 65 6 0 11 -6 11 -12z"/><path d="M388 953 c7 -3 16 -2 19 1 4 3 -2 6 -13 5 -11 0 -14 -3 -6 -6z"/><path d="M380 930 c0 -5 9 -10 21 -10 11 0 17 5 14 10 -3 6 -13 10 -21 10 -8 0 -14 -4 -14 -10z"/><path d="M1275 790 c-3 -6 1 -7 9 -4 18 7 21 14 7 14 -6 0 -13 -4 -16 -10z"/><path d="M207 1223 c-4 -3 -7 -11 -7 -17 0 -6 5 -5 12 2 6 6 9 14 7 17 -3 3 -9 2 -12 -2z"/><path d="M468 603 c7 -3 16 -2 19 1 4 3 -2 6 -13 5 -11 0 -14 -3 -6 -6z"/><path d="M482 548 c-27 -62 -22 -76 8 -18 11 22 27 43 35 47 8 3 12 9 9 14 -12 20 -30 6 -52 -43z"/><path d="M1028 593 c7 -3 16 -2 19 1 4 3 -2 6 -13 5 -11 0 -14 -3 -6 -6z"/><path d="M588 583 c6 -2 18 -2 25 0 6 3 1 5 -13 5 -14 0 -19 -2 -12 -5z"/><path d="M978 583 c6 -2 18 -2 25 0 6 3 1 5 -13 5 -14 0 -19 -2 -12 -5z"/><path d="M663 573 c15 -2 37 -2 50 0 12 2 0 4 -28 4 -27 0 -38 -2 -22 -4z"/><path d="M898 573 c12 -2 30 -2 40 0 9 3 -1 5 -23 4 -22 0 -30 -2 -17 -4z"/></g><g transform="scale(0.05, 0.05)" fill="rgb(210, 171, 171)" stroke="none"><path d="M336 1485 c-21 -7 -43 -20 -48 -27 -8 -12 -7 -21 8 -83 9 -34 -2 -61 -19 -47 -23 20 -55 2 -71 -39 -20 -49 -22 -79 -4 -61 16 16 28 15 28 -2 0 -8 -9 -21 -19 -28 -20 -14 -41 -108 -24 -108 5 0 18 19 29 42 10 23 24 43 29 45 6 2 17 -14 24 -34 42 -117 152 -160 236 -93 43 34 70 38 97 13 18 -16 43 -16 366 -5 342 12 347 12 381 36 l34 25 43 -44 c45 -47 91 -63 141 -50 37 9 107 83 119 126 6 20 16 34 26 34 8 0 22 5 29 11 10 8 20 7 36 -1 25 -13 20 -25 -9 -25 -10 0 -18 -4 -18 -8 0 -16 24 -32 48 -32 23 0 24 3 20 53 -3 51 -27 87 -57 87 -6 0 -11 5 -11 11 0 7 12 10 30 7 19 -3 30 0 30 8 0 14 -46 28 -62 18 -7 -4 -8 -3 -4 4 4 7 19 12 34 12 25 0 26 1 7 13 -26 18 -106 38 -119 30 -6 -3 1 6 17 21 32 31 33 37 10 65 -13 16 -36 24 -83 31 -36 5 -328 9 -650 9 -474 0 -592 -3 -624 -14zM469 1424 c31 -22 51 -74 50 -126 -1 -24 -3 -35 -6 -25 -3 10 -14 17 -29 17 -31 0 -31 -17 1 -32 27 -12 29 -16 16 -36 -6 -10 -12 -7 -25 12 -25 39 -37 31 -21 -13 7 -22 11 -42 8 -45 -14 -14 -23 -4 -23 23 0 17 -4 33 -10 36 -6 3 -10 -4 -10 -17 0 -30 -15 -52 -29 -44 -8 5 -7 16 4 36 23 45 17 58 -11 26 -21 -23 -28 -26 -35 -15 -12 20 -11 29 5 29 17 0 41 28 32 37 -3 3 -17 1 -31 -5 -24 -11 -25 -10 -25 21 0 40 32 112 57 126 26 15 55 13 82 -5zM1592 1409 c25 -33 38 -93 28 -127 -5 -16 -9 -20 -9 -9 -1 12 -9 17 -28 17 l-28 -1 28 -25 c18 -15 27 -31 23 -40 -5 -12 -11 -10 -31 14 -14 17 -25 33 -25 37 0 4 -9 18 -20 32 -11 14 -20 23 -20 19 0 -4 -14 3 -31 15 l-31 22 4 -24 c2 -16 12 -25 35 -31 23 -6 31 -13 27 -23 -4 -8 -1 -15 6 -15 6 0 8 5 5 10 -3 6 -2 10 3 10 11 0 46 -110 37 -118 -9 -9 -25 19 -25 46 0 13 -4 20 -10 17 -5 -3 -10 -20 -10 -36 0 -20 -4 -29 -12 -26 -7 2 -12 10 -10 18 2 7 6 27 9 43 l5 31 -24 -29 c-19 -22 -27 -26 -33 -16 -5 9 1 20 18 35 15 11 27 24 27 28 0 12 -35 8 -48 -5 -9 -9 -12 -3 -12 29 0 48 23 108 47 122 31 19 84 9 105 -20zM1335 1270 c-10 -17 -71 -29 -195 -39 -345 -28 -487 -31 -500 -11 -12 19 7 26 91 35 84 9 592 32 602 27 4 -2 5 -7 2 -12z"/><path d="M417 1422 c-3 -4 -2 -30 1 -57 5 -46 7 -47 13 -20 10 46 10 85 0 85 -6 0 -12 -3 -14 -8z"/><path d="M376 1402 c-4 -7 0 -24 9 -38 22 -34 29 -24 12 17 -9 23 -16 29 -21 21z"/><path d="M456 1398 c-11 -36 -13 -58 -5 -58 11 0 29 34 29 54 0 19 -19 21 -24 4z"/><path d="M466 1334 c-15 -14 -27 -27 -25 -29 9 -8 61 9 66 22 11 28 -12 32 -41 7z"/><path d="M350 1334 c0 -8 5 -12 10 -9 6 3 10 10 10 16 0 5 -4 9 -10 9 -5 0 -10 -7 -10 -16z"/><path d="M376 1321 c-3 -5 5 -12 19 -15 13 -3 23 -12 21 -19 -1 -6 -1 -8 2 -3 2 4 8 2 13 -5 4 -7 11 -10 15 -6 4 4 -1 14 -12 22 -34 27 -53 35 -58 26z"/><path d="M1520 1384 c0 -57 19 -83 56 -76 27 5 40 24 29 42 -5 8 -14 4 -27 -10 -26 -28 -39 -12 -36 44 2 24 -2 41 -10 44 -8 2 -12 -11 -12 -44z"/><path d="M1476 1401 c-6 -10 20 -61 31 -61 7 0 -7 53 -17 63 -4 5 -11 4 -14 -2z"/><path d="M1559 1403 c0 -5 -3 -21 -5 -38 l-5 -30 21 23 c12 13 19 30 16 38 -6 15 -25 20 -27 7z"/><path d="M1695 1073 c-16 -20 -31 -41 -31 -47 -1 -6 -2 -16 -3 -23 -1 -13 -41 -9 -51 6 -3 6 -20 7 -45 1 -21 -5 -51 -6 -67 -3 -16 3 -28 1 -28 -4 0 -9 -20 -13 -72 -14 -10 0 -18 -3 -18 -7 0 -4 -33 -8 -72 -9 -51 -1 -65 1 -48 7 37 12 18 11 -125 -6 -105 -12 -137 -13 -168 -3 -33 11 -42 10 -82 -10 -40 -20 -61 -22 -173 -22 -70 -1 -142 1 -160 2 -20 2 -37 -3 -45 -13 -8 -11 -38 -17 -97 -22 l-85 -6 -28 46 c-15 25 -32 42 -37 39 -6 -3 -15 -3 -22 1 -8 5 -6 10 8 15 17 7 17 8 -3 8 -17 1 -23 -5 -23 -19 0 -11 7 -20 15 -20 15 0 14 -20 -1 -69 -6 -18 14 -41 36 -41 13 0 17 -6 13 -20 -3 -12 1 -22 11 -26 9 -3 16 -10 16 -15 0 -6 10 -23 22 -39 12 -16 19 -32 16 -35 -3 -3 -17 12 -32 34 -28 40 -66 79 -66 68 0 -3 27 -39 60 -78 34 -40 69 -83 78 -96 14 -19 37 -26 135 -43 169 -28 488 -25 479 5 -2 6 5 12 15 14 10 2 37 12 60 22 23 10 47 19 53 19 6 0 8 5 5 10 -4 6 -3 10 2 9 20 -3 34 2 28 10 -5 9 24 31 39 31 19 0 -1 -22 -50 -54 -31 -21 -53 -40 -51 -43 7 -7 46 20 179 124 82 64 114 83 138 83 18 0 29 4 25 10 -9 15 -48 12 -73 -5 -18 -13 -21 -13 -16 -2 3 9 57 27 137 47 140 35 279 89 222 87 -16 0 -34 -4 -40 -8 -36 -24 -478 -89 -455 -66 3 3 61 12 130 21 69 9 142 19 163 22 63 8 168 44 162 54 -4 6 -2 10 4 10 5 0 12 -4 15 -9 9 -14 69 -8 74 7 2 6 -1 12 -7 12 -6 0 -11 -5 -11 -11 0 -5 -5 -7 -12 -3 -8 5 -7 10 4 18 12 9 13 14 3 23 -7 7 -16 9 -19 6 -3 -4 -6 -1 -6 5 0 16 39 35 62 29 12 -3 18 -1 15 6 -2 7 -19 13 -38 14 -28 2 -39 -4 -64 -34zM933 953 c-7 -2 -19 -2 -25 0 -7 3 -2 5 12 5 14 0 19 -2 13 -5zM1107 954 c-3 -3 -12 -4 -19 -1 -8 3 -5 6 6 6 11 1 17 -2 13 -5zM990 940 c0 -5 -8 -10 -17 -10 -15 0 -16 2 -3 10 19 12 20 12 20 0zM570 920 c-36 -11 -50 -11 -50 0 0 6 17 10 38 9 33 -1 34 -2 12 -9zM1204 902 c5 -9 -101 -22 -369 -47 -168 -16 -240 -18 -160 -4 28 5 77 11 110 13 141 13 380 38 384 42 7 7 30 4 35 -4zM1280 840 c0 -4 -9 -15 -20 -25 -16 -15 -23 -16 -33 -6 -9 10 -9 11 4 6 10 -4 20 -1 25 6 4 7 3 10 -2 6 -14 -8 -38 9 -31 21 7 10 57 4 57 -8zM588 833 c-16 -2 -40 -2 -55 0 -16 2 -3 4 27 4 30 0 43 -2 28 -4zM1132 813 l11 -28 6 25 c4 17 14 26 31 28 21 4 22 2 11 -12 -7 -9 -17 -13 -22 -10 -5 3 -9 -1 -9 -10 0 -8 6 -17 13 -20 17 -7 -45 -60 -102 -87 -55 -26 -152 -41 -166 -27 -7 7 -6 12 3 15 8 3 12 28 12 73 l0 69 83 4 c45 1 90 4 100 5 11 1 22 -8 29 -25zM480 823 c-8 -3 -24 -10 -35 -15 -20 -9 -20 -9 -1 6 11 9 27 16 35 15 14 0 14 -1 1 -6zM1303 813 c-6 -16 -5 -17 13 -3 11 8 5 0 -14 -17 -42 -40 -65 -32 -26 8 32 34 36 35 27 12zM810 763 c0 -32 -3 -68 -6 -81 -6 -22 -10 -23 -73 -17 -106 11 -102 8 -99 78 l3 62 60 6 c126 12 115 17 115 -48zM595 681 c-11 -10 -35 31 -35 59 0 46 14 43 28 -6 7 -25 10 -49 7 -53z"/><path d="M1275 790 c-3 -6 1 -7 9 -4 18 7 21 14 7 14 -6 0 -13 -4 -16 -10z"/><path d="M388 953 c7 -3 16 -2 19 1 4 3 -2 6 -13 5 -11 0 -14 -3 -6 -6z"/><path d="M380 930 c0 -5 9 -10 21 -10 11 0 17 5 14 10 -3 6 -13 10 -21 10 -8 0 -14 -4 -14 -10z"/><path d="M505 590 c3 -5 10 -10 16 -10 5 0 9 5 9 10 0 6 -7 10 -16 10 -8 0 -12 -4 -9 -10z"/></g><g transform="scale(0.05, 0.05)" fill="rgb(243, 65, 72)" stroke="none"><path d="M336 1485 c-21 -7 -43 -20 -48 -27 -8 -12 -7 -21 8 -83 4 -13 3 -32 0 -41 -5 -13 -9 -14 -21 -4 -9 7 -18 10 -22 6 -3 -3 -1 -6 5 -6 8 0 12 -18 12 -49 0 -159 116 -267 215 -200 48 33 84 104 94 184 4 36 12 70 17 75 5 5 169 10 389 10 l380 2 6 -69 c3 -37 15 -89 26 -115 36 -79 74 -108 144 -108 36 0 48 6 78 38 43 45 60 91 68 190 5 64 8 72 27 73 16 1 14 3 -8 9 -16 5 -34 7 -40 3 -6 -3 1 6 17 21 32 31 33 37 10 65 -13 16 -36 24 -83 31 -36 5 -328 9 -650 9 -474 0 -592 -3 -624 -14zM469 1424 c31 -22 51 -74 50 -126 -1 -24 -3 -35 -6 -25 -3 10 -14 17 -29 17 -31 0 -31 -17 1 -32 27 -12 29 -16 16 -36 -6 -10 -12 -7 -25 12 -25 39 -37 31 -21 -13 7 -22 11 -42 8 -45 -14 -14 -23 -4 -23 23 0 17 -4 33 -10 36 -6 3 -10 -4 -10 -17 0 -30 -15 -52 -29 -44 -8 5 -7 16 4 36 23 45 17 58 -11 26 -21 -23 -28 -26 -35 -15 -12 20 -11 29 5 29 17 0 41 28 32 37 -3 3 -17 1 -31 -5 -24 -11 -25 -10 -25 21 0 40 32 112 57 126 26 15 55 13 82 -5zM1592 1409 c25 -33 38 -93 28 -127 -5 -16 -9 -20 -9 -9 -1 12 -9 17 -28 17 l-28 -1 28 -25 c18 -15 27 -31 23 -40 -5 -12 -11 -10 -31 14 -14 17 -25 33 -25 37 0 4 -9 18 -20 32 -11 14 -20 23 -20 19 0 -4 -14 3 -31 15 l-31 22 4 -24 c2 -16 12 -25 35 -31 23 -6 31 -13 27 -23 -4 -8 -1 -15 6 -15 6 0 8 5 5 10 -3 6 -2 10 3 10 11 0 46 -110 37 -118 -9 -9 -25 19 -25 46 0 13 -4 20 -10 17 -5 -3 -10 -20 -10 -36 0 -20 -4 -29 -12 -26 -7 2 -12 10 -10 18 2 7 6 27 9 43 l5 31 -24 -29 c-19 -22 -27 -26 -33 -16 -5 9 1 20 18 35 15 11 27 24 27 28 0 12 -35 8 -48 -5 -9 -9 -12 -3 -12 29 0 48 23 108 47 122 31 19 84 9 105 -20z"/><path d="M417 1422 c-3 -4 -2 -30 1 -57 5 -46 7 -47 13 -20 10 46 10 85 0 85 -6 0 -12 -3 -14 -8z"/><path d="M376 1402 c-4 -7 0 -24 9 -38 22 -34 29 -24 12 17 -9 23 -16 29 -21 21z"/><path d="M456 1398 c-11 -36 -13 -58 -5 -58 11 0 29 34 29 54 0 19 -19 21 -24 4z"/><path d="M466 1334 c-15 -14 -27 -27 -25 -29 9 -8 61 9 66 22 11 28 -12 32 -41 7z"/><path d="M350 1334 c0 -8 5 -12 10 -9 6 3 10 10 10 16 0 5 -4 9 -10 9 -5 0 -10 -7 -10 -16z"/><path d="M376 1321 c-3 -5 5 -12 19 -15 13 -3 23 -12 21 -19 -1 -6 -1 -8 2 -3 2 4 8 2 13 -5 4 -7 11 -10 15 -6 4 4 -1 14 -12 22 -34 27 -53 35 -58 26z"/><path d="M1520 1384 c0 -57 19 -83 56 -76 27 5 40 24 29 42 -5 8 -14 4 -27 -10 -26 -28 -39 -12 -36 44 2 24 -2 41 -10 44 -8 2 -12 -11 -12 -44z"/><path d="M1476 1401 c-6 -10 20 -61 31 -61 7 0 -7 53 -17 63 -4 5 -11 4 -14 -2z"/><path d="M1559 1403 c0 -5 -3 -21 -5 -38 l-5 -30 21 23 c12 13 19 30 16 38 -6 15 -25 20 -27 7z"/><path d="M1750 1312 c0 -4 14 -13 30 -19 24 -9 30 -9 30 2 0 7 -10 15 -22 19 -31 8 -38 7 -38 -2z"/><path d="M1754 1248 c3 -13 6 -29 6 -35 0 -7 9 -13 20 -13 23 0 28 38 8 58 -21 21 -41 15 -34 -10z"/><path d="M1696 1074 c-28 -33 -28 -35 -11 -54 18 -20 61 -29 50 -10 -3 6 1 13 9 16 12 5 13 9 3 19 -7 7 -15 11 -19 8 -5 -2 -8 0 -8 6 0 16 40 33 62 28 12 -3 18 -1 15 6 -2 7 -19 13 -38 14 -28 2 -39 -4 -63 -33z"/><path d="M220 990 c0 -11 5 -20 11 -20 6 0 9 6 6 14 -4 9 1 17 11 19 12 3 11 5 -5 6 -17 1 -23 -5 -23 -19z"/><path d="M280 940 c0 -8 -10 -20 -22 -25 -12 -6 -23 -16 -24 -23 -1 -7 0 -8 3 -2 3 7 10 4 18 -7 11 -14 18 -16 32 -7 24 15 27 35 9 59 -12 15 -15 16 -16 5z"/><path d="M1170 884 c-52 -7 -207 -22 -345 -33 -324 -28 -318 -27 -360 -41 -25 -8 -35 -17 -35 -32 0 -28 66 -115 100 -133 15 -8 85 -19 157 -26 150 -14 297 -1 371 31 92 41 303 215 288 238 -9 14 -49 14 -176 -4zM1287 854 c2 -6 -6 -23 -18 -38 -17 -22 -24 -24 -36 -15 -16 14 -14 54 4 54 6 0 15 3 19 8 10 9 27 4 31 -9zM1132 813 l11 -28 6 25 c4 17 14 26 31 28 21 4 22 2 11 -12 -7 -9 -17 -13 -22 -10 -5 3 -9 -1 -9 -10 0 -8 6 -17 13 -20 17 -7 -45 -60 -102 -87 -55 -26 -152 -41 -166 -27 -7 7 -6 12 3 15 8 3 12 28 12 73 l0 69 83 4 c45 1 90 4 100 5 11 1 22 -8 29 -25zM810 763 c0 -32 -3 -68 -6 -81 -6 -22 -10 -23 -73 -17 -106 11 -102 8 -99 78 l3 62 60 6 c126 12 115 17 115 -48zM595 681 c-11 -10 -35 31 -35 59 0 46 14 43 28 -6 7 -25 10 -49 7 -53z"/><path d="M1370 843 c-14 -9 -59 -45 -100 -78 -41 -34 -97 -76 -123 -94 -27 -18 -46 -35 -43 -38 6 -7 46 21 178 124 82 64 114 83 138 83 18 0 29 4 25 10 -10 15 -48 12 -75 -7z"/><path d="M250 825 c0 -5 105 -133 128 -155 24 -23 6 2 -63 88 -57 69 -65 78 -65 67z"/><path d="M505 590 c3 -5 11 -10 16 -10 6 0 7 5 4 10 -3 6 -11 10 -16 10 -6 0 -7 -4 -4 -10z"/></g><g transform="scale(0.05, 0.05)" fill="rgb(34, 31, 30)" stroke="none"><path d="M336 1485 c-21 -7 -43 -20 -48 -27 -8 -12 -7 -21 8 -83 4 -13 3 -32 0 -41 -5 -13 -9 -14 -21 -4 -9 7 -18 10 -22 6 -3 -3 -1 -6 5 -6 8 0 12 -18 12 -49 0 -159 116 -267 215 -200 48 33 84 104 94 184 4 36 12 70 17 75 5 5 169 10 389 10 l380 2 6 -69 c3 -37 15 -89 26 -115 36 -79 74 -108 144 -108 36 0 48 6 78 38 43 45 60 91 68 190 5 64 8 72 27 73 16 1 14 3 -8 9 -16 5 -34 7 -40 3 -6 -3 1 6 17 21 32 31 33 37 10 65 -13 16 -36 24 -83 31 -36 5 -328 9 -650 9 -474 0 -592 -3 -624 -14zM469 1424 c31 -22 51 -74 50 -126 -1 -24 -3 -35 -6 -25 -3 10 -14 17 -29 17 -31 0 -31 -17 1 -32 27 -12 29 -16 16 -36 -6 -10 -12 -7 -25 12 -25 39 -37 31 -21 -13 7 -22 11 -42 8 -45 -14 -14 -23 -4 -23 23 0 17 -4 33 -10 36 -6 3 -10 -4 -10 -17 0 -30 -15 -52 -29 -44 -8 5 -7 16 4 36 23 45 17 58 -11 26 -21 -23 -28 -26 -35 -15 -12 20 -11 29 5 29 17 0 41 28 32 37 -3 3 -17 1 -31 -5 -24 -11 -25 -10 -25 21 0 40 32 112 57 126 26 15 55 13 82 -5zM1592 1409 c25 -33 38 -93 28 -127 -5 -16 -9 -20 -9 -9 -1 12 -9 17 -28 17 l-28 -1 28 -25 c18 -15 27 -31 23 -40 -5 -12 -11 -10 -31 14 -14 17 -25 33 -25 37 0 4 -9 18 -20 32 -11 14 -20 23 -20 19 0 -4 -14 3 -31 15 l-31 22 4 -24 c2 -16 12 -25 35 -31 23 -6 31 -13 27 -23 -4 -8 -1 -15 6 -15 6 0 8 5 5 10 -3 6 -2 10 3 10 11 0 46 -110 37 -118 -9 -9 -25 19 -25 46 0 13 -4 20 -10 17 -5 -3 -10 -20 -10 -36 0 -20 -4 -29 -12 -26 -7 2 -12 10 -10 18 2 7 6 27 9 43 l5 31 -24 -29 c-19 -22 -27 -26 -33 -16 -5 9 1 20 18 35 15 11 27 24 27 28 0 12 -35 8 -48 -5 -9 -9 -12 -3 -12 29 0 48 23 108 47 122 31 19 84 9 105 -20z"/><path d="M417 1422 c-3 -4 -2 -30 1 -57 5 -46 7 -47 13 -20 10 46 10 85 0 85 -6 0 -12 -3 -14 -8z"/><path d="M376 1402 c-4 -7 0 -24 9 -38 22 -34 29 -24 12 17 -9 23 -16 29 -21 21z"/><path d="M456 1398 c-11 -36 -13 -58 -5 -58 11 0 29 34 29 54 0 19 -19 21 -24 4z"/><path d="M466 1334 c-15 -14 -27 -27 -25 -29 9 -8 61 9 66 22 11 28 -12 32 -41 7z"/><path d="M350 1334 c0 -8 5 -12 10 -9 6 3 10 10 10 16 0 5 -4 9 -10 9 -5 0 -10 -7 -10 -16z"/><path d="M376 1321 c-3 -5 5 -12 19 -15 13 -3 23 -12 21 -19 -1 -6 -1 -8 2 -3 2 4 8 2 13 -5 4 -7 11 -10 15 -6 4 4 -1 14 -12 22 -34 27 -53 35 -58 26z"/><path d="M1520 1384 c0 -57 19 -83 56 -76 27 5 40 24 29 42 -5 8 -14 4 -27 -10 -26 -28 -39 -12 -36 44 2 24 -2 41 -10 44 -8 2 -12 -11 -12 -44z"/><path d="M1476 1401 c-6 -10 20 -61 31 -61 7 0 -7 53 -17 63 -4 5 -11 4 -14 -2z"/><path d="M1559 1403 c0 -5 -3 -21 -5 -38 l-5 -30 21 23 c12 13 19 30 16 38 -6 15 -25 20 -27 7z"/><path d="M1750 1312 c0 -4 14 -13 30 -19 24 -9 30 -9 30 2 0 7 -10 15 -22 19 -31 8 -38 7 -38 -2z"/><path d="M1754 1248 c3 -13 6 -29 6 -35 0 -7 9 -13 20 -13 23 0 28 38 8 58 -21 21 -41 15 -34 -10z"/><path d="M1696 1074 c-28 -33 -28 -35 -11 -54 18 -20 61 -29 50 -10 -3 6 1 13 9 16 12 5 13 9 3 19 -7 7 -15 11 -19 8 -5 -2 -8 0 -8 6 0 16 40 33 62 28 12 -3 18 -1 15 6 -2 7 -19 13 -38 14 -28 2 -39 -4 -63 -33z"/><path d="M220 990 c0 -11 5 -20 11 -20 6 0 9 6 6 14 -4 9 1 17 11 19 12 3 11 5 -5 6 -17 1 -23 -5 -23 -19z"/><path d="M280 940 c0 -8 -10 -20 -22 -25 -12 -6 -23 -16 -24 -23 -1 -7 0 -8 3 -2 3 7 10 4 18 -7 11 -14 18 -16 32 -7 24 15 27 35 9 59 -12 15 -15 16 -16 5z"/><path d="M1170 884 c-52 -7 -207 -22 -345 -33 -324 -28 -318 -27 -360 -41 -25 -8 -35 -17 -35 -32 0 -28 66 -115 100 -133 15 -8 85 -19 157 -26 150 -14 297 -1 371 31 92 41 303 215 288 238 -9 14 -49 14 -176 -4zM1287 854 c2 -6 -6 -23 -18 -38 -17 -22 -24 -24 -36 -15 -16 14 -14 54 4 54 6 0 15 3 19 8 10 9 27 4 31 -9zM1132 813 l11 -28 6 25 c4 17 14 26 31 28 21 4 22 2 11 -12 -7 -9 -17 -13 -22 -10 -5 3 -9 -1 -9 -10 0 -8 6 -17 13 -20 17 -7 -45 -60 -102 -87 -55 -26 -152 -41 -166 -27 -7 7 -6 12 3 15 8 3 12 28 12 73 l0 69 83 4 c45 1 90 4 100 5 11 1 22 -8 29 -25zM810 763 c0 -32 -3 -68 -6 -81 -6 -22 -10 -23 -73 -17 -106 11 -102 8 -99 78 l3 62 60 6 c126 12 115 17 115 -48zM595 681 c-11 -10 -35 31 -35 59 0 46 14 43 28 -6 7 -25 10 -49 7 -53z"/><path d="M1370 843 c-14 -9 -59 -45 -100 -78 -41 -34 -97 -76 -123 -94 -27 -18 -46 -35 -43 -38 6 -7 46 21 178 124 82 64 114 83 138 83 18 0 29 4 25 10 -10 15 -48 12 -75 -7z"/><path d="M250 825 c0 -5 105 -133 128 -155 24 -23 6 2 -63 88 -57 69 -65 78 -65 67z"/><path d="M505 590 c3 -5 11 -10 16 -10 6 0 7 5 4 10 -3 6 -11 10 -16 10 -6 0 -7 -4 -4 -10z"/></g><g transform="scale(0.05, 0.05)" fill="rgb(192, 13, 15)" stroke="none"><path d="M376 1480 c-35 -22 -62 -69 -71 -122 -4 -23 -12 -38 -21 -38 -20 0 -18 -74 2 -138 34 -103 126 -150 199 -101 46 32 84 104 94 181 4 35 12 71 16 81 4 9 3 17 -2 17 -5 0 -18 6 -28 14 -17 12 38 14 408 13 341 -1 427 -4 427 -14 0 -7 -7 -13 -15 -13 -23 0 -20 -107 5 -173 34 -91 77 -127 151 -127 36 0 48 6 78 38 44 46 60 92 68 196 6 75 5 78 -14 72 -17 -6 -22 -1 -27 28 -10 50 -65 96 -117 96 -22 0 -54 -7 -70 -16 -46 -23 -909 -15 -983 10 -62 20 -65 20 -100 -4zM1565 1440 c53 -20 81 -133 51 -204 -14 -34 -46 -65 -33 -33 3 9 -2 26 -13 39 -24 28 -25 22 -4 -27 13 -31 13 -39 2 -46 -48 -31 -110 16 -129 96 -15 66 0 124 42 159 34 29 45 31 84 16zM471 1430 c50 -27 67 -155 29 -218 -60 -98 -170 -42 -170 87 0 54 24 114 54 133 16 11 64 10 87 -2z"/><path d="M1520 1416 c0 -9 5 -16 10 -16 6 0 10 4 10 9 0 6 -4 13 -10 16 -5 3 -10 -1 -10 -9z"/><path d="M1487 1380 c3 -11 9 -22 13 -25 5 -3 6 4 3 15 -3 11 -9 22 -13 25 -5 3 -6 -4 -3 -15z"/><path d="M1560 1390 c0 -5 5 -10 10 -10 6 0 10 5 10 10 0 6 -4 10 -10 10 -5 0 -10 -4 -10 -10z"/><path d="M1457 1343 c-12 -11 -7 -21 13 -26 11 -3 20 -2 20 3 0 12 -26 31 -33 23z"/><path d="M1585 1341 c-3 -5 -1 -12 5 -16 5 -3 10 1 10 9 0 18 -6 21 -15 7z"/><path d="M1590 1275 c0 -8 4 -15 8 -15 5 0 9 7 9 15 0 8 -4 15 -9 15 -4 0 -8 -7 -8 -15z"/><path d="M1450 1265 c0 -13 4 -14 20 -5 11 6 20 13 20 15 0 3 -9 5 -20 5 -11 0 -20 -7 -20 -15z"/><path d="M1492 1238 c-14 -14 -17 -52 -3 -44 7 5 22 56 17 56 -1 0 -7 -5 -14 -12z"/><path d="M1526 1203 c-4 -9 -2 -21 4 -27 7 -7 10 -2 10 17 0 31 -5 34 -14 10z"/><path d="M375 1390 c-3 -5 -1 -10 4 -10 6 0 11 5 11 10 0 6 -2 10 -4 10 -3 0 -8 -4 -11 -10z"/><path d="M421 1374 c0 -11 3 -14 6 -6 3 7 2 16 -1 19 -3 4 -6 -2 -5 -13z"/><path d="M455 1369 c-4 -6 -5 -12 -2 -15 2 -3 7 2 10 11 7 17 1 20 -8 4z"/><path d="M474 1335 c-19 -14 -18 -14 4 -15 13 0 22 6 22 15 0 19 -1 19 -26 0z"/><path d="M472 1278 c3 -7 13 -15 22 -16 12 -3 17 1 14 10 -3 7 -13 15 -22 16 -12 3 -17 -1 -14 -10z"/><path d="M350 1264 c0 -14 3 -15 18 -3 9 7 19 15 21 16 2 2 -5 3 -17 3 -14 0 -22 -6 -22 -16z"/><path d="M382 1229 c-9 -14 -10 -25 -4 -31 6 -6 13 2 20 21 13 36 3 41 -16 10z"/><path d="M453 1237 c4 -10 7 -23 7 -28 0 -5 5 -9 10 -9 16 0 12 26 -7 41 -15 12 -16 12 -10 -4z"/><path d="M421 1201 c-1 -24 2 -32 9 -25 7 7 7 19 1 35 -9 23 -10 22 -10 -10z"/><path d="M1775 1296 c32 -14 41 -13 30 3 -3 6 -18 11 -33 11 l-27 -1 30 -13z"/><path d="M1750 1262 c0 -6 4 -22 10 -36 12 -32 43 -36 38 -5 -3 22 -48 60 -48 41z"/><path d="M1740 1100 c0 -5 11 -10 25 -10 14 0 25 5 25 10 0 6 -11 10 -25 10 -14 0 -25 -4 -25 -10z"/><path d="M1687 1053 c-16 -19 -16 -21 4 -38 17 -16 22 -17 29 -5 5 8 5 17 1 20 -5 3 -10 13 -12 24 -4 18 -5 17 -22 -1z"/><path d="M280 938 c0 -10 -7 -18 -15 -18 -20 0 -20 -39 0 -46 17 -7 45 12 45 30 0 7 -7 21 -15 32 -13 17 -14 17 -15 2z"/><path d="M1135 879 c-82 -10 -238 -25 -345 -33 -325 -26 -360 -33 -360 -68 0 -27 66 -115 99 -132 14 -8 85 -20 157 -26 254 -25 372 7 539 146 119 99 132 113 115 125 -18 11 -18 11 -205 -12zM1320 880 c0 -5 -7 -10 -15 -10 -8 0 -15 -6 -15 -14 0 -24 -39 -63 -62 -64 -13 0 -40 -15 -60 -33 -54 -50 -136 -88 -205 -95 -66 -7 -92 7 -58 32 15 11 17 22 12 62 -8 73 -3 76 113 80 85 3 100 2 100 -11 0 -9 5 -19 11 -23 8 -4 9 0 4 15 -6 18 -2 21 27 22 18 1 36 1 41 0 4 0 7 3 7 9 0 5 16 12 35 16 19 3 38 10 41 15 7 12 24 11 24 -1zM816 774 c-3 -26 -6 -59 -6 -73 0 -50 -9 -54 -98 -41 -91 14 -97 21 -86 104 l7 45 46 4 c25 2 68 4 95 5 l49 2 -7 -46zM597 758 c9 -27 11 -65 4 -87 0 -2 -10 4 -21 14 -27 25 -28 105 0 105 3 0 11 -15 17 -32z"/><path d="M1190 815 c0 -9 5 -15 11 -13 6 2 11 8 11 13 0 5 -5 11 -11 13 -6 2 -11 -4 -11 -13z"/><path d="M1408 843 c6 -2 18 -2 25 0 6 3 1 5 -13 5 -14 0 -19 -2 -12 -5z"/></g><g transform="scale(0.05, 0.05)" fill="rgb(254, 254, 254)" stroke="none"></g></svg>