<svg version="1.0" xmlns="http://www.w3.org/2000/svg" width="300" height="300" viewBox="0 0 100 100" >
<g transform="scale(0.05, 0.05)" fill="rgb(100, 100, 101)" stroke="none"><path d="M774 1527 c-71 -73 -145 -146 -164 -164 -19 -17 -78 -76 -130 -132 -52 -55 -99 -101 -103 -101 -8 0 -72 -57 -174 -157 -24 -23 -43 -46 -43 -51 0 -6 -3 -17 -6 -26 -8 -22 52 -50 109 -51 51 0 67 -12 67 -52 0 -32 43 -57 95 -54 48 2 75 -17 75 -54 0 -33 40 -55 99 -55 41 0 52 -4 61 -21 7 -11 9 -27 6 -34 -8 -22 53 -52 102 -49 45 2 62 -13 62 -54 0 -31 40 -51 92 -45 39 5 47 2 61 -17 8 -12 13 -29 10 -37 -6 -15 31 -52 53 -53 5 0 36 23 67 51 41 36 56 56 52 69 -6 20 3 50 17 50 5 0 6 -4 3 -10 -7 -12 5 -13 23 -1 11 6 10 11 -3 25 -20 20 -26 20 -51 1 -21 -16 -62 -19 -82 -6 -21 13 13 34 53 33 23 -1 38 4 44 16 10 16 10 16 11 0 0 -22 36 -24 48 -3 4 9 18 17 30 18 11 0 25 12 31 24 6 13 22 28 36 33 14 5 34 23 43 40 9 16 22 30 29 30 7 0 17 9 23 20 6 11 17 20 25 20 7 0 16 8 20 18 3 11 15 24 28 29 12 6 44 30 70 53 43 38 51 42 73 32 16 -8 24 -8 24 -1 0 6 4 8 9 5 5 -3 11 1 15 9 3 8 11 15 19 15 7 0 13 9 13 20 0 13 -19 33 -53 57 -57 39 -60 44 -38 63 12 10 21 8 50 -10 19 -12 35 -26 35 -31 0 -5 6 -9 14 -9 7 0 19 -7 26 -15 16 -19 19 -19 55 10 l29 24 -29 31 c-16 16 -34 30 -41 30 -7 0 -17 7 -22 16 -7 13 -11 14 -17 4 -4 -7 -2 -16 6 -21 10 -6 11 -11 2 -20 -17 -17 -46 -7 -63 24 -13 24 -13 29 -1 36 19 12 4 31 -43 56 -19 10 -37 27 -39 37 -7 24 -27 23 -27 -2 0 -11 5 -20 10 -20 6 0 10 -4 10 -10 0 -14 -54 -12 -68 2 -15 15 -16 45 -1 50 15 5 0 36 -20 43 -9 2 -31 19 -50 35 l-33 30 7 -31 c7 -30 6 -32 -16 -26 -13 4 -30 7 -37 7 -20 0 -37 47 -23 64 9 11 5 20 -25 45 -21 16 -41 28 -45 26 -4 -3 -9 4 -12 15 -6 23 -24 27 -24 5 0 -8 4 -15 9 -15 4 0 8 -7 8 -15 0 -18 -40 -20 -62 -2 -20 15 -28 53 -10 50 6 -2 12 0 12 3 0 10 -60 63 -79 69 -11 3 -22 16 -25 28 -6 21 -7 21 -18 3 -8 -15 -8 -21 0 -24 22 -7 12 -22 -13 -22 -14 0 -34 9 -45 20 -24 24 -27 55 -5 46 18 -7 19 1 3 17 -14 13 -77 60 -94 70 -6 3 -69 -53 -140 -126zM1015 1482 c-3 -3 -11 0 -18 7 -9 10 -8 11 6 5 10 -3 15 -9 12 -12zM1073 1473 c-7 -2 -19 -2 -25 0 -7 3 -2 5 12 5 14 0 19 -2 13 -5zM844 1359 c-21 -24 -29 -18 -14 10 6 12 16 19 21 15 6 -4 4 -13 -7 -25zM1157 1374 c-3 -3 -12 -4 -19 -1 -8 3 -5 6 6 6 11 1 17 -2 13 -5zM657 1333 c-4 -3 -2 -12 4 -20 7 -8 8 -13 1 -13 -12 0 -23 26 -15 34 4 3 9 6 11 6 3 0 2 -3 -1 -7zM890 1325 c0 -8 -7 -15 -16 -15 -14 0 -14 3 -4 15 7 8 14 15 16 15 2 0 4 -7 4 -15zM944 1321 c3 -4 -3 -16 -14 -26 -20 -18 -25 -11 -14 19 7 18 20 21 28 7zM1113 1296 c-10 -13 -20 -19 -22 -13 -2 5 4 16 15 24 26 19 27 16 7 -11zM636 1262 c-4 -3 -11 0 -16 8 -15 24 -11 33 6 15 9 -9 13 -19 10 -23zM966 1262 c-11 -11 -16 -12 -16 -4 0 18 24 43 29 30 2 -5 -4 -17 -13 -26zM585 1260 c-3 -5 -1 -10 4 -10 6 0 11 -4 11 -10 0 -5 -7 -7 -15 -4 -22 9 -38 -5 -24 -22 7 -8 7 -14 1 -14 -22 0 -22 32 0 51 26 21 32 23 23 9zM1018 1245 c-8 -18 -15 -22 -22 -15 -7 7 -4 15 10 25 25 19 25 19 12 -10zM1150 1250 c0 -12 -28 -25 -36 -17 -9 9 6 27 22 27 8 0 14 -5 14 -10zM1230 1240 c0 -5 -4 -10 -10 -10 -5 0 -10 5 -10 10 0 6 5 10 10 10 6 0 10 -4 10 -10zM1070 1233 c0 -17 -19 -37 -27 -29 -4 5 -2 11 5 13 6 3 10 9 6 14 -3 5 0 9 5 9 6 0 11 -3 11 -7zM1376 1209 c3 -6 -5 -3 -20 6 -14 10 -26 19 -26 22 0 7 39 -17 46 -28zM1137 1214 c-3 -3 -12 -4 -19 -1 -8 3 -5 6 6 6 11 1 17 -2 13 -5zM1200 1205 c0 -8 -9 -15 -20 -15 -22 0 -27 15 -7 23 21 9 27 7 27 -8zM525 1180 c3 -5 1 -10 -4 -10 -6 0 -11 5 -11 10 0 6 2 10 4 10 3 0 8 -4 11 -10zM1304 1173 c4 -4 -8 -14 -26 -23 -18 -8 -34 -24 -36 -35 -5 -27 -18 -39 -32 -30 -8 5 -5 14 9 29 12 12 18 26 14 29 -3 4 1 7 9 7 9 0 21 7 28 15 14 16 23 19 34 8zM1435 1170 c3 -6 -1 -7 -9 -4 -18 7 -21 14 -7 14 6 0 13 -4 16 -10zM1504 1122 c3 -5 -1 -9 -9 -9 -8 0 -12 4 -9 9 3 4 7 8 9 8 2 0 6 -4 9 -8zM745 1076 c67 -8 110 -19 117 -29 3 -6 1 -20 -4 -33 -10 -21 -12 -22 -33 -8 -20 13 -24 13 -35 -1 -9 -10 -22 -14 -36 -11 -15 4 -26 1 -32 -10 -7 -13 -13 -13 -35 -3 -15 7 -27 16 -27 21 0 4 -5 7 -12 6 -6 -2 -14 5 -16 14 -4 21 42 70 60 63 7 -2 31 -7 53 -9zM1158 1041 c-33 -27 -43 -15 -10 14 15 13 29 19 30 14 2 -5 -7 -18 -20 -28zM410 1041 c0 -5 -9 -7 -20 -4 -14 4 -20 0 -20 -11 0 -9 -6 -16 -13 -16 -25 0 -27 13 -5 36 17 17 27 20 40 13 10 -5 18 -14 18 -18zM1370 1045 c57 -36 82 -65 69 -82 -6 -7 -15 -10 -21 -7 -5 3 -4 12 3 20 7 9 8 14 1 14 -6 0 -14 -5 -18 -12 -5 -7 -11 -3 -17 13 l-10 24 -4 -25 c-7 -49 -14 -70 -22 -70 -4 0 -27 14 -50 31 -34 24 -40 33 -31 44 7 8 15 14 18 13 22 -2 42 3 42 13 0 10 -11 8 -60 -9 -8 -3 -2 9 14 26 17 18 33 32 38 32 5 0 26 -11 48 -25zM1494 1039 c-6 -11 -24 -2 -24 11 0 5 7 7 15 4 8 -4 12 -10 9 -15zM485 1000 c3 -5 1 -10 -4 -10 -6 0 -11 5 -11 10 0 6 2 10 4 10 3 0 8 -4 11 -10zM1095 1000 c13 10 15 9 15 -9 0 -24 -11 -26 -64 -7 -22 7 -33 15 -25 18 8 3 24 0 36 -5 16 -7 27 -6 38 3zM442 971 c29 -26 31 -30 15 -37 -18 -7 -43 3 -82 32 -17 13 -18 16 -5 24 24 15 38 12 72 -19zM810 990 c0 -5 -2 -10 -4 -10 -3 0 -8 5 -11 10 -3 6 -1 10 4 10 6 0 11 -4 11 -10zM1060 951 c0 -5 -9 -13 -21 -16 -18 -6 -45 -49 -41 -67 3 -11 -36 -10 -43 1 -3 6 8 20 25 32 16 13 30 28 30 35 0 13 15 22 38 23 6 1 12 -3 12 -8zM1253 930 c11 -11 24 -20 28 -20 3 0 18 -9 33 -21 23 -18 24 -23 14 -42 -7 -12 -13 -26 -13 -32 0 -5 -8 -9 -17 -7 -9 1 -19 -2 -23 -8 -10 -17 -28 -11 -21 8 5 14 4 14 -9 -2 -8 -11 -15 -15 -15 -9 0 5 -25 27 -55 47 -30 20 -55 40 -55 45 0 13 26 32 33 24 4 -3 7 0 7 8 0 42 52 47 93 9zM554 906 c-3 -8 0 -17 5 -21 6 -3 8 -12 5 -18 -5 -8 -3 -8 7 1 21 19 55 14 72 -10 13 -19 16 -20 16 -5 1 18 16 23 26 8 8 -15 -55 -59 -76 -54 -23 6 -61 52 -53 64 3 5 -1 12 -10 15 -15 6 -11 34 5 34 4 0 6 -6 3 -14zM1375 860 c-10 -11 -22 -20 -28 -20 -5 0 1 9 14 20 31 25 37 25 14 0zM431 824 c10 -12 9 -17 -1 -27 -10 -10 -12 -8 -7 6 5 14 3 16 -11 8 -21 -11 -69 20 -58 37 8 13 59 -3 77 -24zM929 826 c-8 -6 -23 -27 -33 -48 -17 -31 -22 -34 -37 -25 -16 10 -16 13 -4 27 8 9 15 22 15 28 0 7 6 12 13 12 8 0 22 9 33 21 12 14 20 17 23 8 2 -7 -2 -17 -10 -23zM1152 804 c56 -38 66 -49 58 -64 -12 -23 -58 -52 -71 -45 -5 4 -8 1 -7 -6 2 -6 -3 -14 -11 -17 -8 -2 -11 0 -7 6 3 6 -9 19 -26 31 -18 11 -48 31 -65 44 l-33 24 36 37 c19 20 40 36 47 36 7 0 42 -21 79 -46zM720 807 c0 -2 -12 -14 -27 -28 l-28 -24 24 28 c23 25 31 32 31 24zM1400 807 c0 -2 -10 -12 -22 -23 l-23 -19 19 23 c18 21 26 27 26 19zM760 797 c0 -2 -15 -16 -32 -33 l-33 -29 29 33 c28 30 36 37 36 29zM1290 787 c0 -2 -10 -12 -22 -23 l-23 -19 19 23 c18 21 26 27 26 19zM1036 698 c36 -24 60 -44 54 -46 -8 -3 -8 -8 0 -17 8 -10 6 -15 -9 -20 -12 -3 -26 -3 -33 1 -10 6 -10 5 -1 -7 10 -12 8 -17 -8 -27 -10 -7 -19 -8 -19 -3 0 5 4 11 10 13 6 2 6 9 0 18 -8 13 -11 13 -26 -2 -16 -15 -20 -14 -70 19 -30 20 -54 38 -54 41 0 13 65 72 78 72 8 0 43 -19 78 -42z"/><path d="M703 1004 c-7 -7 -9 -15 -4 -18 5 -3 14 1 20 8 15 18 0 28 -16 10z"/><path d="M1275 830 c-3 -5 -1 -10 4 -10 6 0 11 5 11 10 0 6 -2 10 -4 10 -3 0 -8 -4 -11 -10z"/><path d="M929 673 c-13 -16 -12 -17 4 -4 16 13 21 21 13 21 -2 0 -10 -8 -17 -17z"/><path d="M1670 1000 c8 -5 20 -10 25 -10 6 0 3 5 -5 10 -8 5 -19 10 -25 10 -5 0 -3 -5 5 -10z"/><path d="M167 194 c2 -7 11 -10 19 -7 19 7 18 10 -5 16 -13 3 -18 1 -14 -9z"/><path d="M214 198 c-3 -4 2 -8 10 -8 8 0 17 4 20 8 3 5 -2 9 -10 9 -8 0 -17 -4 -20 -9z"/><path d="M261 194 c0 -11 3 -14 6 -6 3 7 2 16 -1 19 -3 4 -6 -2 -5 -13z"/><path d="M295 201 c3 -5 -1 -11 -7 -14 -7 -3 -3 -4 10 -4 25 1 29 12 6 21 -8 3 -13 2 -9 -3z"/><path d="M330 200 c0 -6 7 -10 15 -10 8 0 15 2 15 4 0 2 -7 6 -15 10 -8 3 -15 1 -15 -4z"/><path d="M375 200 c-3 -5 -1 -10 4 -10 6 0 11 5 11 10 0 6 -2 10 -4 10 -3 0 -8 -4 -11 -10z"/><path d="M309 165 c-3 -2 -62 -6 -131 -7 -112 -3 -124 -5 -115 -19 9 -14 13 -14 36 -3 23 13 26 12 29 -5 2 -13 11 -18 30 -18 14 0 28 -6 30 -13 3 -9 6 -9 12 -1 4 8 54 12 149 13 137 2 142 2 139 22 -3 19 -10 21 -69 22 -36 1 -75 5 -86 8 -11 3 -22 4 -24 1zM188 139 c-2 -6 -8 -10 -13 -10 -5 0 -11 4 -13 10 -2 6 4 11 13 11 9 0 15 -5 13 -11zM253 143 c-7 -2 -19 -2 -25 0 -7 3 -2 5 12 5 14 0 19 -2 13 -5zM303 143 c-7 -2 -19 -2 -25 0 -7 3 -2 5 12 5 14 0 19 -2 13 -5zM352 135 c0 -5 -5 -11 -11 -13 -6 -2 -11 4 -11 13 0 9 5 15 11 13 6 -2 11 -8 11 -13zM413 143 c-7 -2 -19 -2 -25 0 -7 3 -2 5 12 5 14 0 19 -2 13 -5zM297 124 c-3 -3 -12 -4 -19 -1 -8 3 -5 6 6 6 11 1 17 -2 13 -5zM407 124 c-3 -3 -12 -4 -19 -1 -8 3 -5 6 6 6 11 1 17 -2 13 -5z"/></g><g transform="scale(0.05, 0.05)" fill="rgb(207, 205, 192)" stroke="none"><path d="M774 1527 c-71 -73 -145 -146 -164 -164 -19 -17 -78 -76 -130 -132 -52 -55 -99 -101 -103 -101 -8 0 -72 -57 -174 -157 -24 -23 -43 -46 -43 -51 0 -6 -3 -17 -6 -26 -8 -22 52 -50 109 -51 51 0 67 -12 67 -52 0 -32 43 -57 95 -54 48 2 75 -17 75 -54 0 -33 40 -55 99 -55 41 0 52 -4 61 -21 7 -11 9 -27 6 -34 -8 -22 53 -52 102 -49 45 2 62 -13 62 -54 0 -31 40 -51 92 -45 39 5 47 2 61 -17 8 -12 13 -29 10 -37 -6 -15 31 -52 53 -53 5 0 36 23 67 51 41 36 56 56 52 69 -6 20 3 50 17 50 5 0 6 -4 3 -10 -7 -12 5 -13 23 -1 11 6 10 11 -3 25 -20 20 -26 20 -51 1 -21 -16 -62 -19 -82 -6 -21 13 13 34 53 33 23 -1 38 4 44 16 10 16 10 16 11 0 0 -22 36 -24 48 -3 4 9 18 17 30 18 11 0 25 12 31 24 6 13 22 28 36 33 14 5 34 23 43 40 9 16 22 30 29 30 7 0 17 9 23 20 6 11 17 20 25 20 7 0 16 8 20 18 3 11 15 24 28 29 12 6 44 30 70 53 43 38 51 42 73 32 16 -8 24 -8 24 -1 0 6 4 8 9 5 5 -3 11 1 15 9 3 8 11 15 19 15 7 0 13 9 13 20 0 13 -19 33 -53 57 -57 39 -60 44 -38 63 12 10 21 8 50 -10 19 -12 35 -26 35 -31 0 -5 6 -9 14 -9 7 0 19 -7 26 -15 16 -19 19 -19 55 10 l29 24 -29 31 c-16 16 -34 30 -41 30 -7 0 -17 7 -22 16 -7 13 -11 14 -17 4 -4 -7 -2 -16 6 -21 10 -6 11 -11 2 -20 -17 -17 -46 -7 -63 24 -13 24 -13 29 -1 36 19 12 4 31 -43 56 -19 10 -37 27 -39 37 -7 24 -27 23 -27 -2 0 -11 5 -20 10 -20 6 0 10 -4 10 -10 0 -14 -54 -12 -68 2 -15 15 -16 45 -1 50 15 5 0 36 -20 43 -9 2 -31 19 -50 35 l-33 30 7 -31 c7 -30 6 -32 -16 -26 -13 4 -30 7 -37 7 -20 0 -37 47 -23 64 9 11 5 20 -25 45 -21 16 -41 28 -45 26 -4 -3 -9 4 -12 15 -6 23 -24 27 -24 5 0 -8 4 -15 9 -15 4 0 8 -7 8 -15 0 -18 -40 -20 -62 -2 -20 15 -28 53 -10 50 6 -2 12 0 12 3 0 10 -60 63 -79 69 -11 3 -22 16 -25 28 -6 21 -7 21 -18 3 -8 -15 -8 -21 0 -24 22 -7 12 -22 -13 -22 -14 0 -34 9 -45 20 -24 24 -27 55 -5 46 18 -7 19 1 3 17 -14 13 -77 60 -94 70 -6 3 -69 -53 -140 -126zM1015 1482 c-3 -3 -11 0 -18 7 -9 10 -8 11 6 5 10 -3 15 -9 12 -12zM1073 1473 c-7 -2 -19 -2 -25 0 -7 3 -2 5 12 5 14 0 19 -2 13 -5zM844 1359 c-21 -24 -29 -18 -14 10 6 12 16 19 21 15 6 -4 4 -13 -7 -25zM1157 1374 c-3 -3 -12 -4 -19 -1 -8 3 -5 6 6 6 11 1 17 -2 13 -5zM657 1333 c-4 -3 -2 -12 4 -20 7 -8 8 -13 1 -13 -12 0 -23 26 -15 34 4 3 9 6 11 6 3 0 2 -3 -1 -7zM890 1325 c0 -8 -7 -15 -16 -15 -14 0 -14 3 -4 15 7 8 14 15 16 15 2 0 4 -7 4 -15zM944 1321 c3 -4 -3 -16 -14 -26 -20 -18 -25 -11 -14 19 7 18 20 21 28 7zM1113 1296 c-10 -13 -20 -19 -22 -13 -2 5 4 16 15 24 26 19 27 16 7 -11zM636 1262 c-4 -3 -11 0 -16 8 -15 24 -11 33 6 15 9 -9 13 -19 10 -23zM966 1262 c-11 -11 -16 -12 -16 -4 0 18 24 43 29 30 2 -5 -4 -17 -13 -26zM585 1260 c-3 -5 -1 -10 4 -10 6 0 11 -4 11 -10 0 -5 -7 -7 -15 -4 -22 9 -38 -5 -24 -22 7 -8 7 -14 1 -14 -22 0 -22 32 0 51 26 21 32 23 23 9zM1018 1245 c-8 -18 -15 -22 -22 -15 -7 7 -4 15 10 25 25 19 25 19 12 -10zM1150 1250 c0 -12 -28 -25 -36 -17 -9 9 6 27 22 27 8 0 14 -5 14 -10zM1230 1240 c0 -5 -4 -10 -10 -10 -5 0 -10 5 -10 10 0 6 5 10 10 10 6 0 10 -4 10 -10zM1070 1233 c0 -17 -19 -37 -27 -29 -4 5 -2 11 5 13 6 3 10 9 6 14 -3 5 0 9 5 9 6 0 11 -3 11 -7zM1376 1209 c3 -6 -5 -3 -20 6 -14 10 -26 19 -26 22 0 7 39 -17 46 -28zM1137 1214 c-3 -3 -12 -4 -19 -1 -8 3 -5 6 6 6 11 1 17 -2 13 -5zM1200 1205 c0 -8 -9 -15 -20 -15 -22 0 -27 15 -7 23 21 9 27 7 27 -8zM525 1180 c3 -5 1 -10 -4 -10 -6 0 -11 5 -11 10 0 6 2 10 4 10 3 0 8 -4 11 -10zM1304 1173 c4 -4 -8 -14 -26 -23 -18 -8 -34 -24 -36 -35 -5 -27 -18 -39 -32 -30 -8 5 -5 14 9 29 12 12 18 26 14 29 -3 4 1 7 9 7 9 0 21 7 28 15 14 16 23 19 34 8zM1435 1170 c3 -6 -1 -7 -9 -4 -18 7 -21 14 -7 14 6 0 13 -4 16 -10zM1504 1122 c3 -5 -1 -9 -9 -9 -8 0 -12 4 -9 9 3 4 7 8 9 8 2 0 6 -4 9 -8zM745 1076 c67 -8 110 -19 117 -29 3 -6 1 -20 -4 -33 -10 -21 -12 -22 -33 -8 -20 13 -24 13 -35 -1 -9 -10 -22 -14 -36 -11 -15 4 -26 1 -32 -10 -7 -13 -13 -13 -35 -3 -15 7 -27 16 -27 21 0 4 -5 7 -12 6 -6 -2 -14 5 -16 14 -4 21 42 70 60 63 7 -2 31 -7 53 -9zM1158 1041 c-33 -27 -43 -15 -10 14 15 13 29 19 30 14 2 -5 -7 -18 -20 -28zM410 1041 c0 -5 -9 -7 -20 -4 -14 4 -20 0 -20 -11 0 -9 -6 -16 -13 -16 -25 0 -27 13 -5 36 17 17 27 20 40 13 10 -5 18 -14 18 -18zM1370 1045 c57 -36 82 -65 69 -82 -6 -7 -15 -10 -21 -7 -5 3 -4 12 3 20 7 9 8 14 1 14 -6 0 -14 -5 -18 -12 -5 -7 -11 -3 -17 13 l-10 24 -4 -25 c-7 -49 -14 -70 -22 -70 -4 0 -27 14 -50 31 -34 24 -40 33 -31 44 7 8 15 14 18 13 22 -2 42 3 42 13 0 10 -11 8 -60 -9 -8 -3 -2 9 14 26 17 18 33 32 38 32 5 0 26 -11 48 -25zM1494 1039 c-6 -11 -24 -2 -24 11 0 5 7 7 15 4 8 -4 12 -10 9 -15zM485 1000 c3 -5 1 -10 -4 -10 -6 0 -11 5 -11 10 0 6 2 10 4 10 3 0 8 -4 11 -10zM1095 1000 c13 10 15 9 15 -9 0 -24 -11 -26 -64 -7 -22 7 -33 15 -25 18 8 3 24 0 36 -5 16 -7 27 -6 38 3zM442 971 c29 -26 31 -30 15 -37 -18 -7 -43 3 -82 32 -17 13 -18 16 -5 24 24 15 38 12 72 -19zM810 990 c0 -5 -2 -10 -4 -10 -3 0 -8 5 -11 10 -3 6 -1 10 4 10 6 0 11 -4 11 -10zM1060 951 c0 -5 -9 -13 -21 -16 -18 -6 -45 -49 -41 -67 3 -11 -36 -10 -43 1 -3 6 8 20 25 32 16 13 30 28 30 35 0 13 15 22 38 23 6 1 12 -3 12 -8zM1253 930 c11 -11 24 -20 28 -20 3 0 18 -9 33 -21 23 -18 24 -23 14 -42 -7 -12 -13 -26 -13 -32 0 -5 -8 -9 -17 -7 -9 1 -19 -2 -23 -8 -10 -17 -28 -11 -21 8 5 14 4 14 -9 -2 -8 -11 -15 -15 -15 -9 0 5 -25 27 -55 47 -30 20 -55 40 -55 45 0 13 26 32 33 24 4 -3 7 0 7 8 0 42 52 47 93 9zM554 906 c-3 -8 0 -17 5 -21 6 -3 8 -12 5 -18 -5 -8 -3 -8 7 1 21 19 55 14 72 -10 13 -19 16 -20 16 -5 1 18 16 23 26 8 8 -15 -55 -59 -76 -54 -23 6 -61 52 -53 64 3 5 -1 12 -10 15 -15 6 -11 34 5 34 4 0 6 -6 3 -14zM1375 860 c-10 -11 -22 -20 -28 -20 -5 0 1 9 14 20 31 25 37 25 14 0zM431 824 c10 -12 9 -17 -1 -27 -10 -10 -12 -8 -7 6 5 14 3 16 -11 8 -21 -11 -69 20 -58 37 8 13 59 -3 77 -24zM929 826 c-8 -6 -23 -27 -33 -48 -17 -31 -22 -34 -37 -25 -16 10 -16 13 -4 27 8 9 15 22 15 28 0 7 6 12 13 12 8 0 22 9 33 21 12 14 20 17 23 8 2 -7 -2 -17 -10 -23zM1152 804 c56 -38 66 -49 58 -64 -12 -23 -58 -52 -71 -45 -5 4 -8 1 -7 -6 2 -6 -3 -14 -11 -17 -8 -2 -11 0 -7 6 3 6 -9 19 -26 31 -18 11 -48 31 -65 44 l-33 24 36 37 c19 20 40 36 47 36 7 0 42 -21 79 -46zM720 807 c0 -2 -12 -14 -27 -28 l-28 -24 24 28 c23 25 31 32 31 24zM1400 807 c0 -2 -10 -12 -22 -23 l-23 -19 19 23 c18 21 26 27 26 19zM760 797 c0 -2 -15 -16 -32 -33 l-33 -29 29 33 c28 30 36 37 36 29zM1290 787 c0 -2 -10 -12 -22 -23 l-23 -19 19 23 c18 21 26 27 26 19zM1036 698 c36 -24 60 -44 54 -46 -8 -3 -8 -8 0 -17 8 -10 6 -15 -9 -20 -12 -3 -26 -3 -33 1 -10 6 -10 5 -1 -7 10 -12 8 -17 -8 -27 -10 -7 -19 -8 -19 -3 0 5 4 11 10 13 6 2 6 9 0 18 -8 13 -11 13 -26 -2 -16 -15 -20 -14 -70 19 -30 20 -54 38 -54 41 0 13 65 72 78 72 8 0 43 -19 78 -42z"/><path d="M703 1004 c-7 -7 -9 -15 -4 -18 5 -3 14 1 20 8 15 18 0 28 -16 10z"/><path d="M1275 830 c-3 -5 -1 -10 4 -10 6 0 11 5 11 10 0 6 -2 10 -4 10 -3 0 -8 -4 -11 -10z"/><path d="M929 673 c-13 -16 -12 -17 4 -4 16 13 21 21 13 21 -2 0 -10 -8 -17 -17z"/><path d="M1670 1000 c8 -5 20 -10 25 -10 6 0 3 5 -5 10 -8 5 -19 10 -25 10 -5 0 -3 -5 5 -10z"/><path d="M167 194 c2 -7 11 -10 19 -7 19 7 18 10 -5 16 -13 3 -18 1 -14 -9z"/><path d="M214 198 c-3 -4 2 -8 10 -8 8 0 17 4 20 8 3 5 -2 9 -10 9 -8 0 -17 -4 -20 -9z"/><path d="M261 194 c0 -11 3 -14 6 -6 3 7 2 16 -1 19 -3 4 -6 -2 -5 -13z"/><path d="M295 201 c3 -5 -1 -11 -7 -14 -7 -3 -3 -4 10 -4 25 1 29 12 6 21 -8 3 -13 2 -9 -3z"/><path d="M330 200 c0 -6 7 -10 15 -10 8 0 15 2 15 4 0 2 -7 6 -15 10 -8 3 -15 1 -15 -4z"/><path d="M375 200 c-3 -5 -1 -10 4 -10 6 0 11 5 11 10 0 6 -2 10 -4 10 -3 0 -8 -4 -11 -10z"/><path d="M309 165 c-3 -2 -62 -6 -131 -7 -112 -3 -124 -5 -115 -19 9 -14 13 -14 36 -3 23 13 26 12 29 -5 2 -13 11 -18 30 -18 14 0 28 -6 30 -13 3 -9 6 -9 12 -1 4 8 54 12 149 13 137 2 142 2 139 22 -3 19 -10 21 -69 22 -36 1 -75 5 -86 8 -11 3 -22 4 -24 1zM188 139 c-2 -6 -8 -10 -13 -10 -5 0 -11 4 -13 10 -2 6 4 11 13 11 9 0 15 -5 13 -11zM253 143 c-7 -2 -19 -2 -25 0 -7 3 -2 5 12 5 14 0 19 -2 13 -5zM303 143 c-7 -2 -19 -2 -25 0 -7 3 -2 5 12 5 14 0 19 -2 13 -5zM352 135 c0 -5 -5 -11 -11 -13 -6 -2 -11 4 -11 13 0 9 5 15 11 13 6 -2 11 -8 11 -13zM413 143 c-7 -2 -19 -2 -25 0 -7 3 -2 5 12 5 14 0 19 -2 13 -5zM297 124 c-3 -3 -12 -4 -19 -1 -8 3 -5 6 6 6 11 1 17 -2 13 -5zM407 124 c-3 -3 -12 -4 -19 -1 -8 3 -5 6 6 6 11 1 17 -2 13 -5z"/></g><g transform="scale(0.05, 0.05)" fill="rgb(76, 112, 189)" stroke="none"><path d="M898 1626 c-34 -25 -748 -730 -748 -738 0 -18 67 -42 111 -39 55 3 83 -18 76 -56 -6 -32 46 -68 75 -52 13 7 30 7 53 -1 35 -11 50 -35 40 -62 -10 -26 35 -47 93 -43 56 4 72 -8 72 -57 0 -28 50 -64 67 -47 7 7 23 7 51 0 41 -12 58 -34 47 -63 -10 -26 35 -47 87 -41 41 5 48 3 62 -19 9 -14 14 -32 11 -40 -6 -14 32 -48 53 -48 4 0 34 23 65 51 53 47 57 53 43 68 -18 19 -8 39 29 59 20 11 20 11 -1 12 -11 0 -25 -5 -31 -11 -14 -14 -71 -15 -84 -2 -17 17 50 74 72 62 25 -13 29 -12 29 10 0 10 7 22 16 25 22 8 26 8 19 -4 -3 -5 0 -10 7 -10 17 1 48 25 48 38 0 6 7 12 15 14 14 3 64 44 162 136 25 23 49 42 53 42 5 0 29 20 54 45 46 44 47 45 74 29 l27 -16 -25 23 c-16 15 -24 32 -22 47 4 29 16 28 30 -3 9 -18 19 -25 41 -25 16 0 33 5 36 10 3 6 2 10 -3 10 -5 0 -26 11 -46 25 -22 15 -43 22 -53 18 -10 -4 -76 -59 -146 -122 -71 -64 -136 -120 -145 -124 -22 -12 21 30 128 123 47 41 99 87 115 102 17 15 33 28 38 28 4 0 7 6 7 13 0 20 33 47 58 47 12 0 21 -4 19 -9 -1 -5 20 -25 47 -44 l49 -36 28 22 c16 11 29 24 29 28 0 4 -14 18 -31 30 -26 18 -34 20 -53 9 -33 -17 -58 -9 -76 23 -13 24 -13 29 0 37 13 9 10 14 -15 35 -26 22 -36 24 -77 19 -61 -8 -80 6 -76 55 3 31 -1 37 -35 55 -29 15 -40 17 -46 8 -11 -18 -69 -4 -82 20 -6 10 -8 27 -5 36 8 24 -41 76 -63 66 -59 -26 -105 -7 -103 43 0 18 -8 40 -19 52 -17 18 -27 21 -68 15 -42 -5 -52 -3 -71 16 -15 15 -20 29 -16 45 5 18 -2 27 -34 49 -46 30 -40 29 -62 12zM1058 1485 c12 0 22 -4 22 -9 0 -11 -72 2 -85 16 -7 7 -2 8 15 2 14 -4 35 -8 48 -9zM757 1414 c-3 -3 -12 -4 -19 -1 -8 3 -5 6 6 6 11 1 17 -2 13 -5zM853 1354 c-25 -19 -33 -17 -33 5 0 23 20 32 38 18 10 -7 8 -13 -5 -23zM1160 1380 c0 -5 -8 -10 -17 -10 -15 0 -16 2 -3 10 19 12 20 12 20 0zM700 1359 c0 -14 -5 -19 -14 -16 -16 7 -30 -19 -15 -28 5 -4 7 -11 3 -16 -4 -6 -11 -6 -19 1 -16 13 -28 -1 -19 -24 7 -18 -7 -21 -23 -5 -7 7 -12 6 -16 -5 -4 -9 -2 -16 3 -16 6 0 10 -5 10 -11 0 -7 -10 -9 -25 -7 -22 5 -24 2 -19 -18 4 -15 2 -24 -5 -24 -6 0 -11 5 -11 10 0 6 -7 10 -16 10 -11 0 -14 -6 -9 -21 5 -15 3 -20 -6 -17 -7 2 -14 9 -16 15 -3 9 180 193 192 193 3 0 5 -9 5 -21zM890 1321 c-6 -12 -15 -19 -21 -16 -13 8 -11 23 4 40 17 19 31 1 17 -24zM962 1307 c22 -16 25 -24 17 -39 -15 -27 -32 -22 -25 7 6 24 -7 35 -19 15 -12 -20 -25 -9 -25 21 0 32 2 32 52 -4zM920 1228 c83 -57 162 -109 173 -115 12 -7 17 -13 10 -13 -7 0 -32 -19 -56 -42 -128 -124 -219 -208 -225 -208 -4 0 -45 25 -92 55 -78 51 -86 55 -97 39 -15 -20 -18 -58 -4 -50 11 7 33 -19 24 -28 -4 -4 0 -4 9 -1 25 10 30 -10 8 -30 -11 -10 -17 -21 -15 -26 10 -15 -58 0 -76 17 -26 24 -48 70 -39 83 4 7 20 13 35 15 16 2 31 8 32 13 5 13 -30 13 -38 0 -4 -5 -12 -6 -18 -3 -19 12 -12 21 21 23 33 3 61 22 43 29 -31 13 -138 88 -129 91 6 2 69 60 140 128 70 69 131 125 135 125 4 0 75 -46 159 -102zM1162 1275 c-3 -18 15 -45 30 -45 5 0 6 9 3 20 -7 22 -5 23 19 14 23 -9 20 -27 -10 -59 -23 -25 -26 -26 -43 -11 -10 9 -24 16 -33 16 -9 0 -20 17 -27 42 -12 37 -11 43 5 55 15 11 21 11 38 -1 12 -8 20 -21 18 -31zM1030 1261 c0 -4 -6 -16 -14 -27 -17 -22 -32 -13 -21 13 5 10 8 21 7 25 -1 4 5 5 13 2 8 -4 15 -9 15 -13zM1070 1226 c0 -16 -18 -31 -27 -22 -8 8 5 36 17 36 5 0 10 -6 10 -14zM1370 1220 c14 -11 21 -20 15 -20 -5 0 -21 9 -35 20 -14 11 -20 20 -15 20 6 0 21 -9 35 -20zM1348 1148 c26 -17 49 -35 52 -38 3 -4 26 -17 53 -30 52 -26 53 -27 34 -64 -14 -26 -30 -26 -20 0 3 8 -3 17 -12 20 -11 5 -13 9 -5 14 7 4 -5 17 -32 33 -42 25 -43 25 -54 6 -10 -20 -10 -20 -29 1 -18 19 -18 20 1 21 10 0 14 3 7 5 -7 3 -9 12 -6 20 3 9 -2 14 -16 14 -14 0 -25 -11 -34 -32 -8 -18 -23 -41 -34 -51 -20 -17 -21 -17 -36 7 -14 21 -14 26 -2 36 8 7 15 19 15 26 0 8 6 14 14 14 7 0 19 7 26 15 17 21 25 19 78 -17zM1435 1170 c3 -6 -1 -7 -9 -4 -18 7 -21 14 -7 14 6 0 13 -4 16 -10zM1500 1130 c24 -19 24 -19 3 -17 -12 0 -20 3 -18 6 3 2 -3 10 -13 17 -9 7 -12 13 -7 13 6 1 21 -8 35 -19zM1200 1061 c0 -3 -9 -12 -20 -19 -11 -6 -17 -17 -15 -24 2 -7 -11 -31 -30 -53 -30 -34 -35 -37 -35 -19 0 17 -10 25 -45 35 -26 8 -40 16 -33 20 7 4 20 3 31 -2 20 -11 28 -7 86 48 29 27 61 35 61 14zM1426 1014 c24 -21 44 -41 44 -44 0 -3 -16 -22 -35 -44 -25 -26 -42 -37 -55 -33 -11 3 -21 -1 -24 -10 -12 -29 -5 -36 17 -17 l22 19 -19 -22 c-11 -13 -24 -23 -30 -23 -6 0 -29 -21 -50 -45 -21 -25 -41 -43 -44 -40 -3 3 3 12 14 20 18 14 18 14 -8 15 -26 0 -32 -8 -29 -36 2 -17 -75 -77 -103 -81 -15 -2 -26 2 -28 11 -2 8 -28 32 -58 54 -38 27 -55 45 -54 59 1 39 -33 35 -53 -6 -10 -20 -22 -34 -27 -31 -5 3 -13 -6 -18 -20 l-9 -25 -19 25 c-17 22 -17 27 -3 50 8 14 28 35 44 48 27 22 29 22 54 6 29 -19 37 0 8 21 -14 11 -13 14 15 35 18 13 32 30 32 37 0 15 44 28 60 18 8 -5 8 -11 -1 -21 -6 -8 -9 -14 -5 -14 3 0 -8 -13 -26 -28 -21 -20 -29 -34 -25 -46 5 -13 11 -15 26 -6 32 17 54 12 108 -25 57 -38 73 -43 73 -20 0 8 -27 33 -61 56 l-61 41 24 16 c12 9 33 27 46 39 13 13 26 23 30 23 4 0 37 -20 74 -44 62 -41 78 -46 78 -25 0 5 -27 27 -60 51 -33 23 -60 44 -59 47 0 4 20 23 45 43 42 35 46 36 75 24 16 -7 50 -30 75 -52zM430 1027 c0 -5 -9 -7 -20 -4 -13 3 -20 0 -20 -9 0 -8 6 -14 14 -14 7 0 25 -9 40 -21 19 -15 26 -17 26 -7 0 8 -5 19 -12 26 -18 18 -4 24 18 7 18 -13 18 -16 4 -42 -9 -15 -23 -29 -32 -31 -23 -4 -88 39 -88 59 0 9 -7 20 -16 23 -15 6 -14 9 6 31 22 24 24 24 51 8 16 -10 29 -21 29 -26zM360 873 c0 -7 8 -13 18 -13 10 0 28 -9 40 -20 20 -19 26 -18 23 3 0 4 3 7 9 7 13 0 13 -3 -2 -35 -14 -31 -29 -32 -71 -3 -18 13 -32 23 -33 23 -1 0 -4 12 -7 26 -5 19 -3 26 8 26 8 0 15 -6 15 -14zM720 807 c0 -2 -12 -14 -27 -28 l-28 -24 24 28 c23 25 31 32 31 24zM760 797 c0 -2 -15 -16 -32 -33 l-33 -29 29 33 c28 30 36 37 36 29zM1050 695 l73 -47 -44 -39 c-28 -25 -50 -37 -61 -33 -21 6 -135 82 -143 94 -7 12 75 82 89 77 7 -3 46 -26 86 -52zM1270 685 c-7 -8 -17 -15 -22 -15 -6 0 -5 7 2 15 7 8 17 15 22 15 6 0 5 -7 -2 -15z"/><path d="M750 1189 c0 -5 5 -7 10 -4 6 3 10 8 10 11 0 2 -4 4 -10 4 -5 0 -10 -5 -10 -11z"/><path d="M1120 1274 c0 -8 5 -12 10 -9 6 3 10 10 10 16 0 5 -4 9 -10 9 -5 0 -10 -7 -10 -16z"/><path d="M993 815 c0 -21 2 -23 14 -14 8 7 10 15 6 18 -4 4 -11 10 -14 14 -4 4 -6 -4 -6 -18z"/><path d="M1329 643 c-13 -16 -12 -17 4 -4 16 13 21 21 13 21 -2 0 -10 -8 -17 -17z"/><path d="M167 194 c2 -7 11 -10 19 -7 19 7 18 10 -5 16 -13 3 -18 1 -14 -9z"/><path d="M214 198 c-3 -4 2 -8 10 -8 8 0 17 4 20 8 3 5 -2 9 -10 9 -8 0 -17 -4 -20 -9z"/><path d="M261 194 c0 -11 3 -14 6 -6 3 7 2 16 -1 19 -3 4 -6 -2 -5 -13z"/><path d="M295 201 c3 -5 -1 -11 -7 -14 -7 -3 -3 -4 10 -4 25 1 29 12 6 21 -8 3 -13 2 -9 -3z"/><path d="M330 200 c0 -6 7 -10 15 -10 8 0 15 2 15 4 0 2 -7 6 -15 10 -8 3 -15 1 -15 -4z"/><path d="M375 200 c-3 -5 -1 -10 4 -10 6 0 11 5 11 10 0 6 -2 10 -4 10 -3 0 -8 -4 -11 -10z"/><path d="M309 165 c-3 -2 -62 -6 -131 -7 -69 -2 -124 -7 -121 -11 3 -5 21 -7 39 -5 27 3 34 0 34 -13 0 -11 8 -16 26 -16 15 0 30 -6 34 -13 5 -9 9 -9 11 -1 3 8 50 12 147 13 138 2 143 2 140 22 -3 19 -10 21 -69 22 -36 1 -75 5 -86 8 -11 3 -22 4 -24 1zM188 139 c-2 -6 -8 -10 -13 -10 -5 0 -11 4 -13 10 -2 6 4 11 13 11 9 0 15 -5 13 -11zM253 143 c-7 -2 -19 -2 -25 0 -7 3 -2 5 12 5 14 0 19 -2 13 -5zM303 143 c-7 -2 -19 -2 -25 0 -7 3 -2 5 12 5 14 0 19 -2 13 -5zM352 135 c0 -5 -5 -11 -11 -13 -6 -2 -11 4 -11 13 0 9 5 15 11 13 6 -2 11 -8 11 -13zM413 143 c-7 -2 -19 -2 -25 0 -7 3 -2 5 12 5 14 0 19 -2 13 -5zM297 124 c-3 -3 -12 -4 -19 -1 -8 3 -5 6 6 6 11 1 17 -2 13 -5zM407 124 c-3 -3 -12 -4 -19 -1 -8 3 -5 6 6 6 11 1 17 -2 13 -5z"/></g><g transform="scale(0.05, 0.05)" fill="rgb(97, 159, 228)" stroke="none"><path d="M898 1626 c-34 -25 -748 -730 -748 -738 0 -18 67 -42 111 -39 55 3 83 -18 76 -56 -6 -32 46 -68 75 -52 13 7 30 7 53 -1 35 -11 50 -35 40 -62 -10 -26 35 -47 93 -43 56 4 72 -8 72 -57 0 -28 50 -64 67 -47 7 7 23 7 51 0 41 -12 58 -34 47 -63 -10 -26 35 -47 87 -41 41 5 48 3 62 -19 9 -14 14 -32 11 -40 -6 -14 32 -48 53 -48 4 0 34 23 65 51 53 47 57 53 43 68 -18 19 -8 39 29 59 20 11 20 11 -1 12 -11 0 -25 -5 -31 -11 -14 -14 -71 -15 -84 -2 -17 17 50 74 72 62 25 -13 29 -12 29 10 0 10 7 22 16 25 22 8 26 8 19 -4 -3 -5 0 -10 7 -10 17 1 48 25 48 38 0 6 7 12 15 14 14 3 64 44 162 136 25 23 49 42 53 42 5 0 29 20 54 45 46 44 47 45 74 29 l27 -16 -25 23 c-16 15 -24 32 -22 47 4 29 16 28 30 -3 9 -18 19 -25 41 -25 16 0 33 5 36 10 3 6 2 10 -3 10 -5 0 -26 11 -46 25 -22 15 -43 22 -53 18 -10 -4 -76 -59 -146 -122 -71 -64 -136 -120 -145 -124 -22 -12 21 30 128 123 47 41 99 87 115 102 17 15 33 28 38 28 4 0 7 6 7 13 0 20 33 47 58 47 12 0 21 -4 19 -9 -1 -5 20 -25 47 -44 l49 -36 28 22 c16 11 29 24 29 28 0 4 -14 18 -31 30 -26 18 -34 20 -53 9 -33 -17 -58 -9 -76 23 -13 24 -13 29 0 37 13 9 10 14 -15 35 -26 22 -36 24 -77 19 -61 -8 -80 6 -76 55 3 31 -1 37 -35 55 -29 15 -40 17 -46 8 -11 -18 -69 -4 -82 20 -6 10 -8 27 -5 36 8 24 -41 76 -63 66 -59 -26 -105 -7 -103 43 0 18 -8 40 -19 52 -17 18 -27 21 -68 15 -42 -5 -52 -3 -71 16 -15 15 -20 29 -16 45 5 18 -2 27 -34 49 -46 30 -40 29 -62 12zM1058 1485 c12 0 22 -4 22 -9 0 -11 -72 2 -85 16 -7 7 -2 8 15 2 14 -4 35 -8 48 -9zM757 1414 c-3 -3 -12 -4 -19 -1 -8 3 -5 6 6 6 11 1 17 -2 13 -5zM853 1354 c-25 -19 -33 -17 -33 5 0 23 20 32 38 18 10 -7 8 -13 -5 -23zM1160 1380 c0 -5 -8 -10 -17 -10 -15 0 -16 2 -3 10 19 12 20 12 20 0zM700 1359 c0 -14 -5 -19 -14 -16 -16 7 -30 -19 -15 -28 5 -4 7 -11 3 -16 -4 -6 -11 -6 -19 1 -16 13 -28 -1 -19 -24 7 -18 -7 -21 -23 -5 -7 7 -12 6 -16 -5 -4 -9 -2 -16 3 -16 6 0 10 -5 10 -11 0 -7 -10 -9 -25 -7 -22 5 -24 2 -19 -18 4 -15 2 -24 -5 -24 -6 0 -11 5 -11 10 0 6 -7 10 -16 10 -11 0 -14 -6 -9 -21 5 -15 3 -20 -6 -17 -7 2 -14 9 -16 15 -3 9 180 193 192 193 3 0 5 -9 5 -21zM890 1321 c-6 -12 -15 -19 -21 -16 -13 8 -11 23 4 40 17 19 31 1 17 -24zM962 1307 c22 -16 25 -24 17 -39 -15 -27 -32 -22 -25 7 6 24 -7 35 -19 15 -12 -20 -25 -9 -25 21 0 32 2 32 52 -4zM920 1228 c83 -57 162 -109 173 -115 12 -7 17 -13 10 -13 -7 0 -32 -19 -56 -42 -128 -124 -219 -208 -225 -208 -4 0 -45 25 -92 55 -78 51 -86 55 -97 39 -15 -20 -18 -58 -4 -50 11 7 33 -19 24 -28 -4 -4 0 -4 9 -1 25 10 30 -10 8 -30 -11 -10 -17 -21 -15 -26 10 -15 -58 0 -76 17 -26 24 -48 70 -39 83 4 7 20 13 35 15 16 2 31 8 32 13 5 13 -30 13 -38 0 -4 -5 -12 -6 -18 -3 -19 12 -12 21 21 23 33 3 61 22 43 29 -31 13 -138 88 -129 91 6 2 69 60 140 128 70 69 131 125 135 125 4 0 75 -46 159 -102zM1162 1275 c-3 -18 15 -45 30 -45 5 0 6 9 3 20 -7 22 -5 23 19 14 23 -9 20 -27 -10 -59 -23 -25 -26 -26 -43 -11 -10 9 -24 16 -33 16 -9 0 -20 17 -27 42 -12 37 -11 43 5 55 15 11 21 11 38 -1 12 -8 20 -21 18 -31zM1030 1261 c0 -4 -6 -16 -14 -27 -17 -22 -32 -13 -21 13 5 10 8 21 7 25 -1 4 5 5 13 2 8 -4 15 -9 15 -13zM1070 1226 c0 -16 -18 -31 -27 -22 -8 8 5 36 17 36 5 0 10 -6 10 -14zM1370 1220 c14 -11 21 -20 15 -20 -5 0 -21 9 -35 20 -14 11 -20 20 -15 20 6 0 21 -9 35 -20zM1348 1148 c26 -17 49 -35 52 -38 3 -4 26 -17 53 -30 52 -26 53 -27 34 -64 -14 -26 -30 -26 -20 0 3 8 -3 17 -12 20 -11 5 -13 9 -5 14 7 4 -5 17 -32 33 -42 25 -43 25 -54 6 -10 -20 -10 -20 -29 1 -18 19 -18 20 1 21 10 0 14 3 7 5 -7 3 -9 12 -6 20 3 9 -2 14 -16 14 -14 0 -25 -11 -34 -32 -8 -18 -23 -41 -34 -51 -20 -17 -21 -17 -36 7 -14 21 -14 26 -2 36 8 7 15 19 15 26 0 8 6 14 14 14 7 0 19 7 26 15 17 21 25 19 78 -17zM1435 1170 c3 -6 -1 -7 -9 -4 -18 7 -21 14 -7 14 6 0 13 -4 16 -10zM1500 1130 c24 -19 24 -19 3 -17 -12 0 -20 3 -18 6 3 2 -3 10 -13 17 -9 7 -12 13 -7 13 6 1 21 -8 35 -19zM1200 1061 c0 -3 -9 -12 -20 -19 -11 -6 -17 -17 -15 -24 2 -7 -11 -31 -30 -53 -30 -34 -35 -37 -35 -19 0 17 -10 25 -45 35 -26 8 -40 16 -33 20 7 4 20 3 31 -2 20 -11 28 -7 86 48 29 27 61 35 61 14zM1426 1014 c24 -21 44 -41 44 -44 0 -3 -16 -22 -35 -44 -25 -26 -42 -37 -55 -33 -11 3 -21 -1 -24 -10 -12 -29 -5 -36 17 -17 l22 19 -19 -22 c-11 -13 -24 -23 -30 -23 -6 0 -29 -21 -50 -45 -21 -25 -41 -43 -44 -40 -3 3 3 12 14 20 18 14 18 14 -8 15 -26 0 -32 -8 -29 -36 2 -17 -75 -77 -103 -81 -15 -2 -26 2 -28 11 -2 8 -28 32 -58 54 -38 27 -55 45 -54 59 1 39 -33 35 -53 -6 -10 -20 -22 -34 -27 -31 -5 3 -13 -6 -18 -20 l-9 -25 -19 25 c-17 22 -17 27 -3 50 8 14 28 35 44 48 27 22 29 22 54 6 29 -19 37 0 8 21 -14 11 -13 14 15 35 18 13 32 30 32 37 0 15 44 28 60 18 8 -5 8 -11 -1 -21 -6 -8 -9 -14 -5 -14 3 0 -8 -13 -26 -28 -21 -20 -29 -34 -25 -46 5 -13 11 -15 26 -6 32 17 54 12 108 -25 57 -38 73 -43 73 -20 0 8 -27 33 -61 56 l-61 41 24 16 c12 9 33 27 46 39 13 13 26 23 30 23 4 0 37 -20 74 -44 62 -41 78 -46 78 -25 0 5 -27 27 -60 51 -33 23 -60 44 -59 47 0 4 20 23 45 43 42 35 46 36 75 24 16 -7 50 -30 75 -52zM430 1027 c0 -5 -9 -7 -20 -4 -13 3 -20 0 -20 -9 0 -8 6 -14 14 -14 7 0 25 -9 40 -21 19 -15 26 -17 26 -7 0 8 -5 19 -12 26 -18 18 -4 24 18 7 18 -13 18 -16 4 -42 -9 -15 -23 -29 -32 -31 -23 -4 -88 39 -88 59 0 9 -7 20 -16 23 -15 6 -14 9 6 31 22 24 24 24 51 8 16 -10 29 -21 29 -26zM360 873 c0 -7 8 -13 18 -13 10 0 28 -9 40 -20 20 -19 26 -18 23 3 0 4 3 7 9 7 13 0 13 -3 -2 -35 -14 -31 -29 -32 -71 -3 -18 13 -32 23 -33 23 -1 0 -4 12 -7 26 -5 19 -3 26 8 26 8 0 15 -6 15 -14zM720 807 c0 -2 -12 -14 -27 -28 l-28 -24 24 28 c23 25 31 32 31 24zM760 797 c0 -2 -15 -16 -32 -33 l-33 -29 29 33 c28 30 36 37 36 29zM1050 695 l73 -47 -44 -39 c-28 -25 -50 -37 -61 -33 -21 6 -135 82 -143 94 -7 12 75 82 89 77 7 -3 46 -26 86 -52zM1270 685 c-7 -8 -17 -15 -22 -15 -6 0 -5 7 2 15 7 8 17 15 22 15 6 0 5 -7 -2 -15z"/><path d="M750 1189 c0 -5 5 -7 10 -4 6 3 10 8 10 11 0 2 -4 4 -10 4 -5 0 -10 -5 -10 -11z"/><path d="M1120 1274 c0 -8 5 -12 10 -9 6 3 10 10 10 16 0 5 -4 9 -10 9 -5 0 -10 -7 -10 -16z"/><path d="M993 815 c0 -21 2 -23 14 -14 8 7 10 15 6 18 -4 4 -11 10 -14 14 -4 4 -6 -4 -6 -18z"/><path d="M1329 643 c-13 -16 -12 -17 4 -4 16 13 21 21 13 21 -2 0 -10 -8 -17 -17z"/><path d="M167 194 c2 -7 11 -10 19 -7 19 7 18 10 -5 16 -13 3 -18 1 -14 -9z"/><path d="M214 198 c-3 -4 2 -8 10 -8 8 0 17 4 20 8 3 5 -2 9 -10 9 -8 0 -17 -4 -20 -9z"/><path d="M261 194 c0 -11 3 -14 6 -6 3 7 2 16 -1 19 -3 4 -6 -2 -5 -13z"/><path d="M295 201 c3 -5 -1 -11 -7 -14 -7 -3 -3 -4 10 -4 25 1 29 12 6 21 -8 3 -13 2 -9 -3z"/><path d="M330 200 c0 -6 7 -10 15 -10 8 0 15 2 15 4 0 2 -7 6 -15 10 -8 3 -15 1 -15 -4z"/><path d="M375 200 c-3 -5 -1 -10 4 -10 6 0 11 5 11 10 0 6 -2 10 -4 10 -3 0 -8 -4 -11 -10z"/><path d="M309 165 c-3 -2 -62 -6 -131 -7 -69 -2 -124 -7 -121 -11 3 -5 21 -7 39 -5 27 3 34 0 34 -13 0 -11 8 -16 26 -16 15 0 30 -6 34 -13 5 -9 9 -9 11 -1 3 8 50 12 147 13 138 2 143 2 140 22 -3 19 -10 21 -69 22 -36 1 -75 5 -86 8 -11 3 -22 4 -24 1zM188 139 c-2 -6 -8 -10 -13 -10 -5 0 -11 4 -13 10 -2 6 4 11 13 11 9 0 15 -5 13 -11zM253 143 c-7 -2 -19 -2 -25 0 -7 3 -2 5 12 5 14 0 19 -2 13 -5zM303 143 c-7 -2 -19 -2 -25 0 -7 3 -2 5 12 5 14 0 19 -2 13 -5zM352 135 c0 -5 -5 -11 -11 -13 -6 -2 -11 4 -11 13 0 9 5 15 11 13 6 -2 11 -8 11 -13zM413 143 c-7 -2 -19 -2 -25 0 -7 3 -2 5 12 5 14 0 19 -2 13 -5zM297 124 c-3 -3 -12 -4 -19 -1 -8 3 -5 6 6 6 11 1 17 -2 13 -5zM407 124 c-3 -3 -12 -4 -19 -1 -8 3 -5 6 6 6 11 1 17 -2 13 -5z"/></g><g transform="scale(0.05, 0.05)" fill="rgb(145, 150, 154)" stroke="none"></g><g transform="scale(0.05, 0.05)" fill="rgb(255, 255, 255)" stroke="none"></g></svg>