<svg version="1.0" xmlns="http://www.w3.org/2000/svg" width="300" height="300" viewBox="0 0 100 100">
<g transform="scale(0.05, 0.05)" fill="rgb(186, 171, 172)" stroke="none"><path d="M0 1935 l0 -65 1000 0 1000 0 0 65 0 65 -1000 0 -1000 0 0 -65zM150 1935 c0 -34 -1 -35 -40 -35 -39 0 -40 1 -40 35 0 34 1 35 40 35 39 0 40 -1 40 -35z"></path><path d="M90 1945 c0 -8 6 -15 13 -15 8 0 7 -4 -3 -10 -12 -8 -11 -10 8 -10 17 0 22 6 22 25 0 18 -5 25 -20 25 -11 0 -20 -7 -20 -15z"></path><path d="M172 1670 c0 -14 2 -19 5 -12 2 6 2 18 0 25 -3 6 -5 1 -5 -13z"></path><path d="M1840 1568 c-25 -5 -95 -7 -156 -4 l-111 5 -6 -142 c-8 -177 -28 -311 -72 -495 -45 -183 -45 -184 -96 -176 l-40 7 7 -29 c4 -16 11 -39 15 -52 5 -12 12 -58 15 -102 4 -44 12 -88 19 -97 11 -14 9 -23 -12 -50 -42 -55 -31 -74 63 -105 45 -14 94 -28 110 -30 l29 -3 -2 71 -3 71 73 -13 c96 -17 197 -18 201 -2 2 7 20 66 40 130 19 65 33 124 30 133 -6 15 -24 22 -74 27 -24 3 -25 6 -28 86 -4 105 19 282 57 437 16 66 31 157 34 201 3 45 10 90 16 101 8 17 6 22 -15 32 -28 12 -32 12 -94 -1zM1670 1458 c0 -97 -16 -248 -27 -259 -5 -4 -23 -5 -41 -2 -25 4 -32 9 -27 21 3 9 9 82 12 164 l6 147 26 4 c14 2 32 5 39 6 9 1 12 -21 12 -81zM1725 1041 c16 -7 19 -16 16 -62 -3 -65 -15 -89 -43 -89 -18 0 -20 4 -14 31 3 17 6 53 6 80 0 51 2 53 35 40zM1816 1030 c5 -5 7 -35 4 -67 -5 -55 -7 -58 -33 -61 l-28 -3 7 53 c10 77 26 102 50 78zM1810 800 l0 -70 -31 0 -32 0 7 53 c3 28 6 60 6 70 0 11 8 17 25 17 24 0 25 -2 25 -70zM1730 841 c0 -10 -3 -39 -6 -65 -6 -43 -9 -46 -37 -46 l-30 0 7 56 c8 69 11 74 42 74 17 0 24 -6 24 -19z"></path><path d="M1604 1289 c-7 -12 15 -31 28 -23 4 3 8 12 8 20 0 17 -26 19 -36 3z"></path><path d="M255 1521 l-70 -6 -7 -50 c-4 -27 -14 -106 -23 -175 -9 -69 -25 -156 -35 -195 -11 -38 -20 -73 -20 -78 0 -4 -11 -5 -24 -1 -38 9 -39 -11 -7 -79 53 -110 165 -193 311 -230 70 -18 73 -34 26 -123 -19 -37 -33 -71 -29 -77 3 -5 21 -16 41 -24 36 -15 51 -8 52 25 0 6 9 12 20 12 10 0 27 11 37 25 10 14 26 35 35 46 9 11 20 33 23 49 6 26 10 28 65 32 74 5 84 14 155 136 67 116 69 130 14 138 l-40 7 5 61 c14 143 37 479 33 482 -19 20 -424 38 -562 25zM394 1478 c-26 -81 -40 -156 -33 -175 11 -31 34 -40 127 -46 81 -6 82 -6 82 17 0 13 11 49 25 79 14 31 29 75 33 99 6 35 12 43 27 41 11 -1 46 -5 79 -8 l58 -7 -6 -56 c-3 -32 -8 -96 -12 -144 l-7 -88 -86 6 c-47 2 -95 6 -105 7 -22 2 -29 -18 -49 -133 l-14 -75 -99 4 c-54 1 -100 4 -101 5 -1 1 4 44 12 96 8 52 15 100 15 106 0 8 -28 13 -79 15 -44 2 -82 6 -84 9 -3 3 -1 30 4 60 4 30 11 90 14 133 l7 77 100 0 c99 0 99 0 92 -22zM202 1160 c-5 -42 -5 -42 -26 -34 -28 11 -17 78 13 72 12 -3 15 -12 13 -38zM310 1176 c0 -7 -3 -27 -6 -43 -5 -26 -9 -28 -40 -25 -32 4 -34 6 -34 43 0 39 0 39 40 39 27 0 40 -4 40 -14zM647 1172 c10 -6 10 -17 2 -46 -10 -37 -12 -38 -46 -33 -45 8 -46 8 -38 51 7 32 10 36 39 36 17 0 37 -4 43 -8zM758 1133 c-3 -37 -4 -38 -46 -41 -41 -3 -43 -2 -37 20 4 13 9 31 11 41 4 12 16 17 40 17 35 0 35 -1 32 -37zM196 1084 c-3 -9 -6 -29 -6 -45 0 -26 -4 -29 -30 -29 -34 0 -34 1 -19 53 8 30 14 37 36 37 19 0 24 -4 19 -16zM288 1075 c2 -2 1 -20 -2 -40 -6 -31 -11 -35 -36 -35 -29 0 -30 2 -30 46 l0 47 32 -7 c17 -3 34 -8 36 -11zM626 1028 c-4 -23 -9 -44 -11 -46 -2 -3 -19 -2 -37 2 -32 6 -33 8 -30 46 4 39 5 40 44 40 l41 0 -7 -42zM750 1026 c0 -57 -6 -63 -53 -57 -32 5 -42 10 -41 24 3 70 1 67 49 67 45 0 45 0 45 -34zM495 944 c176 -15 321 -28 323 -29 5 -4 -56 -122 -85 -166 -37 -55 -63 -61 -205 -43 -231 28 -362 95 -423 214 l-23 46 46 2 c26 1 191 -10 367 -24zM558 674 c2 -1 1 -17 -3 -34 -7 -31 -8 -32 -48 -26 -23 4 -42 8 -43 9 -1 1 1 17 3 34 5 32 6 33 47 27 22 -4 43 -8 44 -10zM501 590 c23 0 24 -13 3 -34 -14 -14 -18 -14 -45 0 -25 13 -28 18 -18 30 7 8 19 12 26 9 8 -3 23 -5 34 -5zM450 531 c-1 -17 -18 -31 -33 -25 -20 7 -21 16 -6 31 11 11 39 7 39 -6z"></path><path d="M267 1393 c-4 -3 -7 -15 -7 -25 0 -10 -3 -17 -7 -17 -20 3 -24 -2 -12 -17 12 -15 11 -16 -9 -10 -16 6 -22 3 -22 -8 0 -9 4 -16 9 -16 5 0 17 -7 26 -16 12 -13 19 -14 28 -5 6 6 22 11 35 11 20 0 22 4 16 23 -4 12 -12 25 -18 29 -7 5 -4 12 8 21 19 14 19 15 -2 26 -24 13 -36 14 -45 4z"></path><path d="M650 1341 c0 -5 6 -12 13 -14 7 -3 5 -6 -5 -6 -24 -1 -23 -18 2 -31 24 -13 26 -30 5 -30 -22 0 -18 -18 5 -25 28 -9 82 4 77 18 -2 7 -13 13 -25 15 -18 3 -22 10 -22 43 0 35 -3 39 -25 39 -14 0 -25 -4 -25 -9z"></path><path d="M493 841 c3 -34 10 -68 16 -75 6 -7 36 -14 70 -15 65 -2 81 10 81 61 0 13 7 34 16 46 9 13 13 26 10 30 -4 3 -50 8 -103 10 l-96 5 6 -62zM553 873 c-7 -2 -21 -2 -30 0 -10 3 -4 5 12 5 17 0 24 -2 18 -5zM645 870 c4 -7 -3 -8 -22 -4 -38 9 -42 14 -10 14 14 0 29 -5 32 -10zM572 809 c4 -27 2 -30 -20 -27 -18 2 -28 11 -33 31 -7 25 -5 27 21 27 23 0 28 -5 32 -31zM636 808 c-8 -39 -15 -47 -26 -28 -18 28 -12 60 11 60 19 0 21 -4 15 -32z"></path><path d="M1140 1505 c-6 -8 -16 -63 -21 -122 -11 -132 -44 -211 -94 -226 -92 -29 -120 -133 -59 -223 22 -32 23 -38 11 -53 -10 -10 -16 -46 -18 -105 -4 -86 -3 -89 22 -108 16 -12 49 -22 87 -25 60 -6 62 -5 78 24 13 22 29 32 68 41 28 7 66 25 86 41 48 38 53 100 15 168 l-25 46 21 14 c31 23 41 59 27 104 -12 40 -25 57 -90 110 -52 43 -62 85 -44 185 8 44 17 86 21 95 14 37 -58 66 -85 34zM1160 1141 c0 -8 -23 -21 -36 -21 -2 0 -4 11 -4 25 0 23 2 24 20 15 11 -6 20 -15 20 -19z"></path></g><g transform="scale(0.05, 0.05)" fill="rgb(104, 208, 53)" stroke="none"><path d="M0 1935 l0 -65 1000 0 1000 0 0 65 0 65 -1000 0 -1000 0 0 -65zM150 1935 c0 -34 -1 -35 -40 -35 -39 0 -40 1 -40 35 0 34 1 35 40 35 39 0 40 -1 40 -35zM378 1945 c9 -17 7 -21 -7 -21 -13 0 -16 6 -13 24 5 25 5 25 20 -3zM655 1932 c3 -8 3 -17 0 -20 -3 -3 -5 -1 -5 5 0 6 -11 8 -25 5 -21 -4 -25 -1 -25 22 0 24 2 25 24 14 14 -6 28 -17 31 -26zM217 1945 c3 -9 3 -19 -1 -22 -8 -9 -37 18 -30 28 8 14 24 11 31 -6zM280 1940 c0 -11 -4 -20 -9 -20 -13 0 -32 26 -24 33 13 14 33 6 33 -13zM317 1928 c-3 -7 -5 -2 -5 12 0 14 2 19 5 13 2 -7 2 -19 0 -25zM434 1951 c3 -5 -1 -14 -9 -21 -10 -9 -15 -9 -15 -1 0 6 6 11 13 11 8 0 7 4 -3 10 -9 6 -10 10 -3 10 6 0 14 -4 17 -9zM457 1923 c-3 -10 -5 -4 -5 12 0 17 2 24 5 18 2 -7 2 -21 0 -30zM531 1952 c-6 -2 -11 -9 -11 -16 0 -7 -7 -13 -15 -13 -8 0 -12 4 -9 8 2 4 0 10 -5 13 -5 4 -12 -2 -14 -11 -4 -14 -5 -14 -6 4 -1 18 4 21 35 20 20 -1 32 -3 25 -5zM567 1928 c-11 -31 -12 -31 -15 -9 -3 19 10 40 25 41 1 0 -3 -15 -10 -32zM719 1937 c-1 -17 -2 -18 -6 -4 -2 9 -9 15 -14 11 -5 -3 -7 -9 -5 -13 3 -4 -1 -8 -9 -8 -26 0 -17 32 10 35 20 1 25 -3 24 -21zM737 1923 c-3 -10 -5 -4 -5 12 0 17 2 24 5 18 2 -7 2 -21 0 -30zM786 1949 c3 -6 1 -16 -5 -22 -9 -9 -11 -8 -6 6 4 10 2 17 -4 17 -6 0 -11 -7 -11 -17 0 -9 -3 -14 -6 -10 -9 8 3 37 15 37 5 0 13 -5 17 -11zM297 1928 c-3 -8 -6 -5 -6 6 -1 11 2 17 5 13 3 -3 4 -12 1 -19z"></path><path d="M121 1934 c0 -11 3 -14 6 -6 3 7 2 16 -1 19 -3 4 -6 -2 -5 -13z"></path><path d="M610 1940 c0 -5 5 -10 10 -10 6 0 10 5 10 10 0 6 -4 10 -10 10 -5 0 -10 -4 -10 -10z"></path><path d="M1719 1563 l-145 -4 -2 -107 c-4 -200 -49 -472 -109 -655 l-15 -49 -42 4 c-32 2 -40 0 -37 -12 23 -90 31 -132 31 -173 0 -27 7 -61 17 -77 16 -27 15 -29 -11 -60 -45 -55 -35 -71 69 -102 137 -41 133 -42 127 43 -5 72 -5 72 19 66 65 -16 193 -29 224 -23 27 5 35 12 35 29 0 12 14 65 30 117 17 51 30 102 30 112 0 20 -36 38 -76 38 -24 0 -24 0 -24 111 0 132 19 272 60 435 17 68 30 145 30 181 0 34 5 74 10 89 13 33 0 45 -45 42 -16 -1 -96 -4 -176 -5zM1670 1458 c0 -97 -16 -248 -27 -259 -5 -4 -23 -5 -41 -2 -25 4 -32 9 -27 21 3 9 9 82 12 164 l6 147 26 4 c14 2 32 5 39 6 9 1 12 -21 12 -81zM1732 1043 c15 -4 17 -14 12 -67 -8 -82 -9 -86 -39 -86 -25 0 -25 1 -25 86 0 78 2 85 18 79 9 -4 25 -10 34 -12zM1823 1026 c3 -8 3 -39 0 -70 -6 -54 -7 -56 -36 -56 l-30 0 7 61 c3 33 8 65 12 70 8 14 41 11 47 -5zM1730 826 c0 -24 -3 -58 -6 -75 -6 -26 -11 -31 -37 -31 l-30 0 5 64 c7 76 12 86 44 86 22 0 24 -4 24 -44zM1818 798 l-3 -73 -38 -3 -37 -3 5 43 c15 112 14 108 46 108 l30 0 -3 -72z"></path><path d="M1604 1289 c-7 -12 15 -31 28 -23 4 3 8 12 8 20 0 17 -26 19 -36 3z"></path><path d="M209 1513 c-25 -4 -27 -7 -33 -91 -8 -98 -40 -295 -60 -363 -11 -36 -18 -45 -40 -47 -32 -4 -32 -13 -1 -79 47 -101 175 -194 311 -224 51 -12 54 -14 54 -43 0 -17 -14 -55 -30 -85 -37 -66 -37 -79 -4 -91 39 -15 50 -12 62 15 6 14 20 25 30 25 20 0 77 79 84 115 3 16 14 21 61 26 73 8 92 25 164 147 56 96 61 122 21 122 -52 1 -52 -3 -31 281 11 145 17 267 14 271 -18 21 -495 37 -602 21zM394 1478 c-26 -81 -40 -156 -33 -175 11 -31 34 -40 127 -46 81 -6 82 -6 82 17 0 13 11 49 25 79 14 31 29 75 33 99 6 35 12 43 27 41 11 -1 46 -5 79 -8 l58 -7 -6 -56 c-3 -32 -8 -96 -12 -144 l-7 -88 -86 6 c-47 2 -95 6 -105 7 -22 2 -29 -18 -49 -133 l-14 -75 -99 4 c-54 1 -100 4 -101 5 -1 1 4 44 12 96 8 52 15 100 15 106 0 8 -28 13 -79 15 -44 2 -81 6 -84 9 -2 3 2 52 9 110 7 58 13 117 13 133 l1 27 101 0 c100 0 100 0 93 -22zM210 1183 c0 -37 -13 -63 -31 -63 -24 0 -28 9 -22 48 4 26 10 32 29 32 16 0 24 -6 24 -17zM314 1163 c-9 -59 -11 -62 -44 -58 -43 6 -48 11 -43 42 8 46 9 48 51 51 l41 2 -5 -37zM658 1174 c2 -1 1 -21 -3 -43 -7 -41 -7 -41 -50 -41 -24 0 -46 3 -48 8 -2 4 0 26 5 50 l9 42 42 -6 c23 -4 44 -8 45 -10zM762 1125 l-4 -45 -44 0 c-47 0 -49 3 -38 59 6 29 10 31 48 31 l41 0 -3 -45zM198 1095 c2 -2 0 -24 -3 -50 -7 -42 -9 -46 -34 -43 -23 3 -26 7 -25 40 2 56 10 71 36 62 13 -3 24 -8 26 -9zM279 1080 c15 -7 17 -16 12 -42 -6 -29 -11 -33 -41 -36 l-35 -3 3 46 c4 48 20 57 61 35zM634 1043 c-14 -63 -14 -63 -55 -63 -34 0 -39 3 -39 23 0 56 10 67 56 67 43 0 44 -1 38 -27zM739 1060 c13 0 15 -9 13 -50 -4 -53 -5 -53 -64 -44 -33 6 -38 10 -38 33 0 14 3 37 7 49 5 20 10 23 36 18 16 -3 37 -6 46 -6zM495 944 c176 -15 321 -28 323 -29 5 -4 -56 -122 -85 -166 -37 -55 -63 -61 -205 -43 -231 28 -362 95 -423 214 l-23 46 46 2 c26 1 191 -10 367 -24zM558 674 c2 -1 1 -17 -3 -34 -7 -31 -8 -32 -48 -26 -23 4 -42 8 -43 9 -1 1 1 17 3 34 5 32 6 33 47 27 22 -4 43 -8 44 -10zM501 590 c23 0 24 -13 3 -34 -14 -14 -18 -14 -45 0 -25 13 -28 18 -18 30 7 8 19 12 26 9 8 -3 23 -5 34 -5zM450 531 c-1 -17 -18 -31 -33 -25 -20 7 -21 16 -6 31 11 11 39 7 39 -6z"></path><path d="M267 1393 c-4 -3 -7 -15 -7 -25 0 -10 -3 -17 -7 -17 -20 3 -24 -2 -12 -17 12 -15 11 -16 -9 -10 -16 5 -22 3 -22 -8 0 -8 9 -18 20 -21 11 -3 20 -11 20 -16 0 -6 7 -6 19 1 11 5 29 10 41 10 18 0 20 4 14 23 -4 12 -12 25 -18 29 -7 5 -4 12 8 21 19 14 19 15 -2 26 -24 13 -36 14 -45 4z"></path><path d="M650 1341 c0 -5 6 -12 13 -14 7 -3 5 -6 -5 -6 -24 -1 -23 -18 2 -31 24 -13 26 -30 5 -30 -22 0 -18 -18 5 -25 28 -9 82 4 77 18 -2 7 -13 13 -25 15 -18 3 -22 10 -22 43 0 35 -3 39 -25 39 -14 0 -25 -4 -25 -9z"></path><path d="M493 841 c3 -34 10 -68 16 -75 6 -7 36 -14 70 -15 65 -2 81 10 81 61 0 13 7 34 16 46 9 13 13 26 10 30 -4 3 -50 8 -103 10 l-96 5 6 -62zM560 880 c0 -5 -11 -10 -25 -10 -14 0 -25 5 -25 10 0 6 11 10 25 10 14 0 25 -4 25 -10zM655 870 c-8 -13 -45 -13 -65 0 -11 7 -3 10 28 10 26 0 41 -4 37 -10zM574 828 c11 -41 7 -58 -13 -58 -22 0 -51 35 -51 62 0 29 56 24 64 -4zM640 815 c0 -23 -6 -38 -15 -42 -20 -7 -21 -6 -29 40 -7 35 -5 37 19 37 22 0 25 -4 25 -35z"></path><path d="M1151 1503 c-19 -16 -23 -34 -31 -131 -7 -93 -14 -121 -37 -163 -15 -28 -32 -53 -38 -54 -5 -2 -23 -6 -38 -9 -37 -9 -67 -59 -67 -114 0 -41 29 -114 50 -127 7 -5 5 -12 -7 -20 -13 -10 -19 -33 -24 -97 -3 -45 -4 -89 -1 -96 12 -33 132 -63 171 -43 11 7 21 21 21 31 0 13 7 20 18 20 36 0 112 32 142 60 39 36 39 79 2 154 -16 31 -25 56 -20 56 4 0 17 9 28 20 39 39 14 137 -45 171 -42 25 -76 74 -82 118 -3 21 3 78 12 126 17 85 17 89 -1 102 -23 17 -27 17 -53 -4zM1154 1194 c3 -8 2 -12 -4 -9 -6 3 -10 10 -10 16 0 14 7 11 14 -7zM1150 1154 c11 -12 11 -18 -2 -31 -19 -18 -38 -10 -38 16 0 33 20 40 40 15z"></path></g><g transform="scale(0.05, 0.05)" fill="rgb(249, 204, 46)" stroke="none"><path d="M0 1935 l0 -65 1000 0 1000 0 0 65 0 65 -1000 0 -1000 0 0 -65zM156 1956 c11 -46 -3 -66 -47 -66 l-39 0 0 45 0 45 40 0 c34 0 41 -4 46 -24zM390 1926 c0 -8 -23 -12 -72 -11 -40 0 -76 -4 -80 -10 -5 -7 -10 -7 -15 0 -5 6 -15 10 -23 10 -8 0 -16 10 -18 23 -3 21 0 22 57 22 51 0 61 -3 62 -17 1 -15 2 -14 7 2 l5 20 8 -20 c6 -17 8 -17 8 -2 1 20 17 23 25 5 3 -7 3 -2 0 12 l-5 25 20 -24 c12 -13 21 -29 21 -35zM642 1960 c10 0 18 -8 19 -17 0 -15 2 -15 7 -3 5 11 25 16 65 18 56 2 58 2 55 -20 -2 -14 -10 -23 -20 -23 -9 0 -19 -3 -23 -7 -4 -3 -19 -3 -34 2 -16 4 -35 3 -46 -3 -13 -7 -20 -7 -22 0 -2 6 -13 9 -23 6 -17 -5 -20 0 -20 33 0 30 3 35 12 26 7 -7 20 -12 30 -12zM1780 1960 c0 -5 -11 -10 -25 -10 -14 0 -25 5 -25 10 0 6 11 10 25 10 14 0 25 -4 25 -10zM1860 1960 c0 -5 -16 -10 -35 -10 -19 0 -35 5 -35 10 0 6 16 10 35 10 19 0 35 -4 35 -10zM1915 1960 c4 -6 -5 -10 -19 -10 -14 0 -26 5 -26 10 0 6 9 10 19 10 11 0 23 -4 26 -10zM578 1935 c0 -14 -4 -22 -8 -20 -5 3 -10 0 -12 -6 -3 -8 -10 -9 -23 -2 -11 6 -36 9 -55 7 -19 -1 -38 3 -42 9 -6 9 -8 9 -8 0 0 -7 -4 -13 -10 -13 -5 0 -9 11 -8 24 2 22 5 23 84 24 80 1 82 1 82 -23zM1910 1922 c0 -5 -20 -10 -45 -10 -25 -1 -45 2 -45 8 0 5 20 10 45 10 25 0 45 -4 45 -8z"></path><path d="M520 1940 c0 -5 5 -10 10 -10 6 0 10 5 10 10 0 6 -4 10 -10 10 -5 0 -10 -4 -10 -10z"></path><path d="M1725 1563 l-150 -4 -3 -117 c-3 -139 -7 -178 -32 -326 -23 -130 -61 -284 -83 -338 -15 -35 -17 -36 -51 -28 -40 9 -44 2 -26 -46 6 -14 15 -67 20 -117 6 -57 15 -96 24 -106 14 -14 13 -18 -8 -41 -32 -34 -40 -64 -22 -79 14 -12 177 -61 201 -61 6 0 9 27 7 70 -2 38 -2 70 0 70 3 0 51 -7 107 -15 110 -17 176 -12 167 11 -3 8 3 38 14 66 32 89 52 166 48 179 -2 7 -27 18 -54 24 l-49 10 3 120 c3 141 21 264 62 429 18 70 30 147 30 184 0 35 5 73 11 84 13 25 -3 39 -41 36 -14 -2 -92 -4 -175 -5zM1914 1473 c-4 -61 -53 -309 -80 -401 -4 -14 -88 -12 -146 3 l-28 7 0 -73 c0 -41 -7 -121 -17 -178 l-17 -104 -74 6 c-41 3 -76 7 -78 10 -2 2 8 43 22 91 23 80 51 207 68 309 7 37 7 37 45 31 67 -11 71 3 87 258 l7 107 66 4 c36 2 85 4 108 5 l41 2 -4 -77zM1670 1447 c-1 -110 -14 -235 -27 -248 -5 -5 -24 -6 -42 -3 -27 6 -32 10 -27 28 3 12 9 82 12 156 3 74 7 140 9 145 1 6 19 11 39 12 l36 3 0 -93zM1734 1042 c15 -4 17 -11 12 -41 -3 -20 -6 -53 -6 -73 0 -35 -2 -38 -30 -38 l-30 0 0 86 c0 78 2 85 18 79 9 -4 25 -10 36 -13zM1825 1029 c4 -5 4 -37 0 -70 -7 -58 -8 -59 -37 -59 l-31 0 6 59 c3 33 8 64 12 70 8 14 42 14 50 0zM1820 800 l0 -80 -40 0 -40 0 6 63 c8 90 4 84 67 96 4 0 7 -35 7 -79zM1735 828 c-15 -111 -14 -108 -44 -108 -38 0 -44 19 -30 91 11 58 12 59 45 59 l34 0 -5 -42zM1535 705 c50 -9 154 -18 233 -22 123 -5 142 -8 138 -22 -27 -107 -29 -111 -45 -107 -9 3 -47 12 -86 21 -38 9 -117 38 -175 64 -58 27 -123 54 -145 61 -46 14 -74 36 -35 27 14 -3 66 -13 115 -22zM1535 649 c115 -50 118 -52 111 -76 -7 -21 -22 -19 -203 22 -15 3 -23 15 -28 37 -4 18 -9 41 -12 51 -6 24 7 20 132 -34zM1503 564 c39 -5 47 -9 42 -23 -4 -9 -12 -29 -17 -44 -10 -26 -14 -28 -47 -22 -46 8 -51 14 -58 65 -5 38 -4 42 13 37 10 -3 41 -9 67 -13zM1785 553 c79 -18 91 -25 79 -46 -8 -13 -20 -12 -94 9 -114 33 -110 31 -103 49 4 11 13 15 27 11 11 -4 53 -14 91 -23zM1676 524 c51 -14 51 -15 45 -47 -4 -18 -11 -32 -16 -32 -6 1 -43 4 -82 9 -78 9 -81 11 -62 64 12 35 10 35 115 6zM1815 484 c29 -5 36 -10 33 -28 -2 -17 -11 -22 -43 -24 -53 -3 -70 9 -61 43 4 17 12 25 21 21 7 -2 30 -8 50 -12zM1494 452 c8 -13 -19 -95 -32 -100 -17 -5 -14 29 3 52 8 11 15 26 15 33 0 26 -17 12 -35 -27 -10 -22 -24 -40 -32 -40 -21 0 -15 16 18 55 30 34 52 44 63 27zM1564 444 c12 -5 16 -21 16 -65 0 -59 -4 -66 -28 -50 -10 6 -12 21 -7 55 5 28 3 46 -3 46 -11 0 -22 -33 -22 -67 0 -13 -5 -23 -11 -23 -11 0 -5 42 12 88 9 23 17 26 43 16z"></path><path d="M1607 1294 c-9 -10 2 -24 19 -24 8 0 14 7 14 15 0 15 -21 21 -33 9z"></path><path d="M219 1513 l-36 -4 -7 -102 c-7 -99 -45 -318 -66 -371 -7 -19 -17 -26 -35 -26 -31 0 -31 -13 0 -77 51 -102 176 -191 313 -223 47 -11 52 -15 52 -40 0 -30 -34 -115 -50 -125 -19 -12 -10 -42 15 -53 39 -18 52 -15 59 13 5 18 13 25 31 25 18 0 29 8 38 28 6 15 17 32 24 37 6 6 16 25 20 44 9 34 10 35 60 35 36 1 60 7 80 22 34 25 146 212 139 231 -3 7 -20 13 -41 13 l-35 0 0 48 c0 26 7 130 15 232 8 102 15 206 15 231 l0 46 -107 11 c-99 11 -399 14 -484 5zM396 1483 c-23 -77 -37 -157 -32 -177 9 -35 28 -43 116 -48 l75 -5 24 56 c13 31 31 85 41 121 l18 65 48 -3 c27 -2 62 -5 78 -9 l29 -5 -7 -77 c-3 -42 -9 -106 -12 -143 l-7 -68 -51 1 c-28 0 -74 4 -103 8 -51 7 -53 7 -62 -22 -6 -15 -16 -65 -23 -109 l-13 -81 -100 7 c-55 4 -101 9 -103 11 -3 3 10 102 24 183 l6 32 -73 0 c-41 0 -79 4 -86 8 -9 5 -9 27 -3 82 5 41 12 101 15 133 l6 57 100 0 c91 0 100 -2 95 -17zM595 1458 c-4 -24 -20 -72 -35 -108 l-29 -65 -47 -3 c-98 -7 -106 4 -80 107 8 31 17 68 21 84 5 27 6 27 91 27 l86 0 -7 -42zM208 1161 c-3 -31 -6 -36 -28 -36 -22 0 -25 4 -22 30 4 47 9 54 32 48 17 -5 21 -12 18 -42zM316 1169 c-3 -17 -6 -41 -6 -52 0 -17 -5 -19 -41 -14 -22 3 -42 7 -44 9 -2 2 -1 22 2 46 l6 42 45 0 45 0 -7 -31zM667 1176 c1 -1 -4 -20 -10 -44 l-11 -42 -49 0 -49 0 7 33 c14 70 13 69 63 61 26 -4 48 -7 49 -8zM766 1167 c0 -1 -1 -21 -4 -44 l-4 -43 -45 0 -46 0 7 42 c9 57 13 61 55 53 20 -4 36 -8 37 -8zM184 1104 c16 -6 21 -41 10 -81 -5 -17 -14 -23 -33 -23 -37 0 -41 5 -29 48 17 68 18 69 52 56zM277 1084 c19 -5 23 -11 19 -28 -3 -11 -6 -29 -6 -38 0 -14 -9 -18 -41 -18 -38 0 -41 2 -35 23 3 12 6 35 6 51 0 22 4 27 16 22 9 -3 27 -9 41 -12zM635 1038 c-13 -64 -12 -64 -55 -60 -39 4 -40 5 -40 41 0 21 3 41 7 44 3 4 26 7 50 7 l45 0 -7 -32zM737 1064 c20 -6 22 -11 16 -53 -3 -25 -7 -48 -9 -50 -2 -2 -24 0 -49 3 -43 7 -45 9 -45 41 0 63 20 77 87 59zM364 955 c94 -8 198 -17 231 -19 118 -8 225 -19 225 -23 0 -8 -64 -129 -87 -164 -37 -55 -63 -61 -205 -43 -231 28 -362 95 -423 214 l-23 46 56 2 c30 1 132 -4 226 -13zM529 684 c21 -4 31 -12 31 -24 0 -37 -12 -50 -44 -50 -46 0 -57 11 -50 48 7 34 12 36 63 26zM508 590 c16 0 15 -25 -2 -39 -11 -10 -21 -9 -46 4 -26 14 -29 19 -19 31 7 9 21 13 33 10 12 -3 27 -6 34 -6zM448 522 c-4 -19 -19 -24 -37 -13 -12 8 -12 12 -2 25 15 18 43 10 39 -12z"></path><path d="M266 1375 c-4 -14 -14 -25 -22 -25 -14 0 -15 -2 -3 -17 13 -15 12 -16 -8 -11 -29 8 -29 -5 0 -24 13 -9 35 -13 55 -10 25 3 32 9 32 27 0 13 -6 26 -12 29 -9 3 -7 8 6 17 18 11 18 12 -5 25 -33 18 -36 18 -43 -11z"></path><path d="M658 1338 c9 -9 7 -14 -6 -24 -16 -13 -15 -14 6 -20 25 -7 30 -34 7 -34 -20 0 -19 -16 1 -24 24 -9 86 4 81 18 -2 6 -14 10 -26 9 -19 -3 -21 2 -21 42 0 42 -2 45 -27 45 -21 0 -24 -3 -15 -12z"></path><path d="M476 1404 c-9 -22 12 -46 38 -42 15 2 21 10 21 28 0 20 -6 26 -26 28 -18 2 -29 -3 -33 -14z"></path><path d="M493 841 c3 -34 10 -68 16 -75 6 -7 36 -14 70 -15 65 -2 81 10 81 61 0 13 7 34 16 46 9 13 13 26 10 30 -4 3 -50 8 -103 10 l-96 5 6 -62zM565 880 c4 -6 -7 -10 -24 -10 -17 0 -31 5 -31 10 0 6 11 10 24 10 14 0 28 -4 31 -10zM643 880 c9 0 17 -5 17 -11 0 -15 -73 -6 -78 10 -4 10 1 12 19 8 13 -4 32 -7 42 -7zM574 834 c3 -9 6 -27 6 -40 0 -19 -5 -24 -25 -24 -26 0 -45 25 -45 59 0 16 6 21 29 21 17 0 31 -6 35 -16zM642 845 c3 -3 2 -20 -1 -38 -7 -35 -41 -52 -41 -20 0 10 -3 28 -6 41 -5 18 -2 22 18 22 14 0 27 -2 30 -5z"></path><path d="M1140 1491 c-5 -11 -14 -67 -19 -126 -7 -80 -15 -117 -34 -152 -25 -49 -31 -53 -83 -73 -75 -27 -86 -157 -19 -223 17 -17 17 -19 -4 -38 -18 -17 -22 -31 -21 -82 0 -34 0 -73 -1 -86 -1 -31 20 -47 83 -60 66 -15 98 -6 104 28 5 22 11 27 38 28 47 1 130 46 144 78 18 40 15 68 -16 126 l-28 54 28 23 c19 16 28 33 28 53 0 42 -36 108 -65 119 -13 5 -38 28 -55 51 -36 50 -39 105 -14 206 9 35 13 70 10 78 -8 22 -63 19 -76 -4zM1154 1194 c3 -8 2 -12 -4 -9 -6 3 -10 10 -10 16 0 14 7 11 14 -7zM1160 1144 c0 -6 -7 -17 -15 -24 -22 -18 -39 1 -31 34 6 23 9 25 26 14 11 -7 20 -18 20 -24zM1297 1111 c40 -59 25 -121 -28 -121 l-29 0 35 -51 c39 -57 53 -110 37 -144 -13 -28 -99 -75 -136 -75 -14 0 -28 6 -33 13 -5 7 -10 -3 -13 -28 l-5 -40 -51 1 c-70 2 -98 18 -89 52 8 31 24 44 45 36 34 -14 50 -16 50 -6 0 13 -57 33 -75 26 -12 -5 -15 3 -15 40 0 49 3 51 73 58 38 4 35 22 -5 30 -83 17 -121 144 -62 209 34 38 97 18 120 -37 17 -41 34 -44 34 -6 0 31 20 55 60 71 39 16 63 9 87 -28z"></path></g><g transform="scale(0.05, 0.05)" fill="rgb(95, 95, 162)" stroke="none"><path d="M0 1935 l0 -65 1000 0 1000 0 0 65 0 65 -1000 0 -1000 0 0 -65zM156 1956 c11 -46 -3 -66 -47 -66 l-39 0 0 45 0 45 40 0 c34 0 41 -4 46 -24zM390 1926 c0 -8 -23 -12 -72 -11 -40 0 -76 -4 -80 -10 -5 -7 -10 -7 -15 0 -5 6 -15 10 -23 10 -8 0 -16 10 -18 23 -3 21 0 22 57 22 51 0 61 -3 62 -17 1 -15 2 -14 7 2 l5 20 8 -20 c6 -17 8 -17 8 -2 1 20 17 23 25 5 3 -7 3 -2 0 12 l-5 25 20 -24 c12 -13 21 -29 21 -35zM642 1960 c10 0 18 -8 19 -17 0 -15 2 -15 7 -3 5 11 25 16 65 18 56 2 58 2 55 -20 -2 -14 -10 -23 -20 -23 -9 0 -19 -3 -23 -7 -4 -3 -19 -3 -34 2 -16 4 -35 3 -46 -3 -13 -7 -20 -7 -22 0 -2 6 -13 9 -23 6 -17 -5 -20 0 -20 33 0 30 3 35 12 26 7 -7 20 -12 30 -12zM1780 1960 c0 -5 -11 -10 -25 -10 -14 0 -25 5 -25 10 0 6 11 10 25 10 14 0 25 -4 25 -10zM1860 1960 c0 -5 -16 -10 -35 -10 -19 0 -35 5 -35 10 0 6 16 10 35 10 19 0 35 -4 35 -10zM1915 1960 c4 -6 -5 -10 -19 -10 -14 0 -26 5 -26 10 0 6 9 10 19 10 11 0 23 -4 26 -10zM578 1935 c0 -14 -4 -22 -8 -20 -5 3 -10 0 -12 -6 -3 -8 -10 -9 -23 -2 -11 6 -36 9 -55 7 -19 -1 -38 3 -42 9 -6 9 -8 9 -8 0 0 -7 -4 -13 -10 -13 -5 0 -9 11 -8 24 2 22 5 23 84 24 80 1 82 1 82 -23zM1910 1922 c0 -5 -20 -10 -45 -10 -25 -1 -45 2 -45 8 0 5 20 10 45 10 25 0 45 -4 45 -8z"></path><path d="M520 1940 c0 -5 5 -10 10 -10 6 0 10 5 10 10 0 6 -4 10 -10 10 -5 0 -10 -4 -10 -10z"></path><path d="M1725 1563 l-150 -4 -3 -117 c-3 -139 -7 -178 -32 -326 -23 -130 -61 -284 -83 -338 -15 -35 -17 -36 -51 -28 -40 9 -44 2 -26 -46 6 -14 15 -67 20 -117 6 -57 15 -96 24 -106 14 -14 13 -18 -8 -41 -32 -34 -40 -64 -22 -79 14 -12 177 -61 201 -61 6 0 9 27 7 70 -2 38 -2 70 0 70 3 0 51 -7 107 -15 110 -17 176 -12 167 11 -3 8 3 38 14 66 32 89 52 166 48 179 -2 7 -27 18 -54 24 l-49 10 3 120 c3 141 21 264 62 429 18 70 30 147 30 184 0 35 5 73 11 84 13 25 -3 39 -41 36 -14 -2 -92 -4 -175 -5zM1914 1473 c-4 -61 -53 -309 -80 -401 -4 -14 -88 -12 -146 3 l-28 7 0 -73 c0 -41 -7 -121 -17 -178 l-17 -104 -74 6 c-41 3 -76 7 -78 10 -2 2 8 43 22 91 23 80 51 207 68 309 7 37 7 37 45 31 67 -11 71 3 87 258 l7 107 66 4 c36 2 85 4 108 5 l41 2 -4 -77zM1670 1447 c-1 -110 -14 -235 -27 -248 -5 -5 -24 -6 -42 -3 -27 6 -32 10 -27 28 3 12 9 82 12 156 3 74 7 140 9 145 1 6 19 11 39 12 l36 3 0 -93zM1734 1042 c15 -4 17 -11 12 -41 -3 -20 -6 -53 -6 -73 0 -35 -2 -38 -30 -38 l-30 0 0 86 c0 78 2 85 18 79 9 -4 25 -10 36 -13zM1825 1029 c4 -5 4 -37 0 -70 -7 -58 -8 -59 -37 -59 l-31 0 6 59 c3 33 8 64 12 70 8 14 42 14 50 0zM1820 800 l0 -80 -40 0 -40 0 6 63 c8 90 4 84 67 96 4 0 7 -35 7 -79zM1735 828 c-15 -111 -14 -108 -44 -108 -38 0 -44 19 -30 91 11 58 12 59 45 59 l34 0 -5 -42zM1535 705 c50 -9 154 -18 233 -22 123 -5 142 -8 138 -22 -27 -107 -29 -111 -45 -107 -9 3 -47 12 -86 21 -38 9 -117 38 -175 64 -58 27 -123 54 -145 61 -46 14 -74 36 -35 27 14 -3 66 -13 115 -22zM1535 649 c115 -50 118 -52 111 -76 -7 -21 -22 -19 -203 22 -15 3 -23 15 -28 37 -4 18 -9 41 -12 51 -6 24 7 20 132 -34zM1503 564 c39 -5 47 -9 42 -23 -4 -9 -12 -29 -17 -44 -10 -26 -14 -28 -47 -22 -46 8 -51 14 -58 65 -5 38 -4 42 13 37 10 -3 41 -9 67 -13zM1785 553 c79 -18 91 -25 79 -46 -8 -13 -20 -12 -94 9 -114 33 -110 31 -103 49 4 11 13 15 27 11 11 -4 53 -14 91 -23zM1676 524 c51 -14 51 -15 45 -47 -4 -18 -11 -32 -16 -32 -6 1 -43 4 -82 9 -78 9 -81 11 -62 64 12 35 10 35 115 6zM1815 484 c29 -5 36 -10 33 -28 -2 -17 -11 -22 -43 -24 -53 -3 -70 9 -61 43 4 17 12 25 21 21 7 -2 30 -8 50 -12zM1494 452 c8 -13 -19 -95 -32 -100 -17 -5 -14 29 3 52 8 11 15 26 15 33 0 26 -17 12 -35 -27 -10 -22 -24 -40 -32 -40 -21 0 -15 16 18 55 30 34 52 44 63 27zM1564 444 c12 -5 16 -21 16 -65 0 -59 -4 -66 -28 -50 -10 6 -12 21 -7 55 5 28 3 46 -3 46 -11 0 -22 -33 -22 -67 0 -13 -5 -23 -11 -23 -11 0 -5 42 12 88 9 23 17 26 43 16z"></path><path d="M1607 1294 c-9 -10 2 -24 19 -24 8 0 14 7 14 15 0 15 -21 21 -33 9z"></path><path d="M219 1513 l-36 -4 -7 -102 c-7 -99 -45 -318 -66 -371 -7 -19 -17 -26 -35 -26 -31 0 -31 -13 0 -77 51 -102 176 -191 313 -223 47 -11 52 -15 52 -40 0 -30 -34 -115 -50 -125 -19 -12 -10 -42 15 -53 39 -18 52 -15 59 13 5 18 13 25 31 25 18 0 29 8 38 28 6 15 17 32 24 37 6 6 16 25 20 44 9 34 10 35 60 35 36 1 60 7 80 22 34 25 146 212 139 231 -3 7 -20 13 -41 13 l-35 0 0 48 c0 26 7 130 15 232 8 102 15 206 15 231 l0 46 -107 11 c-99 11 -399 14 -484 5zM396 1483 c-23 -77 -37 -157 -32 -177 9 -35 28 -43 116 -48 l75 -5 24 56 c13 31 31 85 41 121 l18 65 48 -3 c27 -2 62 -5 78 -9 l29 -5 -7 -77 c-3 -42 -9 -106 -12 -143 l-7 -68 -51 1 c-28 0 -74 4 -103 8 -51 7 -53 7 -62 -22 -6 -15 -16 -65 -23 -109 l-13 -81 -100 7 c-55 4 -101 9 -103 11 -3 3 10 102 24 183 l6 32 -73 0 c-41 0 -79 4 -86 8 -9 5 -9 27 -3 82 5 41 12 101 15 133 l6 57 100 0 c91 0 100 -2 95 -17zM595 1458 c-4 -24 -20 -72 -35 -108 l-29 -65 -47 -3 c-98 -7 -106 4 -80 107 8 31 17 68 21 84 5 27 6 27 91 27 l86 0 -7 -42zM208 1161 c-3 -31 -6 -36 -28 -36 -22 0 -25 4 -22 30 4 47 9 54 32 48 17 -5 21 -12 18 -42zM316 1169 c-3 -17 -6 -41 -6 -52 0 -17 -5 -19 -41 -14 -22 3 -42 7 -44 9 -2 2 -1 22 2 46 l6 42 45 0 45 0 -7 -31zM667 1176 c1 -1 -4 -20 -10 -44 l-11 -42 -49 0 -49 0 7 33 c14 70 13 69 63 61 26 -4 48 -7 49 -8zM766 1167 c0 -1 -1 -21 -4 -44 l-4 -43 -45 0 -46 0 7 42 c9 57 13 61 55 53 20 -4 36 -8 37 -8zM184 1104 c16 -6 21 -41 10 -81 -5 -17 -14 -23 -33 -23 -37 0 -41 5 -29 48 17 68 18 69 52 56zM277 1084 c19 -5 23 -11 19 -28 -3 -11 -6 -29 -6 -38 0 -14 -9 -18 -41 -18 -38 0 -41 2 -35 23 3 12 6 35 6 51 0 22 4 27 16 22 9 -3 27 -9 41 -12zM635 1038 c-13 -64 -12 -64 -55 -60 -39 4 -40 5 -40 41 0 21 3 41 7 44 3 4 26 7 50 7 l45 0 -7 -32zM737 1064 c20 -6 22 -11 16 -53 -3 -25 -7 -48 -9 -50 -2 -2 -24 0 -49 3 -43 7 -45 9 -45 41 0 63 20 77 87 59zM364 955 c94 -8 198 -17 231 -19 118 -8 225 -19 225 -23 0 -8 -64 -129 -87 -164 -37 -55 -63 -61 -205 -43 -231 28 -362 95 -423 214 l-23 46 56 2 c30 1 132 -4 226 -13zM529 684 c21 -4 31 -12 31 -24 0 -37 -12 -50 -44 -50 -46 0 -57 11 -50 48 7 34 12 36 63 26zM508 590 c16 0 15 -25 -2 -39 -11 -10 -21 -9 -46 4 -26 14 -29 19 -19 31 7 9 21 13 33 10 12 -3 27 -6 34 -6zM448 522 c-4 -19 -19 -24 -37 -13 -12 8 -12 12 -2 25 15 18 43 10 39 -12z"></path><path d="M266 1375 c-4 -14 -14 -25 -22 -25 -14 0 -15 -2 -3 -17 13 -15 12 -16 -8 -11 -29 8 -29 -5 0 -24 13 -9 35 -13 55 -10 25 3 32 9 32 27 0 13 -6 26 -12 29 -9 3 -7 8 6 17 18 11 18 12 -5 25 -33 18 -36 18 -43 -11z"></path><path d="M658 1338 c9 -9 7 -14 -6 -24 -16 -13 -15 -14 6 -20 25 -7 30 -34 7 -34 -20 0 -19 -16 1 -24 24 -9 86 4 81 18 -2 6 -14 10 -26 9 -19 -3 -21 2 -21 42 0 42 -2 45 -27 45 -21 0 -24 -3 -15 -12z"></path><path d="M476 1404 c-9 -22 12 -46 38 -42 15 2 21 10 21 28 0 20 -6 26 -26 28 -18 2 -29 -3 -33 -14z"></path><path d="M493 841 c3 -34 10 -68 16 -75 6 -7 36 -14 70 -15 65 -2 81 10 81 61 0 13 7 34 16 46 9 13 13 26 10 30 -4 3 -50 8 -103 10 l-96 5 6 -62zM565 880 c4 -6 -7 -10 -24 -10 -17 0 -31 5 -31 10 0 6 11 10 24 10 14 0 28 -4 31 -10zM643 880 c9 0 17 -5 17 -11 0 -15 -73 -6 -78 10 -4 10 1 12 19 8 13 -4 32 -7 42 -7zM574 834 c3 -9 6 -27 6 -40 0 -19 -5 -24 -25 -24 -26 0 -45 25 -45 59 0 16 6 21 29 21 17 0 31 -6 35 -16zM642 845 c3 -3 2 -20 -1 -38 -7 -35 -41 -52 -41 -20 0 10 -3 28 -6 41 -5 18 -2 22 18 22 14 0 27 -2 30 -5z"></path><path d="M1140 1491 c-5 -11 -14 -67 -19 -126 -7 -80 -15 -117 -34 -152 -25 -49 -31 -53 -83 -73 -75 -27 -86 -157 -19 -223 17 -17 17 -19 -4 -38 -18 -17 -22 -31 -21 -82 0 -34 0 -73 -1 -86 -1 -31 20 -47 83 -60 66 -15 98 -6 104 28 5 22 11 27 38 28 47 1 130 46 144 78 18 40 15 68 -16 126 l-28 54 28 23 c19 16 28 33 28 53 0 42 -36 108 -65 119 -13 5 -38 28 -55 51 -36 50 -39 105 -14 206 9 35 13 70 10 78 -8 22 -63 19 -76 -4zM1154 1194 c3 -8 2 -12 -4 -9 -6 3 -10 10 -10 16 0 14 7 11 14 -7zM1160 1144 c0 -6 -7 -17 -15 -24 -22 -18 -39 1 -31 34 6 23 9 25 26 14 11 -7 20 -18 20 -24zM1297 1111 c40 -59 25 -121 -28 -121 l-29 0 35 -51 c39 -57 53 -110 37 -144 -13 -28 -99 -75 -136 -75 -14 0 -28 6 -33 13 -5 7 -10 -3 -13 -28 l-5 -40 -51 1 c-70 2 -98 18 -89 52 8 31 24 44 45 36 34 -14 50 -16 50 -6 0 13 -57 33 -75 26 -12 -5 -15 3 -15 40 0 49 3 51 73 58 38 4 35 22 -5 30 -83 17 -121 144 -62 209 34 38 97 18 120 -37 17 -41 34 -44 34 -6 0 31 20 55 60 71 39 16 63 9 87 -28z"></path></g><g transform="scale(0.05, 0.05)" fill="rgb(67, 33, 37)" stroke="none"></g><g transform="scale(0.05, 0.05)" fill="rgb(254, 254, 254)" stroke="none"></g></svg>