<svg version="1.0" xmlns="http://www.w3.org/2000/svg" width="300" height="300" viewBox="0 0 100 100">
<g transform="scale(0.05, 0.05)" fill="rgb(218, 221, 230)" stroke="none"><path d="M445 1617 c-22 -13 -49 -40 -62 -62 l-23 -40 0 -507 c0 -335 4 -516 11 -535 15 -40 48 -73 94 -94 37 -17 75 -19 535 -19 459 0 498 2 535 19 48 22 69 44 90 94 13 31 15 108 15 525 0 520 -1 533 -49 586 -45 49 -75 56 -246 56 l-155 0 0 -230 0 -230 90 0 c104 0 99 5 103 -120 l2 -75 -97 -3 -98 -3 0 -84 c0 -116 15 -130 150 -137 l45 -3 0 -80 0 -80 -100 -3 c-117 -4 -162 7 -212 51 -56 50 -76 104 -81 229 l-5 107 -66 3 -66 3 0 95 0 95 68 3 67 3 0 229 0 230 -252 0 c-244 0 -254 -1 -293 -23z"></path></g><g transform="scale(0.05, 0.05)" fill="rgb(132, 143, 175)" stroke="none"><path d="M445 1617 c-22 -13 -49 -40 -62 -62 l-23 -40 0 -507 c0 -335 4 -516 11 -535 15 -40 48 -73 94 -94 37 -17 75 -19 535 -19 459 0 498 2 535 19 48 22 69 44 90 94 13 31 15 108 15 525 0 520 -1 533 -49 586 -45 49 -75 56 -246 56 l-155 0 0 -230 0 -230 90 0 c104 0 99 5 103 -120 l2 -75 -97 -3 -98 -3 0 -84 c0 -116 15 -130 150 -137 l45 -3 0 -80 0 -80 -100 -3 c-117 -4 -162 7 -212 51 -56 50 -76 104 -81 229 l-5 107 -66 3 -66 3 0 95 0 95 68 3 67 3 0 229 0 230 -252 0 c-244 0 -254 -1 -293 -23z"></path></g><g transform="scale(0.05, 0.05)" fill="rgb(66, 84, 142)" stroke="none"><path d="M464 1621 c-47 -22 -80 -59 -95 -110 -7 -24 -9 -203 -7 -532 l3 -495 27 -41 c49 -75 32 -73 611 -73 l514 0 34 23 c18 12 44 38 57 57 l23 34 -3 525 -3 526 -23 33 c-43 59 -69 66 -249 70 l-163 4 0 -226 0 -226 84 0 c56 0 87 -4 94 -13 13 -15 33 -163 25 -183 -4 -11 -30 -14 -105 -14 l-101 0 5 -87 c6 -109 19 -123 113 -123 42 0 66 -5 74 -14 8 -9 11 -43 9 -93 l-3 -78 -110 0 c-95 0 -116 3 -158 24 -92 45 -126 116 -127 269 l0 102 -69 0 c-54 0 -70 4 -75 16 -11 29 -7 169 6 182 7 7 39 12 75 12 l63 0 0 225 0 225 -242 0 c-215 0 -248 -3 -284 -19z"></path></g><g transform="scale(0.05, 0.05)" fill="rgb(253, 254, 251)" stroke="none"></g><g transform="scale(0.05, 0.05)" fill="rgb(70, 89, 147)" stroke="none"></g><g transform="scale(0.05, 0.05)" fill="rgb(255, 255, 255)" stroke="none"></g></svg>