<svg version="1.0" xmlns="http://www.w3.org/2000/svg" width="300" height="300" viewBox="0 0 100 100">
<g transform="scale(0.05, 0.05)" fill="rgb(178, 157, 155)" stroke="none"><path d="M511 1907 c-10 -12 -8 -18 7 -29 18 -12 18 -19 4 -138 -15 -139 -22 -663 -9 -772 l8 -68 -46 6 c-47 7 -75 -5 -75 -32 0 -8 37 -53 81 -102 45 -48 174 -192 287 -320 208 -237 241 -264 234 -195 -3 34 22 83 43 83 7 0 41 -43 75 -96 53 -81 65 -95 84 -90 16 4 33 -7 72 -45 46 -45 54 -50 73 -40 25 14 36 52 23 78 -6 10 -26 33 -45 52 l-35 33 19 33 19 32 -54 71 -54 70 71 48 c130 88 343 319 335 362 -3 14 -16 18 -70 20 -43 2 -68 7 -71 16 -3 7 -11 240 -17 517 -7 277 -15 507 -19 511 -3 4 -37 2 -76 -3 -180 -25 -668 -21 -821 7 -20 4 -34 1 -43 -9zM615 1274 c18 -5 20 -12 17 -84 -4 -85 -6 -88 -59 -74 -21 6 -23 12 -23 79 0 82 10 94 65 79zM770 1174 l0 -84 -29 0 c-58 0 -61 5 -61 94 l0 81 45 -3 45 -4 0 -84zM1230 1145 l0 -75 -30 0 c-16 0 -52 5 -80 11 l-50 11 6 51 c9 80 6 77 84 77 l70 0 0 -75zM1430 1151 c0 -80 1 -79 -95 -82 l-60 -3 -3 77 -3 77 81 0 80 0 0 -69zM613 1060 c15 0 17 -10 17 -75 l0 -75 -35 0 -35 0 0 58 c0 31 -3 68 -7 81 -5 22 -4 23 18 18 13 -4 32 -7 42 -7zM760 980 l0 -70 -34 0 c-32 0 -34 2 -40 46 -12 91 -11 94 34 94 l40 0 0 -70zM1434 988 c11 -93 14 -88 -63 -88 -77 0 -75 -3 -86 82 l-7 47 68 4 c38 1 72 4 75 5 3 1 9 -22 13 -50zM1238 963 l3 -63 -70 0 c-38 0 -72 4 -75 9 -3 4 -9 34 -12 65 l-7 57 79 -3 79 -3 3 -62zM1334 831 l239 -6 -63 -78 c-102 -128 -234 -231 -407 -322 -75 -39 -107 -64 -133 -104 -15 -23 -17 -21 -233 225 -119 137 -224 259 -232 272 l-16 22 303 -1 c167 -1 411 -4 542 -8z"></path></g><g transform="scale(0.05, 0.05)" fill="rgb(122, 75, 51)" stroke="none"><path d="M511 1907 c-10 -12 -8 -18 7 -29 18 -12 18 -19 4 -138 -15 -139 -22 -663 -9 -772 l8 -68 -46 6 c-47 7 -75 -5 -75 -32 0 -8 37 -53 81 -102 45 -48 174 -192 287 -320 208 -237 241 -264 234 -195 -3 34 22 83 43 83 7 0 41 -43 75 -96 53 -81 65 -95 84 -90 16 4 33 -7 72 -45 46 -45 54 -50 73 -40 25 14 36 52 23 78 -6 10 -26 33 -45 52 l-35 33 19 33 19 32 -54 71 -54 70 71 48 c130 88 343 319 335 362 -3 14 -16 18 -70 20 -43 2 -68 7 -71 16 -3 7 -11 240 -17 517 -7 277 -15 507 -19 511 -3 4 -37 2 -76 -3 -180 -25 -668 -21 -821 7 -20 4 -34 1 -43 -9zM615 1274 c18 -5 20 -12 17 -84 -4 -85 -6 -88 -59 -74 -21 6 -23 12 -23 79 0 82 10 94 65 79zM770 1174 l0 -84 -29 0 c-58 0 -61 5 -61 94 l0 81 45 -3 45 -4 0 -84zM1230 1145 l0 -75 -30 0 c-16 0 -52 5 -80 11 l-50 11 6 51 c9 80 6 77 84 77 l70 0 0 -75zM1430 1151 c0 -80 1 -79 -95 -82 l-60 -3 -3 77 -3 77 81 0 80 0 0 -69zM613 1060 c15 0 17 -10 17 -75 l0 -75 -35 0 -35 0 0 58 c0 31 -3 68 -7 81 -5 22 -4 23 18 18 13 -4 32 -7 42 -7zM760 980 l0 -70 -34 0 c-32 0 -34 2 -40 46 -12 91 -11 94 34 94 l40 0 0 -70zM1434 988 c11 -93 14 -88 -63 -88 -77 0 -75 -3 -86 82 l-7 47 68 4 c38 1 72 4 75 5 3 1 9 -22 13 -50zM1238 963 l3 -63 -70 0 c-38 0 -72 4 -75 9 -3 4 -9 34 -12 65 l-7 57 79 -3 79 -3 3 -62zM1334 831 l239 -6 -63 -78 c-102 -128 -234 -231 -407 -322 -75 -39 -107 -64 -133 -104 -15 -23 -17 -21 -233 225 -119 137 -224 259 -232 272 l-16 22 303 -1 c167 -1 411 -4 542 -8z"></path></g><g transform="scale(0.05, 0.05)" fill="rgb(251, 4, 5)" stroke="none"><path d="M510 1896 c0 -9 7 -16 15 -16 8 0 15 -2 15 -5 0 -3 -7 -78 -16 -167 -17 -182 -23 -536 -10 -700 l8 -108 -56 0 c-52 0 -56 -2 -56 -22 1 -15 36 -62 97 -128 53 -58 179 -199 280 -315 102 -116 191 -211 199 -213 10 -3 14 7 14 37 0 28 7 48 24 68 24 28 25 28 40 8 9 -11 39 -57 67 -102 29 -46 54 -83 58 -83 3 0 12 4 20 9 11 7 26 -4 59 -40 44 -49 68 -59 90 -37 26 26 14 69 -30 109 l-41 39 18 34 19 35 -48 61 c-26 34 -49 67 -51 73 -3 7 31 36 75 65 43 29 115 89 159 133 78 77 171 195 171 217 0 6 -33 13 -74 17 l-73 7 -7 127 c-3 69 -9 301 -13 514 -5 303 -9 390 -19 394 -7 3 -62 0 -121 -6 -216 -22 -457 -20 -730 4 -73 7 -83 6 -83 -9zM937 1718 c-3 -8 -6 -5 -6 6 -1 11 2 17 5 13 3 -3 4 -12 1 -19zM638 1187 c1 -48 -1 -87 -5 -87 -4 0 -24 5 -45 10 l-36 10 -7 71 c-8 82 4 101 59 90 l31 -7 3 -87zM770 1176 l0 -95 -37 5 c-21 3 -44 7 -50 10 -11 3 -12 45 -3 172 0 1 20 2 45 2 l45 0 0 -94zM1233 1148 c4 -45 5 -83 4 -85 -2 -2 -40 2 -85 9 l-82 11 0 58 c0 77 13 89 94 89 l63 0 6 -82zM1432 1154 c2 -42 0 -78 -3 -79 -3 -2 -39 -7 -81 -11 l-75 -7 -5 79 c-3 44 -4 82 -1 87 2 4 40 7 83 7 l78 0 4 -76zM1037 1068 c-3 -8 -6 -5 -6 6 -1 11 2 17 5 13 3 -3 4 -12 1 -19zM609 1064 l32 -7 -3 -76 c-3 -75 -3 -76 -32 -79 -16 -2 -32 0 -37 5 -4 4 -11 43 -15 86 -7 85 -8 83 55 71zM770 1015 c0 -22 -3 -57 -6 -77 -6 -35 -9 -38 -39 -38 -40 0 -45 11 -45 96 l0 64 45 -2 45 -2 0 -41zM1201 1030 l39 0 0 -65 0 -65 -74 0 -73 0 -12 57 c-17 88 -18 87 35 79 26 -3 64 -6 85 -6zM1440 965 l0 -76 -72 3 -73 3 -10 65 -11 65 51 6 c27 3 65 6 83 7 l32 2 0 -75zM1334 831 l239 -6 -63 -78 c-102 -128 -234 -231 -407 -322 -75 -39 -107 -64 -133 -104 -15 -23 -17 -21 -233 225 -119 137 -224 259 -232 272 l-16 22 303 -1 c167 -1 411 -4 542 -8z"></path></g><g transform="scale(0.05, 0.05)" fill="rgb(67, 5, 4)" stroke="none"><path d="M518 1904 c-14 -14 -8 -24 13 -24 15 0 19 -5 15 -17 -26 -92 -44 -781 -24 -915 l7 -47 -57 -3 c-82 -4 -80 -21 14 -121 42 -45 169 -187 282 -315 195 -222 242 -265 228 -207 -10 39 26 95 60 95 2 0 34 -45 70 -101 55 -86 67 -99 80 -88 13 10 24 4 68 -40 47 -47 56 -52 75 -42 36 20 27 61 -24 111 l-44 43 19 28 c11 15 20 30 20 34 0 3 -25 37 -55 75 l-55 69 76 52 c42 28 110 83 151 122 82 78 197 223 188 238 -4 5 -35 9 -70 9 -35 0 -67 4 -70 10 -10 16 -24 428 -26 743 -1 158 -5 289 -9 292 -5 3 -34 2 -64 -1 -48 -6 -54 -9 -44 -21 8 -10 23 -13 45 -10 l33 6 0 -97 c0 -53 3 -194 7 -312 l6 -215 -54 -2 c-30 -1 -61 -2 -69 -2 -8 -1 -26 0 -40 1 -14 1 -64 1 -112 0 -113 -3 -112 0 -115 -202 -2 -85 -5 -154 -8 -152 -3 1 -54 2 -114 2 l-109 0 -8 178 c-4 97 -7 184 -5 193 1 11 -7 18 -24 21 -29 6 -34 -12 -7 -29 17 -10 17 -19 9 -94 -5 -46 -11 -85 -12 -87 -2 -2 -24 0 -49 3 l-46 7 0 84 c0 45 -4 86 -10 89 -5 3 -10 12 -9 18 0 9 2 9 6 0 2 -7 13 -13 24 -13 11 0 16 5 13 13 -2 7 -37 20 -77 28 l-72 14 3 110 c3 102 24 326 38 404 6 32 8 33 43 27 20 -3 100 -9 178 -12 l142 -7 -5 -71 c-3 -39 -12 -119 -20 -179 -17 -117 -14 -141 19 -159 21 -11 229 -14 246 -4 4 3 11 97 14 208 4 112 9 212 12 223 6 20 1 20 -242 20 -136 -1 -254 -4 -260 -8 -8 -5 -13 -3 -13 4 0 8 -4 8 -15 -1 -13 -11 -14 -10 -9 4 5 12 0 16 -22 16 -16 0 -51 3 -79 6 -27 3 -53 3 -57 -2zM1076 1684 l-7 -166 23 4 c21 3 23 7 21 63 -1 33 1 106 4 163 5 100 5 102 29 102 23 0 24 -2 24 -82 0 -46 -3 -133 -6 -194 l-7 -111 -89 -7 c-113 -8 -133 1 -124 52 4 21 16 102 27 182 11 79 23 148 25 152 3 4 24 8 46 8 l41 0 -7 -166zM628 1280 c9 0 12 -25 12 -90 0 -100 -2 -102 -69 -79 -31 11 -31 11 -31 84 0 79 13 100 55 90 11 -3 26 -5 33 -5zM1434 1183 c13 -94 9 -110 -25 -117 -17 -3 -55 -6 -84 -6 -61 0 -65 6 -65 107 l0 62 48 3 c26 2 63 1 83 0 35 -4 37 -6 43 -49zM1238 1143 c3 -95 9 -92 -105 -72 l-63 11 0 62 c0 36 5 67 12 74 9 9 37 12 83 10 l70 -3 3 -82zM613 1066 c27 -6 27 -7 27 -86 l0 -80 -39 0 c-35 0 -39 3 -45 31 -3 17 -6 58 -6 91 0 52 2 59 18 55 9 -3 29 -8 45 -11zM770 980 l0 -80 -45 0 c-44 0 -45 0 -45 34 0 18 -3 54 -6 80 l-7 46 52 0 51 0 0 -80zM1233 1030 c3 -3 6 -34 8 -70 l4 -65 -77 -3 -76 -3 -11 51 c-6 28 -11 62 -11 77 l0 25 79 -3 c44 -2 82 -6 84 -9zM1440 981 c0 -33 3 -66 6 -75 5 -14 -5 -16 -74 -16 l-80 0 -12 67 c-14 81 -12 83 88 83 l72 0 0 -59zM1339 831 l234 -6 -63 -78 c-102 -128 -234 -231 -407 -322 -76 -39 -107 -64 -133 -104 -16 -23 -17 -22 -233 225 -119 137 -224 260 -233 272 l-15 22 308 -1 c169 -1 413 -4 542 -8zM1234 358 c25 -32 46 -61 46 -65 0 -5 -18 -28 -39 -53 -47 -54 -48 -53 -111 63 l-42 77 44 19 c23 11 46 19 49 18 3 -1 27 -28 53 -59zM1341 136 c1 -6 1 -17 0 -25 -2 -7 2 -10 8 -6 6 3 11 2 11 -3 0 -6 -7 -13 -16 -16 -8 -3 -12 -2 -9 4 3 6 0 10 -7 10 -14 0 -42 27 -46 45 -1 6 -6 10 -11 10 -5 0 -13 4 -18 9 -5 5 -2 6 6 1 9 -5 12 -3 9 6 -3 8 -11 13 -18 11 -11 -3 -11 0 -1 12 11 14 18 12 52 -16 21 -17 40 -36 40 -42z"></path><path d="M1001 1663 c-15 -53 -14 -165 2 -187 8 -11 19 -15 31 -10 14 5 16 12 9 33 -4 14 -8 64 -8 110 0 93 -16 119 -34 54z"></path><path d="M1230 1874 c0 -12 5 -15 23 -9 12 4 32 7 44 7 13 0 20 4 17 9 -3 5 -23 9 -45 9 -29 0 -39 -4 -39 -16z"></path></g><g transform="scale(0.05, 0.05)" fill="rgb(122, 221, 56)" stroke="none"></g><g transform="scale(0.05, 0.05)" fill="rgb(254, 254, 254)" stroke="none"></g></svg>