<svg version="1.0" xmlns="http://www.w3.org/2000/svg" width="300" height="300" viewBox="0 0 100 100">
<g transform="scale(0.05, 0.05)" fill="rgb(218, 188, 178)" stroke="none"><path d="M890 1780 c-76 -11 -101 -22 -140 -66 -82 -93 -110 -230 -110 -532 0 -162 -3 -197 -16 -218 -23 -35 -25 -180 -3 -214 10 -16 14 -38 12 -61 -6 -42 28 -89 76 -109 20 -8 32 -21 36 -40 3 -16 12 -33 19 -39 10 -9 7 -23 -15 -68 -15 -32 -30 -84 -34 -115 -6 -55 -5 -58 15 -58 20 0 22 4 16 34 -7 39 8 121 29 153 14 21 15 21 57 4 58 -23 125 -59 133 -71 3 -5 13 -10 22 -10 12 0 14 7 9 32 -6 32 14 68 38 68 6 0 35 -46 63 -103 29 -56 71 -126 93 -155 22 -29 40 -56 40 -61 0 -13 83 -29 187 -36 l92 -6 7 26 c10 42 -8 51 -111 59 -52 3 -100 9 -107 11 -12 5 -79 107 -144 219 -27 48 -27 50 -9 60 33 19 85 73 85 90 0 9 15 19 41 26 54 15 89 50 89 90 0 17 9 43 20 58 29 40 36 117 16 186 -9 31 -23 59 -31 63 -25 9 -20 208 6 302 27 96 22 144 -20 183 -17 16 -31 39 -31 51 -1 35 -44 132 -79 176 -20 25 -47 45 -74 55 -50 18 -201 26 -277 16zM1356 1416 c3 -19 2 -48 -4 -63 -8 -25 -10 -21 -13 35 -4 67 6 84 17 28zM759 1252 c0 -55 -2 -63 -10 -42 -12 30 -20 100 -13 112 14 22 24 -9 23 -70zM866 965 c7 -19 14 -58 14 -87 0 -58 15 -124 30 -133 19 -12 48 6 59 35 13 38 22 37 41 -3 21 -45 66 -45 95 0 25 40 30 41 44 3 15 -43 39 -49 68 -16 20 23 23 38 23 101 0 41 5 77 10 80 6 4 10 -26 10 -83 0 -64 4 -93 14 -101 10 -8 16 -8 24 1 14 18 40 104 47 163 6 40 9 46 17 31 6 -10 12 -44 15 -75 4 -45 1 -68 -16 -106 -11 -26 -21 -58 -21 -72 0 -33 -40 -70 -84 -78 -27 -6 -43 -2 -71 15 -41 25 -46 14 -9 -20 29 -28 26 -64 -8 -92 -39 -34 -60 -23 -101 52 -27 50 -44 70 -58 70 -32 0 -34 -29 -5 -88 l27 -55 -26 -21 c-14 -12 -29 -33 -33 -48 l-7 -28 -33 20 c-33 20 -33 22 -18 45 55 83 -37 195 -123 150 -17 -8 -31 -20 -31 -25 0 -16 -59 11 -80 37 -11 14 -20 36 -20 49 0 30 31 39 111 31 32 -3 57 -1 54 3 -9 14 -105 32 -139 26 -33 -6 -35 -5 -46 30 -14 42 -7 171 10 188 15 15 33 -7 50 -66 9 -28 23 -56 33 -62 28 -17 57 25 57 81 0 85 47 115 76 48z"></path><path d="M845 740 c2 -4 30 -15 62 -25 76 -23 169 -71 199 -100 13 -13 24 -36 24 -51 0 -20 4 -25 16 -20 9 3 18 6 20 6 2 0 4 10 4 23 0 28 -40 67 -98 97 -47 24 -235 82 -227 70z"></path></g><g transform="scale(0.05, 0.05)" fill="rgb(247, 247, 247)" stroke="none"><path d="M849 1771 c-66 -21 -104 -56 -145 -137 -38 -77 -53 -184 -60 -424 -4 -140 -11 -230 -20 -258 -18 -56 -18 -159 1 -196 8 -15 15 -48 15 -71 0 -36 5 -48 34 -73 19 -17 44 -33 55 -37 13 -4 21 -15 21 -27 0 -12 7 -29 16 -39 14 -16 14 -21 -4 -56 -39 -75 -58 -188 -32 -188 11 0 14 11 11 48 -3 49 12 106 37 144 13 21 16 21 35 8 12 -8 30 -15 40 -15 10 0 32 -10 50 -22 98 -67 99 -67 90 -13 -4 28 -1 36 21 50 15 10 28 16 30 14 2 -2 23 -42 46 -89 24 -47 61 -111 84 -144 22 -32 47 -69 54 -82 14 -26 55 -34 46 -9 -4 8 -10 12 -15 10 -16 -11 -102 121 -180 277 -44 87 -79 165 -79 173 0 35 28 10 64 -58 71 -133 209 -358 225 -366 9 -5 60 -12 114 -16 88 -7 97 -9 97 -28 0 -19 -4 -20 -107 -15 -71 4 -91 3 -58 -2 28 -5 78 -9 113 -9 62 -1 62 -1 62 28 0 29 0 29 -77 35 -143 13 -139 11 -192 90 -52 78 -125 206 -120 209 2 2 20 10 40 19 25 11 43 29 55 56 15 32 26 42 51 47 50 9 84 43 86 87 1 20 11 46 22 58 40 44 28 226 -16 237 -17 5 -19 15 -19 117 0 88 5 128 25 196 29 99 26 139 -15 173 -19 16 -31 40 -39 76 -24 111 -86 193 -164 216 -54 16 -251 20 -298 6zM1104 1740 c104 -17 163 -99 192 -270 21 -127 31 -551 15 -626 -20 -88 -35 -80 -29 17 6 95 4 109 -22 109 -29 0 -42 -25 -47 -92 -6 -86 -11 -108 -26 -108 -7 0 -18 14 -24 31 -9 24 -17 30 -35 27 -12 -2 -28 -14 -34 -27 -25 -50 -57 -48 -74 5 -15 45 -39 42 -63 -8 -30 -62 -43 -49 -51 49 -7 87 -26 151 -49 165 -47 30 -87 -11 -87 -88 0 -33 -5 -56 -15 -64 -17 -14 -17 -14 -35 58 -6 24 -20 51 -31 60 -17 15 -19 30 -19 182 1 317 45 497 136 556 47 31 186 43 298 24zM1359 1391 c0 -20 -4 -45 -9 -56 -8 -18 -9 -17 -9 6 -1 14 -4 48 -7 75 -5 46 -4 48 10 30 9 -11 16 -36 15 -55zM847 1002 c20 -13 34 -64 40 -150 7 -91 21 -119 52 -102 10 5 24 23 31 40 13 31 30 40 30 16 0 -8 10 -27 23 -42 29 -33 60 -27 82 17 20 38 32 37 49 -6 17 -39 30 -43 58 -18 14 13 18 31 18 93 0 51 5 82 15 96 17 22 17 21 15 -79 -2 -76 5 -107 24 -107 15 0 42 66 51 125 12 79 15 89 27 77 6 -6 13 -44 16 -85 4 -61 1 -80 -17 -115 -11 -23 -21 -52 -21 -64 0 -39 -30 -66 -86 -78 -30 -7 -42 -5 -62 11 -38 30 -49 23 -17 -11 25 -26 27 -34 19 -58 -9 -26 -69 -66 -85 -56 -5 2 -25 36 -46 74 -39 72 -51 81 -73 55 -11 -13 -10 -22 7 -53 37 -67 38 -79 4 -108 -17 -14 -31 -34 -31 -45 0 -24 -5 -24 -46 2 l-34 21 20 25 c11 14 20 37 20 50 0 32 -26 80 -49 93 -33 17 -86 12 -106 -10 -22 -24 -48 -19 -87 17 -73 68 -11 125 101 93 22 -6 31 -6 25 0 -14 14 -107 30 -134 23 -37 -10 -50 20 -50 110 0 122 34 158 65 70 31 -88 35 -95 52 -91 25 5 43 46 43 100 0 59 25 90 57 70zM884 579 c30 -35 32 -56 10 -87 -18 -26 -42 -28 -70 -7 -17 13 -17 14 -1 15 9 0 17 6 17 14 0 24 -20 30 -34 10 -17 -22 -36 -10 -36 23 0 65 70 84 114 32z"></path><path d="M722 1338 c-18 -18 -15 -62 10 -142 l21 -71 13 40 c7 22 12 63 12 90 0 54 -3 49 -14 -30 l-7 -50 -17 58 c-23 75 -14 117 18 85 7 -7 12 -8 12 -2 0 11 -20 34 -30 34 -3 0 -11 -5 -18 -12z"></path><path d="M962 1268 c-15 -15 -16 -38 -2 -38 6 0 10 6 10 14 0 16 19 25 38 19 6 -3 12 -11 12 -19 0 -8 5 -14 10 -14 14 0 13 23 -2 38 -7 7 -21 12 -33 12 -12 0 -26 -5 -33 -12z"></path><path d="M876 1174 c-19 -19 -20 -35 -3 -56 19 -24 43 -28 66 -12 23 17 28 53 9 72 -17 17 -54 15 -72 -4zM900 1120 c0 -5 -2 -10 -4 -10 -3 0 -8 5 -11 10 -3 6 -1 10 4 10 6 0 11 -4 11 -10z"></path><path d="M1068 1179 c-25 -14 -22 -55 4 -73 12 -9 26 -16 30 -16 11 0 48 38 48 50 0 14 -38 50 -52 50 -7 0 -21 -5 -30 -11zM1090 1119 c0 -14 -17 -10 -23 5 -4 10 -1 13 9 9 7 -3 14 -9 14 -14z"></path><path d="M873 1045 c29 -26 47 -32 47 -16 0 9 -56 41 -69 41 -3 0 7 -12 22 -25z"></path><path d="M1108 1053 c-16 -2 -28 -11 -28 -19 0 -20 24 -17 51 6 13 10 20 19 14 18 -5 0 -22 -3 -37 -5z"></path></g><g transform="scale(0.05, 0.05)" fill="rgb(233, 141, 184)" stroke="none"><path d="M849 1771 c-66 -21 -104 -56 -145 -137 -38 -77 -53 -184 -60 -424 -4 -140 -11 -230 -20 -258 -18 -56 -18 -159 1 -196 8 -15 15 -48 15 -71 0 -36 5 -48 34 -73 19 -17 44 -33 55 -37 13 -4 21 -15 21 -27 0 -12 7 -29 16 -39 14 -16 14 -21 -4 -56 -39 -75 -58 -188 -32 -188 11 0 14 11 11 48 -3 49 12 106 37 144 13 21 16 21 35 8 12 -8 30 -15 40 -15 10 0 32 -10 50 -22 98 -67 99 -67 90 -13 -4 28 -1 36 21 50 15 10 28 16 30 14 2 -2 23 -42 46 -89 24 -47 61 -111 84 -144 22 -32 47 -69 54 -82 14 -26 55 -34 46 -9 -4 8 -10 12 -15 10 -16 -11 -102 121 -180 277 -44 87 -79 165 -79 173 0 35 28 10 64 -58 71 -133 209 -358 225 -366 9 -5 60 -12 114 -16 88 -7 97 -9 97 -28 0 -19 -4 -20 -107 -15 -71 4 -91 3 -58 -2 28 -5 78 -9 113 -9 62 -1 62 -1 62 28 0 29 0 29 -77 35 -143 13 -139 11 -192 90 -52 78 -125 206 -120 209 2 2 20 10 40 19 25 11 43 29 55 56 15 32 26 42 51 47 50 9 84 43 86 87 1 20 11 46 22 58 40 44 28 226 -16 237 -17 5 -19 15 -19 117 0 88 5 128 25 196 29 99 26 139 -15 173 -19 16 -31 40 -39 76 -24 111 -86 193 -164 216 -54 16 -251 20 -298 6zM1104 1740 c104 -17 163 -99 192 -270 21 -127 31 -551 15 -626 -20 -88 -35 -80 -29 17 6 95 4 109 -22 109 -29 0 -42 -25 -47 -92 -6 -86 -11 -108 -26 -108 -7 0 -18 14 -24 31 -9 24 -17 30 -35 27 -12 -2 -28 -14 -34 -27 -25 -50 -57 -48 -74 5 -15 45 -39 42 -63 -8 -30 -62 -43 -49 -51 49 -7 87 -26 151 -49 165 -47 30 -87 -11 -87 -88 0 -33 -5 -56 -15 -64 -17 -14 -17 -14 -35 58 -6 24 -20 51 -31 60 -17 15 -19 30 -19 182 1 317 45 497 136 556 47 31 186 43 298 24zM1359 1391 c0 -20 -4 -45 -9 -56 -8 -18 -9 -17 -9 6 -1 14 -4 48 -7 75 -5 46 -4 48 10 30 9 -11 16 -36 15 -55zM847 1002 c20 -13 34 -64 40 -150 7 -91 21 -119 52 -102 10 5 24 23 31 40 13 31 30 40 30 16 0 -8 10 -27 23 -42 29 -33 60 -27 82 17 20 38 32 37 49 -6 17 -39 30 -43 58 -18 14 13 18 31 18 93 0 51 5 82 15 96 17 22 17 21 15 -79 -2 -76 5 -107 24 -107 15 0 42 66 51 125 12 79 15 89 27 77 6 -6 13 -44 16 -85 4 -61 1 -80 -17 -115 -11 -23 -21 -52 -21 -64 0 -39 -30 -66 -86 -78 -30 -7 -42 -5 -62 11 -38 30 -49 23 -17 -11 25 -26 27 -34 19 -58 -9 -26 -69 -66 -85 -56 -5 2 -25 36 -46 74 -39 72 -51 81 -73 55 -11 -13 -10 -22 7 -53 37 -67 38 -79 4 -108 -17 -14 -31 -34 -31 -45 0 -24 -5 -24 -46 2 l-34 21 20 25 c11 14 20 37 20 50 0 32 -26 80 -49 93 -33 17 -86 12 -106 -10 -22 -24 -48 -19 -87 17 -73 68 -11 125 101 93 22 -6 31 -6 25 0 -14 14 -107 30 -134 23 -37 -10 -50 20 -50 110 0 122 34 158 65 70 31 -88 35 -95 52 -91 25 5 43 46 43 100 0 59 25 90 57 70zM884 579 c30 -35 32 -56 10 -87 -18 -26 -42 -28 -70 -7 -17 13 -17 14 -1 15 9 0 17 6 17 14 0 24 -20 30 -34 10 -17 -22 -36 -10 -36 23 0 65 70 84 114 32z"></path><path d="M722 1338 c-18 -18 -15 -62 10 -142 l21 -71 13 40 c7 22 12 63 12 90 0 54 -3 49 -14 -30 l-7 -50 -17 58 c-23 75 -14 117 18 85 7 -7 12 -8 12 -2 0 11 -20 34 -30 34 -3 0 -11 -5 -18 -12z"></path><path d="M962 1268 c-15 -15 -16 -38 -2 -38 6 0 10 6 10 14 0 16 19 25 38 19 6 -3 12 -11 12 -19 0 -8 5 -14 10 -14 14 0 13 23 -2 38 -7 7 -21 12 -33 12 -12 0 -26 -5 -33 -12z"></path><path d="M876 1174 c-19 -19 -20 -35 -3 -56 19 -24 43 -28 66 -12 23 17 28 53 9 72 -17 17 -54 15 -72 -4zM900 1120 c0 -5 -2 -10 -4 -10 -3 0 -8 5 -11 10 -3 6 -1 10 4 10 6 0 11 -4 11 -10z"></path><path d="M1068 1179 c-25 -14 -22 -55 4 -73 12 -9 26 -16 30 -16 11 0 48 38 48 50 0 14 -38 50 -52 50 -7 0 -21 -5 -30 -11zM1090 1119 c0 -14 -17 -10 -23 5 -4 10 -1 13 9 9 7 -3 14 -9 14 -14z"></path><path d="M873 1045 c29 -26 47 -32 47 -16 0 9 -56 41 -69 41 -3 0 7 -12 22 -25z"></path><path d="M1108 1053 c-16 -2 -28 -11 -28 -19 0 -20 24 -17 51 6 13 10 20 19 14 18 -5 0 -22 -3 -37 -5z"></path></g><g transform="scale(0.05, 0.05)" fill="rgb(31, 24, 22)" stroke="none"><path d="M849 1771 c-66 -21 -104 -56 -145 -137 -38 -77 -53 -184 -60 -424 -4 -140 -11 -230 -20 -258 -18 -56 -18 -159 1 -196 8 -15 15 -48 15 -71 0 -36 5 -48 34 -73 19 -17 44 -33 55 -37 13 -4 21 -15 21 -27 0 -12 7 -29 16 -39 14 -16 14 -21 -4 -56 -39 -75 -58 -188 -32 -188 11 0 14 11 11 48 -3 49 12 106 37 144 13 21 16 21 35 8 12 -8 30 -15 40 -15 10 0 32 -10 50 -22 98 -67 99 -67 90 -13 -4 28 -1 36 21 50 15 10 28 16 30 14 2 -2 23 -42 46 -89 24 -47 61 -111 84 -144 22 -32 47 -69 54 -82 14 -26 55 -34 46 -9 -4 8 -10 12 -15 10 -16 -11 -102 121 -180 277 -44 87 -79 165 -79 173 0 35 28 10 64 -58 71 -133 209 -358 225 -366 9 -5 60 -12 114 -16 88 -7 97 -9 97 -28 0 -19 -4 -20 -107 -15 -71 4 -91 3 -58 -2 28 -5 78 -9 113 -9 62 -1 62 -1 62 28 0 29 0 29 -77 35 -143 13 -139 11 -192 90 -52 78 -125 206 -120 209 2 2 20 10 40 19 25 11 43 29 55 56 15 32 26 42 51 47 50 9 84 43 86 87 1 20 11 46 22 58 40 44 28 226 -16 237 -17 5 -19 15 -19 117 0 88 5 128 25 196 29 99 26 139 -15 173 -19 16 -31 40 -39 76 -24 111 -86 193 -164 216 -54 16 -251 20 -298 6zM1104 1740 c104 -17 163 -99 192 -270 21 -127 31 -551 15 -626 -20 -88 -35 -80 -29 17 6 95 4 109 -22 109 -29 0 -42 -25 -47 -92 -6 -86 -11 -108 -26 -108 -7 0 -18 14 -24 31 -9 24 -17 30 -35 27 -12 -2 -28 -14 -34 -27 -25 -50 -57 -48 -74 5 -15 45 -39 42 -63 -8 -30 -62 -43 -49 -51 49 -7 87 -26 151 -49 165 -47 30 -87 -11 -87 -88 0 -33 -5 -56 -15 -64 -17 -14 -17 -14 -35 58 -6 24 -20 51 -31 60 -17 15 -19 30 -19 182 1 317 45 497 136 556 47 31 186 43 298 24zM1359 1391 c0 -20 -4 -45 -9 -56 -8 -18 -9 -17 -9 6 -1 14 -4 48 -7 75 -5 46 -4 48 10 30 9 -11 16 -36 15 -55zM847 1002 c20 -13 34 -64 40 -150 7 -91 21 -119 52 -102 10 5 24 23 31 40 13 31 30 40 30 16 0 -8 10 -27 23 -42 29 -33 60 -27 82 17 20 38 32 37 49 -6 17 -39 30 -43 58 -18 14 13 18 31 18 93 0 51 5 82 15 96 17 22 17 21 15 -79 -2 -76 5 -107 24 -107 15 0 42 66 51 125 12 79 15 89 27 77 6 -6 13 -44 16 -85 4 -61 1 -80 -17 -115 -11 -23 -21 -52 -21 -64 0 -39 -30 -66 -86 -78 -30 -7 -42 -5 -62 11 -38 30 -49 23 -17 -11 25 -26 27 -34 19 -58 -9 -26 -69 -66 -85 -56 -5 2 -25 36 -46 74 -39 72 -51 81 -73 55 -11 -13 -10 -22 7 -53 37 -67 38 -79 4 -108 -17 -14 -31 -34 -31 -45 0 -24 -5 -24 -46 2 l-34 21 20 25 c11 14 20 37 20 50 0 32 -26 80 -49 93 -33 17 -86 12 -106 -10 -22 -24 -48 -19 -87 17 -73 68 -11 125 101 93 22 -6 31 -6 25 0 -14 14 -107 30 -134 23 -37 -10 -50 20 -50 110 0 122 34 158 65 70 31 -88 35 -95 52 -91 25 5 43 46 43 100 0 59 25 90 57 70zM884 579 c30 -35 32 -56 10 -87 -18 -26 -42 -28 -70 -7 -17 13 -17 14 -1 15 9 0 17 6 17 14 0 24 -20 30 -34 10 -17 -22 -36 -10 -36 23 0 65 70 84 114 32z"></path><path d="M722 1338 c-18 -18 -15 -62 10 -142 l21 -71 13 40 c7 22 12 63 12 90 0 54 -3 49 -14 -30 l-7 -50 -17 58 c-23 75 -14 117 18 85 7 -7 12 -8 12 -2 0 11 -20 34 -30 34 -3 0 -11 -5 -18 -12z"></path><path d="M962 1268 c-15 -15 -16 -38 -2 -38 6 0 10 6 10 14 0 16 19 25 38 19 6 -3 12 -11 12 -19 0 -8 5 -14 10 -14 14 0 13 23 -2 38 -7 7 -21 12 -33 12 -12 0 -26 -5 -33 -12z"></path><path d="M876 1174 c-19 -19 -20 -35 -3 -56 19 -24 43 -28 66 -12 23 17 28 53 9 72 -17 17 -54 15 -72 -4zM900 1120 c0 -5 -2 -10 -4 -10 -3 0 -8 5 -11 10 -3 6 -1 10 4 10 6 0 11 -4 11 -10z"></path><path d="M1068 1179 c-25 -14 -22 -55 4 -73 12 -9 26 -16 30 -16 11 0 48 38 48 50 0 14 -38 50 -52 50 -7 0 -21 -5 -30 -11zM1090 1119 c0 -14 -17 -10 -23 5 -4 10 -1 13 9 9 7 -3 14 -9 14 -14z"></path><path d="M873 1045 c29 -26 47 -32 47 -16 0 9 -56 41 -69 41 -3 0 7 -12 22 -25z"></path><path d="M1108 1053 c-16 -2 -28 -11 -28 -19 0 -20 24 -17 51 6 13 10 20 19 14 18 -5 0 -22 -3 -37 -5z"></path></g><g transform="scale(0.05, 0.05)" fill="rgb(197, 152, 102)" stroke="none"></g><g transform="scale(0.05, 0.05)" fill="rgb(255, 255, 255)" stroke="none"></g></svg>