<svg version="1.0" xmlns="http://www.w3.org/2000/svg" width="300" height="300" viewBox="0 0 100 100">
<g transform="scale(0.05, 0.05)" fill="rgb(219, 7, 40)" stroke="none"><path d="M280 1990 c-8 -5 -36 -10 -62 -10 -38 0 -52 -5 -77 -31 -17 -17 -31 -35 -31 -41 0 -5 14 -23 30 -40 19 -19 30 -40 30 -58 0 -16 5 -32 10 -35 6 -3 10 -19 10 -35 0 -15 10 -54 22 -85 17 -45 19 -61 10 -76 -6 -10 -9 -25 -6 -32 3 -9 -8 -23 -29 -36 -49 -30 -125 -126 -137 -172 -5 -21 -15 -56 -20 -78 -13 -49 -13 -116 0 -160 12 -43 90 -162 101 -156 10 7 23 -58 17 -83 -10 -35 20 -296 38 -342 21 -53 118 -215 147 -248 28 -30 62 -28 84 5 26 40 23 243 -6 377 -11 54 -21 104 -21 110 0 9 22 5 72 -12 66 -22 76 -23 135 -12 69 13 63 15 201 -76 42 -29 191 -83 265 -97 42 -8 57 -15 57 -27 0 -9 -40 -61 -89 -116 -91 -101 -111 -135 -91 -159 23 -28 234 -107 387 -146 303 -77 596 -117 635 -87 17 12 13 22 -47 143 -36 72 -79 166 -96 210 -17 44 -35 85 -40 91 -5 7 -38 9 -88 6 -95 -5 -303 15 -312 30 -7 10 80 134 105 150 6 4 27 8 46 9 27 2 29 3 10 6 -14 2 -30 14 -35 25 -8 16 -26 25 -73 34 -62 13 -92 27 -92 45 0 5 23 34 51 65 27 30 49 63 47 72 -2 12 -22 21 -66 30 -70 15 -81 36 -37 70 14 11 25 24 25 30 0 11 -61 67 -100 93 -24 17 -25 18 -9 45 17 29 38 45 122 95 59 35 99 90 101 136 1 33 -3 39 -34 55 -19 9 -53 17 -75 18 -53 0 -85 10 -85 24 0 7 -15 34 -34 60 -19 27 -37 63 -40 80 -4 18 -19 45 -35 60 -27 25 -34 28 -88 24 -32 -3 -94 -1 -138 5 -77 9 -82 11 -132 59 -48 44 -56 48 -91 44 -91 -11 -114 -18 -124 -42 -6 -13 -19 -24 -30 -24 -13 0 -18 -7 -18 -25 0 -14 -3 -25 -8 -25 -10 0 -48 44 -92 106 -32 45 -141 164 -151 164 -2 0 -11 -5 -19 -10zM357 1913 c27 -27 77 -89 111 -139 l61 -92 -50 -30 c-27 -17 -49 -36 -49 -42 0 -12 10 -8 55 26 35 26 100 54 125 54 16 0 27 -22 76 -153 6 -16 19 -34 30 -40 10 -5 34 -23 51 -40 32 -30 32 -31 13 -44 -25 -17 -27 -87 -5 -140 8 -19 15 -36 15 -37 0 -2 -13 -1 -29 2 -23 3 -33 -2 -46 -22 -23 -35 -23 -101 0 -126 25 -27 50 -25 75 7 17 22 21 38 18 75 -2 37 0 47 10 43 8 -3 20 -5 29 -5 22 0 9 -70 -28 -146 -34 -73 -90 -126 -168 -163 -50 -23 -68 -26 -166 -26 -128 0 -158 6 -173 37 -6 13 -11 17 -11 10 -1 -7 6 -26 14 -42 22 -43 71 -244 79 -322 l7 -68 -33 6 c-18 3 -53 16 -78 28 -39 19 -47 29 -64 76 -28 83 -45 195 -46 294 0 82 -2 89 -25 108 -76 60 -110 241 -65 346 46 107 193 201 320 204 17 1 34 6 37 11 5 9 -25 8 -122 -5 -15 -2 -26 12 -52 74 -19 42 -43 114 -54 160 -12 46 -30 92 -40 104 -23 24 -25 38 -4 30 9 -3 15 0 15 9 0 9 15 15 48 18 26 2 52 4 59 5 6 1 34 -19 60 -45zM969 1576 c11 -31 21 -80 21 -109 0 -37 3 -48 10 -37 24 38 -20 183 -77 251 -14 16 -23 33 -20 36 10 10 129 -17 183 -42 186 -83 256 -295 151 -452 -33 -49 -93 -96 -137 -108 l-25 -7 22 23 c28 30 56 97 49 115 -9 24 -32 15 -72 -27 -60 -62 -128 -109 -159 -109 -28 0 -27 1 22 53 112 118 106 186 -9 111 -21 -13 -40 -24 -43 -24 -3 0 -5 14 -5 31 0 47 -57 145 -116 197 -54 49 -90 110 -118 202 -9 30 -21 62 -25 70 -14 26 12 49 75 64 l59 14 96 -98 c77 -78 101 -109 118 -154zM1146 1704 c-3 -9 -6 -18 -6 -20 0 -2 -7 -4 -15 -4 -18 0 -19 12 -3 28 17 17 31 15 24 -4zM1097 1704 c-3 -3 -12 -4 -19 -1 -8 3 -5 6 6 6 11 1 17 -2 13 -5zM1185 1669 c4 -11 4 -23 1 -26 -8 -9 -36 17 -36 33 0 22 28 16 35 -7zM1394 1461 c3 -5 -4 -11 -16 -14 -12 -4 -20 -9 -17 -12 3 -3 20 0 37 6 51 18 57 5 12 -25 -23 -15 -39 -30 -36 -34 4 -3 20 4 36 16 34 26 40 27 40 8 0 -25 -145 -142 -153 -124 -1 2 -1 42 1 90 4 93 4 94 64 97 15 0 29 -3 32 -8zM765 1119 c0 -15 -7 -25 -17 -27 -13 -3 -18 3 -18 21 0 13 3 27 7 31 13 12 28 -1 28 -25zM1135 1059 c4 -5 -1 -19 -10 -29 -12 -13 -13 -19 -4 -22 15 -5 -52 -58 -78 -62 -31 -5 -21 -40 16 -58 49 -24 57 -34 41 -53 -15 -18 -61 -15 -105 8 -16 9 -61 31 -100 51 -38 19 -69 40 -67 46 1 6 4 28 6 48 6 69 10 73 85 66 36 -3 86 -1 111 4 63 14 98 14 105 1zM1336 925 c31 -8 59 -17 61 -19 2 -2 -27 -39 -66 -82 -79 -88 -80 -84 27 -103 126 -24 124 -16 37 -132 -42 -55 -75 -102 -73 -105 7 -7 228 -23 338 -25 l105 -2 27 -76 c16 -42 53 -126 83 -187 30 -61 55 -114 55 -118 0 -14 -261 19 -428 55 -197 42 -446 127 -499 170 -10 9 4 30 65 101 42 49 98 115 124 146 l47 56 -22 21 c-26 26 -107 122 -107 127 0 2 32 30 70 62 39 33 68 61 65 64 -4 4 25 62 32 62 1 0 28 -7 59 -15zM854 886 c49 -25 97 -53 108 -63 33 -30 58 -89 58 -139 l0 -47 -37 6 c-68 11 -218 95 -290 161 l-67 63 55 30 c29 17 61 31 70 32 9 0 55 -19 103 -43zM385 847 c17 -13 17 -14 -4 -20 -15 -3 -24 1 -31 14 -13 23 6 26 35 6zM1184 570 c-10 -16 -20 -27 -22 -25 -5 5 26 55 34 55 3 0 -3 -13 -12 -30z"></path><path d="M520 1570 c0 -5 14 -10 31 -10 17 0 28 4 24 10 -3 6 -17 10 -31 10 -13 0 -24 -4 -24 -10z"></path><path d="M169 1442 c-23 -21 -32 -39 -36 -73 -10 -89 48 -144 127 -120 55 16 80 52 80 113 0 41 -5 54 -29 79 -40 40 -98 41 -142 1z"></path><path d="M550 1440 c-10 -10 -26 -44 -35 -75 -10 -32 -22 -55 -30 -55 -16 0 -30 -18 -21 -27 3 -3 12 0 20 6 11 9 29 8 80 -6 54 -14 71 -15 86 -5 11 7 30 12 42 12 20 1 21 2 7 13 -8 7 -26 34 -39 60 -26 53 -63 97 -80 97 -5 0 -19 -9 -30 -20z"></path><path d="M312 1253 c-17 -7 -42 -57 -42 -86 0 -90 142 -116 170 -31 21 63 -18 125 -79 123 -20 0 -42 -3 -49 -6zM389 1156 c16 -19 -2 -55 -26 -52 -26 4 -39 31 -24 50 17 20 35 20 50 2z"></path><path d="M625 1240 c3 -5 8 -10 11 -10 2 0 4 5 4 10 0 6 -5 10 -11 10 -5 0 -7 -4 -4 -10z"></path><path d="M25 1700 c-8 -13 5 -13 25 0 13 8 13 10 -2 10 -9 0 -20 -4 -23 -10z"></path><path d="M1220 1660 c0 -13 18 -22 24 -11 3 5 -1 11 -9 15 -8 3 -15 1 -15 -4z"></path></g><g transform="scale(0.05, 0.05)" fill="rgb(179, 170, 149)" stroke="none"><path d="M280 1990 c-8 -5 -36 -10 -62 -10 -38 0 -52 -5 -77 -31 -17 -17 -31 -35 -31 -41 0 -5 14 -23 30 -40 19 -19 30 -40 30 -58 0 -16 5 -32 10 -35 6 -3 10 -19 10 -35 0 -15 10 -54 22 -85 17 -45 19 -61 10 -76 -6 -10 -9 -25 -6 -32 3 -9 -8 -23 -29 -36 -49 -30 -125 -126 -137 -172 -5 -21 -15 -56 -20 -78 -13 -49 -13 -116 0 -160 12 -43 90 -162 101 -156 10 7 23 -58 17 -83 -10 -35 20 -296 38 -342 21 -53 118 -215 147 -248 28 -30 62 -28 84 5 26 40 23 243 -6 377 -11 54 -21 104 -21 110 0 9 22 5 72 -12 66 -22 76 -23 135 -12 69 13 63 15 201 -76 42 -29 191 -83 265 -97 42 -8 57 -15 57 -27 0 -9 -40 -61 -89 -116 -91 -101 -111 -135 -91 -159 23 -28 234 -107 387 -146 303 -77 596 -117 635 -87 17 12 13 22 -47 143 -36 72 -79 166 -96 210 -17 44 -35 85 -40 91 -5 7 -38 9 -88 6 -95 -5 -303 15 -312 30 -7 10 80 134 105 150 6 4 27 8 46 9 27 2 29 3 10 6 -14 2 -30 14 -35 25 -8 16 -26 25 -73 34 -62 13 -92 27 -92 45 0 5 23 34 51 65 27 30 49 63 47 72 -2 12 -22 21 -66 30 -70 15 -81 36 -37 70 14 11 25 24 25 30 0 11 -61 67 -100 93 -24 17 -25 18 -9 45 17 29 38 45 122 95 59 35 99 90 101 136 1 33 -3 39 -34 55 -19 9 -53 17 -75 18 -53 0 -85 10 -85 24 0 7 -15 34 -34 60 -19 27 -37 63 -40 80 -4 18 -19 45 -35 60 -27 25 -34 28 -88 24 -32 -3 -94 -1 -138 5 -77 9 -82 11 -132 59 -48 44 -56 48 -91 44 -91 -11 -114 -18 -124 -42 -6 -13 -19 -24 -30 -24 -13 0 -18 -7 -18 -25 0 -14 -3 -25 -8 -25 -10 0 -48 44 -92 106 -32 45 -141 164 -151 164 -2 0 -11 -5 -19 -10zM357 1913 c27 -27 77 -89 111 -139 l61 -92 -50 -30 c-27 -17 -49 -36 -49 -42 0 -12 10 -8 55 26 35 26 100 54 125 54 16 0 27 -22 76 -153 6 -16 19 -34 30 -40 10 -5 34 -23 51 -40 32 -30 32 -31 13 -44 -25 -17 -27 -87 -5 -140 8 -19 15 -36 15 -37 0 -2 -13 -1 -29 2 -23 3 -33 -2 -46 -22 -23 -35 -23 -101 0 -126 25 -27 50 -25 75 7 17 22 21 38 18 75 -2 37 0 47 10 43 8 -3 20 -5 29 -5 22 0 9 -70 -28 -146 -34 -73 -90 -126 -168 -163 -50 -23 -68 -26 -166 -26 -128 0 -158 6 -173 37 -6 13 -11 17 -11 10 -1 -7 6 -26 14 -42 22 -43 71 -244 79 -322 l7 -68 -33 6 c-18 3 -53 16 -78 28 -39 19 -47 29 -64 76 -28 83 -45 195 -46 294 0 82 -2 89 -25 108 -76 60 -110 241 -65 346 46 107 193 201 320 204 17 1 34 6 37 11 5 9 -25 8 -122 -5 -15 -2 -26 12 -52 74 -19 42 -43 114 -54 160 -12 46 -30 92 -40 104 -23 24 -25 38 -4 30 9 -3 15 0 15 9 0 9 15 15 48 18 26 2 52 4 59 5 6 1 34 -19 60 -45zM969 1576 c11 -31 21 -80 21 -109 0 -37 3 -48 10 -37 24 38 -20 183 -77 251 -14 16 -23 33 -20 36 10 10 129 -17 183 -42 186 -83 256 -295 151 -452 -33 -49 -93 -96 -137 -108 l-25 -7 22 23 c28 30 56 97 49 115 -9 24 -32 15 -72 -27 -60 -62 -128 -109 -159 -109 -28 0 -27 1 22 53 112 118 106 186 -9 111 -21 -13 -40 -24 -43 -24 -3 0 -5 14 -5 31 0 47 -57 145 -116 197 -54 49 -90 110 -118 202 -9 30 -21 62 -25 70 -14 26 12 49 75 64 l59 14 96 -98 c77 -78 101 -109 118 -154zM1146 1704 c-3 -9 -6 -18 -6 -20 0 -2 -7 -4 -15 -4 -18 0 -19 12 -3 28 17 17 31 15 24 -4zM1097 1704 c-3 -3 -12 -4 -19 -1 -8 3 -5 6 6 6 11 1 17 -2 13 -5zM1185 1669 c4 -11 4 -23 1 -26 -8 -9 -36 17 -36 33 0 22 28 16 35 -7zM1394 1461 c3 -5 -4 -11 -16 -14 -12 -4 -20 -9 -17 -12 3 -3 20 0 37 6 51 18 57 5 12 -25 -23 -15 -39 -30 -36 -34 4 -3 20 4 36 16 34 26 40 27 40 8 0 -25 -145 -142 -153 -124 -1 2 -1 42 1 90 4 93 4 94 64 97 15 0 29 -3 32 -8zM834 1363 c22 -46 32 -128 17 -137 -17 -11 -47 11 -65 48 -16 34 -22 107 -9 119 16 17 41 4 57 -30zM765 1119 c0 -15 -7 -25 -17 -27 -13 -3 -18 3 -18 21 0 13 3 27 7 31 13 12 28 -1 28 -25zM1135 1059 c4 -5 -1 -19 -10 -29 -12 -13 -13 -19 -4 -22 15 -5 -52 -58 -78 -62 -31 -5 -21 -40 16 -58 49 -24 57 -34 41 -53 -15 -18 -61 -15 -105 8 -16 9 -61 31 -100 51 -38 19 -69 40 -67 46 1 6 4 28 6 48 6 69 10 73 85 66 36 -3 86 -1 111 4 63 14 98 14 105 1zM1336 925 c31 -8 59 -17 61 -19 2 -2 -27 -39 -66 -82 -79 -88 -80 -84 27 -103 126 -24 124 -16 37 -132 -42 -55 -75 -102 -73 -105 7 -7 228 -23 338 -25 l105 -2 27 -76 c16 -42 53 -126 83 -187 30 -61 55 -114 55 -118 0 -14 -261 19 -428 55 -197 42 -446 127 -499 170 -10 9 4 30 65 101 42 49 98 115 124 146 l47 56 -22 21 c-26 26 -107 122 -107 127 0 2 32 30 70 62 39 33 68 61 65 64 -4 4 25 62 32 62 1 0 28 -7 59 -15zM854 886 c49 -25 97 -53 108 -63 33 -30 58 -89 58 -139 l0 -47 -37 6 c-68 11 -218 95 -290 161 l-67 63 55 30 c29 17 61 31 70 32 9 0 55 -19 103 -43zM385 847 c17 -13 17 -14 -4 -20 -15 -3 -24 1 -31 14 -13 23 6 26 35 6zM1184 570 c-10 -16 -20 -27 -22 -25 -5 5 26 55 34 55 3 0 -3 -13 -12 -30z"></path><path d="M520 1570 c0 -5 14 -10 31 -10 17 0 28 4 24 10 -3 6 -17 10 -31 10 -13 0 -24 -4 -24 -10z"></path><path d="M169 1442 c-23 -21 -32 -39 -36 -73 -10 -89 48 -144 127 -120 55 16 80 52 80 113 0 41 -5 54 -29 79 -40 40 -98 41 -142 1zM310 1422 c28 -34 26 -94 -2 -127 -72 -81 -188 -21 -162 83 7 29 18 41 51 58 50 26 86 21 113 -14z"></path><path d="M550 1440 c-10 -10 -26 -44 -35 -75 -10 -32 -22 -55 -30 -55 -16 0 -30 -18 -21 -27 3 -3 12 0 20 6 11 9 29 8 80 -6 54 -14 71 -15 86 -5 11 7 30 12 42 12 20 1 21 2 7 13 -8 7 -26 34 -39 60 -26 53 -63 97 -80 97 -5 0 -19 -9 -30 -20zM610 1425 c17 -20 6 -43 -25 -51 -37 -9 -52 9 -35 41 15 28 41 33 60 10zM656 1344 c17 -41 9 -54 -35 -54 -91 0 -140 59 -56 68 17 2 34 8 40 13 18 18 36 8 51 -27z"></path><path d="M312 1253 c-17 -7 -42 -57 -42 -86 0 -90 142 -116 170 -31 21 63 -18 125 -79 123 -20 0 -42 -3 -49 -6zM389 1156 c16 -19 -2 -55 -26 -52 -26 4 -39 31 -24 50 17 20 35 20 50 2z"></path><path d="M625 1240 c3 -5 8 -10 11 -10 2 0 4 5 4 10 0 6 -5 10 -11 10 -5 0 -7 -4 -4 -10z"></path><path d="M25 1700 c-8 -13 5 -13 25 0 13 8 13 10 -2 10 -9 0 -20 -4 -23 -10z"></path><path d="M1220 1660 c0 -13 18 -22 24 -11 3 5 -1 11 -9 15 -8 3 -15 1 -15 -4z"></path></g><g transform="scale(0.05, 0.05)" fill="rgb(126, 102, 55)" stroke="none"><path d="M260 1980 c-14 -4 -41 -9 -60 -9 -41 -2 -64 -17 -74 -49 -8 -25 16 -62 39 -62 8 0 14 -22 17 -57 3 -32 18 -93 32 -137 25 -72 25 -80 11 -96 -13 -14 -13 -19 -3 -23 9 -3 5 -10 -12 -23 -14 -10 -49 -42 -79 -71 -68 -68 -89 -123 -97 -251 -6 -86 -4 -102 14 -137 28 -56 70 -109 89 -116 14 -5 17 -26 18 -135 1 -71 8 -151 15 -179 6 -27 14 -66 16 -85 3 -19 28 -75 56 -125 89 -157 95 -165 127 -165 16 0 34 6 40 14 9 11 6 13 -16 9 l-28 -3 25 10 c37 16 40 26 40 131 0 81 -14 185 -46 336 l-6 32 58 -24 c63 -26 127 -31 186 -15 35 10 40 8 119 -44 105 -70 334 -155 375 -139 47 18 -46 -121 -135 -201 -27 -25 -51 -73 -45 -90 8 -20 182 -94 299 -127 214 -62 433 -103 646 -124 50 -5 68 -3 77 8 10 12 -4 15 -91 20 -192 11 -448 60 -635 122 -89 30 -272 115 -272 127 0 4 28 -8 63 -26 187 -102 552 -193 846 -212 l100 -7 -73 149 c-40 82 -81 172 -90 199 -26 78 -26 79 -98 76 -103 -4 -317 11 -333 23 -13 9 -6 23 45 91 39 52 66 79 78 78 9 -1 12 0 6 3 -7 3 -10 13 -7 24 4 15 -2 20 -34 25 -89 16 -114 26 -124 51 -11 31 -5 42 27 54 14 6 27 18 31 27 4 10 10 20 13 23 4 3 10 15 14 27 6 19 2 23 -36 33 -61 15 -88 28 -88 41 0 8 -5 8 -17 -1 -10 -7 -7 -2 7 12 56 55 64 67 50 83 -18 21 -36 19 -19 -2 8 -11 -1 -7 -21 8 -19 14 -50 36 -67 49 -18 13 -31 26 -28 28 2 3 25 -12 50 -33 25 -20 48 -35 51 -33 2 3 -16 22 -42 43 -44 36 -45 39 -28 52 11 8 18 18 17 23 -1 4 28 24 66 44 67 35 135 94 137 118 0 7 4 21 8 30 21 47 -22 79 -116 86 l-57 4 -31 54 c-17 30 -34 54 -38 54 -5 0 -14 22 -21 49 -20 80 -30 84 -193 87 -104 2 -145 6 -153 16 -5 7 -31 32 -56 55 -44 39 -49 41 -85 33 -21 -5 -41 -7 -45 -4 -19 12 -102 -56 -114 -94 l-7 -24 -30 29 c-17 15 -47 53 -68 83 -45 65 -137 160 -153 159 -7 -1 -23 -5 -37 -9zM347 1925 c23 -19 73 -81 112 -139 l70 -103 -49 -31 c-28 -17 -50 -36 -50 -42 0 -6 20 3 44 19 34 24 134 71 150 71 1 0 8 -18 15 -40 24 -82 59 -140 110 -186 50 -45 51 -47 31 -61 -26 -19 -27 -94 -2 -145 l19 -36 -33 5 c-27 4 -35 1 -49 -21 -22 -34 -23 -87 -2 -120 38 -58 101 -7 95 76 -2 37 0 47 10 43 8 -3 20 -5 29 -5 22 0 9 -70 -28 -146 -34 -73 -90 -126 -168 -163 -50 -23 -68 -26 -166 -26 -127 0 -161 7 -170 36 -4 11 -9 18 -12 15 -3 -2 7 -34 22 -71 29 -73 59 -205 69 -302 l7 -63 -33 6 c-18 3 -53 16 -78 28 -39 19 -47 29 -64 76 -28 83 -45 195 -46 294 0 84 -1 89 -27 110 -15 11 -31 20 -35 19 -19 -6 -79 120 -64 134 3 4 6 0 6 -8 0 -20 49 -123 56 -116 3 3 -5 25 -17 49 -35 66 -39 197 -9 266 25 58 92 124 165 166 40 22 139 44 172 38 6 -2 15 3 19 9 7 11 -16 11 -121 -3 -15 -2 -26 12 -52 74 -19 42 -43 114 -54 160 -22 87 -41 120 -65 111 -8 -3 -14 0 -14 7 0 6 5 8 10 5 6 -3 10 -1 10 5 0 7 7 10 15 6 9 -3 15 0 15 9 0 9 14 15 43 18 23 2 49 4 58 5 8 1 34 -14 56 -33zM857 1730 c52 -51 90 -84 85 -73 -6 11 -18 25 -26 33 -44 36 3 39 115 8 181 -49 285 -206 249 -376 -20 -91 -101 -185 -180 -207 l-25 -7 22 23 c28 30 56 97 49 115 -3 8 -12 14 -19 14 -20 0 -88 -71 -80 -84 3 -6 3 -8 -2 -4 -4 4 -29 -8 -55 -27 -32 -23 -59 -35 -81 -35 l-33 0 41 35 c22 19 55 57 73 85 52 81 25 100 -62 44 -21 -13 -40 -24 -43 -24 -3 0 -5 14 -5 31 0 47 -57 145 -116 197 -54 49 -90 110 -118 202 -9 30 -21 63 -27 73 -7 12 -6 22 3 30 16 16 49 31 65 28 6 -1 14 2 17 7 2 4 17 7 31 7 20 -1 53 -27 122 -95zM246 1642 c-6 -5 -46 120 -45 137 0 9 11 -18 24 -59 13 -41 22 -76 21 -78zM1100 1710 c0 -5 -8 -10 -17 -10 -15 0 -16 2 -3 10 19 12 20 12 20 0zM1146 1704 c-3 -9 -6 -18 -6 -20 0 -2 -7 -4 -15 -4 -18 0 -19 12 -3 28 17 17 31 15 24 -4zM1190 1653 c0 -7 -4 -13 -9 -13 -16 0 -33 30 -26 47 6 17 7 17 21 -1 8 -11 14 -26 14 -33zM285 1560 c3 -5 1 -10 -4 -10 -6 0 -11 5 -11 10 0 6 2 10 4 10 3 0 8 -4 11 -10zM1410 1465 c0 -3 -12 -10 -26 -16 -15 -5 -24 -12 -21 -15 3 -3 18 1 34 8 15 8 36 13 46 10 14 -3 7 -11 -29 -33 -25 -17 -44 -33 -41 -36 4 -3 20 6 37 21 36 30 55 34 45 9 -4 -10 -8 -27 -11 -37 -5 -25 -35 -56 -76 -80 l-33 -19 35 31 c19 17 38 31 42 32 4 0 13 10 19 23 9 16 1 12 -29 -15 -34 -30 -91 -68 -104 -68 -9 0 6 176 16 182 13 9 96 11 96 3zM834 1363 c22 -46 32 -128 17 -137 -17 -11 -47 11 -65 48 -16 34 -22 107 -9 119 16 17 41 4 57 -30zM1325 1271 c-6 -5 -21 -12 -35 -15 l-25 -7 25 15 c28 17 50 21 35 7zM778 1124 c4 -29 -23 -51 -43 -34 -18 15 -19 32 -3 48 18 18 42 10 46 -14zM1202 1066 c7 -15 1 -12 -23 11 -25 24 -38 30 -49 23 -8 -5 -24 -10 -35 -9 -13 0 -7 5 15 13 40 14 72 0 92 -38zM887 1094 c-3 -3 -12 -4 -19 -1 -8 3 -5 6 6 6 11 1 17 -2 13 -5zM958 1083 c-10 -2 -28 -2 -40 0 -13 2 -5 4 17 4 22 1 32 -1 23 -4zM1058 1083 c-10 -2 -26 -2 -35 0 -10 3 -2 5 17 5 19 0 27 -2 18 -5zM1124 1074 c18 -7 22 -39 6 -49 -6 -4 -8 -10 -5 -15 7 -12 -63 -70 -85 -70 -11 0 -20 -2 -20 -4 0 -19 17 -37 45 -46 63 -21 54 -88 -9 -74 -17 4 -40 13 -51 20 -11 8 -24 14 -30 14 -5 0 -45 18 -88 41 -61 32 -76 44 -67 54 6 7 10 32 8 55 -3 56 15 69 79 60 44 -7 170 4 182 15 6 7 16 6 35 -1zM1186 1021 c-4 -5 -21 -20 -39 -32 l-32 -22 35 35 c33 33 50 42 36 19zM141 993 c13 -16 12 -17 -3 -4 -10 7 -18 15 -18 17 0 8 8 3 21 -13zM1350 928 c19 -5 41 -11 48 -14 9 -2 -2 -20 -31 -51 -24 -27 -58 -64 -75 -83 l-30 -36 96 -18 c54 -10 102 -21 109 -23 6 -3 -22 -48 -68 -108 -43 -57 -79 -106 -79 -110 0 -3 6 -5 13 -4 6 2 55 -1 107 -5 52 -4 147 -9 210 -10 l115 -2 41 -100 c22 -54 62 -141 87 -191 26 -51 47 -95 47 -99 0 -13 -275 22 -438 57 -208 44 -483 141 -506 178 -4 6 13 32 37 58 24 27 80 90 124 142 l80 95 -28 30 c-92 103 -110 126 -101 126 5 0 39 26 74 58 45 41 64 65 63 80 -1 13 4 22 13 22 8 0 12 6 8 15 -6 16 7 15 84 -7zM879 877 c107 -54 131 -85 139 -172 5 -63 4 -65 -19 -65 -32 0 -164 59 -224 99 -26 17 -50 30 -52 27 -3 -2 14 -17 36 -32 38 -24 58 -45 29 -28 -35 20 -78 56 -74 63 5 8 -77 93 -85 89 -19 -11 34 28 70 51 51 33 49 34 180 -32zM1195 890 c34 -13 32 -17 -11 -22 -32 -4 -34 -3 -18 9 17 12 17 13 -2 13 -10 0 -26 5 -34 11 -12 8 -9 9 12 5 15 -4 39 -11 53 -16zM385 830 c-13 -5 -24 -3 -32 8 -22 27 -14 33 19 16 30 -15 31 -18 13 -24zM670 805 c19 -19 32 -35 29 -35 -3 0 -20 16 -39 35 -19 19 -32 35 -29 35 3 0 20 -16 39 -35zM1045 780 c3 -5 2 -10 -4 -10 -5 0 -13 5 -16 10 -3 6 -2 10 4 10 5 0 13 -4 16 -10zM1110 725 c13 -14 21 -25 18 -25 -2 0 -15 11 -28 25 -13 14 -21 25 -18 25 2 0 15 -11 28 -25zM876 662 c-5 -4 -66 26 -66 33 0 3 16 -3 35 -12 19 -9 33 -18 31 -21zM209 590 c0 -9 -4 -8 -9 5 -5 11 -9 27 -9 35 0 9 4 8 9 -5 5 -11 9 -27 9 -35zM1103 600 c5 -4 -15 -3 -45 2 -29 5 -55 12 -58 15 -8 8 94 -9 103 -17zM1200 595 c0 -8 -14 -29 -31 -47 l-30 -33 16 34 c14 28 15 35 3 43 -10 8 -9 9 4 4 10 -3 20 -1 23 4 9 14 15 12 15 -5zM266 452 c18 -39 45 -89 61 -110 27 -37 27 -37 2 -14 -25 22 -102 172 -113 222 l-6 25 11 -25 c7 -14 27 -58 45 -98z"></path><path d="M520 1570 c0 -5 14 -10 31 -10 17 0 28 4 24 10 -3 6 -17 10 -31 10 -13 0 -24 -4 -24 -10z"></path><path d="M169 1442 c-81 -72 -20 -219 82 -197 35 8 79 42 79 61 0 10 -8 7 -22 -11 -69 -78 -183 -24 -164 78 9 50 48 82 98 81 51 -2 79 -29 89 -86 l6 -43 2 43 c2 92 -100 136 -170 74z"></path><path d="M550 1440 c-10 -10 -26 -44 -35 -75 -10 -32 -22 -55 -30 -55 -15 0 -30 -18 -22 -26 3 -3 14 0 25 7 15 10 28 9 67 -5 60 -20 79 -20 110 0 13 9 30 13 37 9 7 -4 6 -1 -3 7 -8 7 -26 35 -39 61 -26 53 -63 97 -80 97 -5 0 -19 -9 -30 -20zM608 1428 c20 -20 13 -38 -20 -53 -27 -12 -29 -14 -11 -15 12 0 25 5 28 10 13 21 37 9 51 -26 13 -30 13 -38 2 -45 -18 -12 -54 -11 -100 3 -35 10 -39 14 -33 37 4 14 11 28 16 29 5 2 6 8 3 14 -9 15 17 58 36 58 9 0 21 -5 28 -12z"></path><path d="M312 1253 c-17 -7 -42 -57 -42 -85 0 -36 40 -78 81 -84 31 -5 39 -2 68 31 27 31 32 43 27 68 -10 47 -43 77 -85 76 -20 0 -42 -3 -49 -6zM398 1141 c5 -32 -23 -54 -49 -40 -19 10 -26 49 -12 63 4 4 19 6 33 4 18 -2 26 -10 28 -27z"></path><path d="M625 1240 c3 -5 8 -10 11 -10 2 0 4 5 4 10 0 6 -5 10 -11 10 -5 0 -7 -4 -4 -10z"></path><path d="M961 1614 c-1 -6 6 -31 14 -54 8 -23 15 -66 15 -94 0 -37 3 -47 10 -36 13 20 1 105 -21 155 -10 22 -18 35 -18 29z"></path></g><g transform="scale(0.05, 0.05)" fill="rgb(50, 29, 26)" stroke="none"><path d="M275 1980 c-3 -5 -28 -10 -54 -10 -32 0 -56 -6 -71 -18 -20 -16 -21 -19 -5 -32 9 -7 15 -9 13 -3 -2 6 1 11 6 11 5 0 12 4 15 9 3 6 33 15 65 21 56 11 61 11 83 -10 13 -12 23 -17 23 -11 0 13 -43 53 -58 53 -6 0 -14 -4 -17 -10z"></path><path d="M385 1893 c33 -36 145 -199 145 -212 0 -12 93 24 98 38 2 7 -2 18 -9 27 -17 21 5 60 40 69 78 20 104 17 146 -22 30 -28 28 -25 -6 9 l-46 47 -64 -15 c-85 -19 -89 -21 -89 -39 0 -8 -5 -15 -10 -15 -6 0 -16 -12 -22 -26 -10 -21 -9 -27 3 -36 11 -7 9 -9 -8 -5 -17 4 -20 1 -15 -12 5 -14 3 -14 -11 -3 -9 8 -15 18 -14 22 1 5 -10 24 -25 42 -15 18 -47 61 -72 96 -25 34 -51 62 -56 62 -6 0 1 -12 15 -27zM610 1745 c14 -16 10 -18 -14 -9 -9 3 -16 10 -16 15 0 14 16 11 30 -6z"></path><path d="M150 1885 c13 -14 26 -25 28 -25 3 0 -5 11 -18 25 -13 14 -26 25 -28 25 -3 0 5 -11 18 -25z"></path><path d="M864 1731 c3 -5 14 -7 24 -4 10 2 51 -3 91 -11 50 -11 79 -12 92 -6 22 13 42 13 35 1 -4 -5 5 -4 18 2 37 18 23 24 -41 17 -32 -4 -74 -3 -93 1 -48 11 -132 11 -126 0z"></path><path d="M211 1703 c-1 -19 39 -122 50 -128 8 -5 -6 34 -41 120 -5 11 -9 15 -9 8z"></path><path d="M286 1566 c5 -21 4 -27 -5 -22 -20 13 -119 -55 -167 -113 -55 -66 -79 -140 -68 -208 l8 -48 7 72 c12 121 75 209 196 271 51 26 51 28 37 52 l-14 25 6 -29z"></path><path d="M1235 1566 c10 -14 19 -26 22 -26 7 0 -17 39 -28 46 -6 3 -3 -5 6 -20z"></path><path d="M540 1570 c8 -5 20 -10 25 -10 6 0 3 5 -5 10 -8 5 -19 10 -25 10 -5 0 -3 -5 5 -10z"></path><path d="M1261 1530 c0 -3 6 -23 14 -45 8 -22 14 -34 15 -27 0 15 106 17 147 1 16 -6 24 -6 18 -1 -14 14 -86 33 -97 26 -19 -12 -75 7 -86 29 -6 12 -11 20 -11 17z"></path><path d="M1461 1424 c0 -11 3 -14 6 -6 3 7 2 16 -1 19 -3 4 -6 -2 -5 -13z"></path><path d="M1292 1360 c0 -14 2 -19 5 -12 2 6 2 18 0 25 -3 6 -5 1 -5 -13z"></path><path d="M516 1344 c-8 -32 -1 -41 39 -48 29 -5 29 -5 -3 6 -29 10 -32 14 -27 40 8 35 -1 37 -9 2z"></path><path d="M1400 1318 c-25 -22 -36 -36 -25 -30 19 10 84 72 74 72 -2 -1 -24 -19 -49 -42z"></path><path d="M855 1232 c0 -108 -2 -121 -28 -170 -15 -29 -46 -71 -68 -93 -44 -44 -149 -99 -189 -99 -18 0 -21 -3 -12 -9 10 -6 8 -10 -10 -14 -38 -11 -118 -8 -118 4 0 6 -6 9 -12 6 -7 -2 -12 -11 -10 -21 2 -10 -4 -16 -15 -16 -40 0 -43 -12 -22 -90 10 -40 19 -84 19 -97 0 -13 5 -23 10 -23 6 0 8 10 5 23 -3 12 -11 54 -18 93 l-13 71 51 -23 c66 -31 129 -39 183 -25 l43 12 -19 27 c-35 50 -35 57 1 22 19 -19 32 -39 29 -44 -3 -5 0 -6 6 -2 7 4 12 2 12 -3 0 -20 152 -110 239 -141 96 -35 184 -60 190 -54 11 10 -20 23 -108 48 -132 37 -237 95 -327 178 l-74 70 62 32 c34 17 69 35 77 40 19 10 77 86 92 120 10 21 15 23 43 15 17 -5 58 -8 91 -8 l60 2 -60 8 c-33 4 -72 9 -87 11 -16 1 -28 5 -28 8 0 3 17 18 38 34 42 33 91 89 110 124 13 26 17 65 4 46 -6 -9 -69 -44 -79 -44 -2 0 -1 5 3 12 4 7 3 8 -5 4 -6 -4 -9 -11 -6 -16 3 -5 -3 -14 -14 -19 -17 -10 -19 -6 -25 42 -12 95 -21 77 -21 -41z"></path><path d="M667 1303 c-4 -3 -24 -9 -44 -13 -36 -7 -36 -8 -7 -9 16 0 39 6 50 14 10 8 16 15 13 15 -3 0 -9 -3 -12 -7z"></path><path d="M300 1285 c-7 -8 -27 -19 -44 -24 -24 -7 -26 -9 -9 -10 12 -1 35 10 50 24 15 13 25 25 22 25 -4 0 -12 -7 -19 -15z"></path><path d="M1266 1263 c-6 -14 -5 -15 5 -6 7 7 10 15 7 18 -3 3 -9 -2 -12 -12z"></path><path d="M1310 1260 c-9 -6 -10 -10 -3 -10 6 0 15 5 18 10 8 12 4 12 -15 0z"></path><path d="M308 1229 c-39 -29 -40 -88 -2 -118 31 -25 53 -28 30 -5 -21 21 -20 37 4 59 18 17 21 17 45 1 29 -19 32 -38 10 -56 -9 -7 -14 -15 -11 -17 2 -3 16 6 30 18 77 67 -25 179 -106 118z"></path><path d="M1080 1195 c-53 -54 -92 -77 -54 -32 17 20 16 20 -9 -2 -28 -26 -36 -37 -14 -25 8 5 7 2 -2 -10 -8 -9 -20 -15 -28 -12 -8 3 -11 2 -8 -3 3 -5 -7 -12 -22 -14 -16 -2 3 -5 40 -6 66 -1 68 0 100 35 42 47 59 80 55 105 -3 17 -12 11 -58 -36z"></path><path d="M716 1208 c-17 -24 -21 -64 -9 -95 6 -16 8 -15 13 7 4 16 14 26 28 28 27 4 40 -23 23 -49 -6 -11 -7 -19 -1 -19 13 0 40 54 40 82 0 34 -27 68 -55 68 -13 0 -31 -10 -39 -22z"></path><path d="M1060 1205 c-7 -9 -8 -15 -2 -15 5 0 12 7 16 15 3 8 4 15 2 15 -2 0 -9 -7 -16 -15z"></path><path d="M1211 1176 c-9 -10 -8 -15 1 -19 22 -8 130 -99 124 -104 -2 -3 -33 18 -67 46 -56 45 -65 49 -79 36 -25 -23 -35 -18 -14 7 l19 22 -26 -19 -25 -19 33 -29 c18 -16 33 -35 33 -42 0 -8 -24 -34 -52 -59 -29 -25 -48 -46 -42 -46 6 0 31 20 55 45 24 25 49 45 54 44 6 0 -17 -24 -49 -54 -55 -51 -78 -65 -75 -47 4 26 -1 34 -15 22 -8 -6 -12 -18 -9 -26 3 -8 7 -13 10 -11 2 3 26 -4 54 -14 60 -23 83 -24 75 -4 -3 8 -2 14 2 14 4 -1 16 -1 27 0 20 2 20 2 1 16 -19 15 -19 15 3 15 28 0 161 -30 161 -36 0 -3 -32 -42 -71 -87 -56 -65 -67 -83 -52 -85 59 -9 184 -36 187 -41 2 -3 -29 -51 -70 -106 -82 -111 -81 -113 11 -113 40 0 40 0 -8 8 -27 5 -51 10 -53 12 -2 3 29 49 70 104 41 54 72 102 70 105 -2 3 -37 12 -78 19 -59 10 -77 17 -82 32 -5 16 -8 17 -22 6 -28 -23 -3 11 61 85 33 37 58 70 55 72 -3 3 -33 11 -67 17 -38 7 -61 16 -61 25 0 16 -12 17 -28 1 -7 -7 -12 -9 -12 -4 0 4 21 26 47 50 l46 43 -64 53 c-35 30 -63 60 -63 67 2 17 -1 16 -15 -1z"></path><path d="M61 1154 c0 -11 3 -14 6 -6 3 7 2 16 -1 19 -3 4 -6 -2 -5 -13z"></path><path d="M41 1140 c-1 -26 45 -115 79 -153 30 -35 51 -41 49 -14 0 9 -2 8 -6 -1 -7 -19 -80 75 -103 133 -10 28 -19 43 -19 35z"></path><path d="M1136 1085 c4 -8 10 -15 15 -15 5 0 9 7 9 15 0 8 -7 15 -15 15 -9 0 -12 -6 -9 -15z"></path><path d="M1155 1060 c-3 -5 3 -10 14 -10 12 0 21 5 21 10 0 6 -6 10 -14 10 -8 0 -18 -4 -21 -10z"></path><path d="M1143 1023 c4 -3 1 -13 -5 -22 -8 -10 -4 -9 10 3 26 23 27 26 5 26 -9 0 -13 -3 -10 -7z"></path><path d="M802 983 c-13 -19 -18 -33 -12 -33 7 0 10 -6 7 -14 -4 -9 12 -21 46 -37 28 -13 75 -38 104 -56 51 -30 66 -34 41 -10 -7 7 -50 30 -95 52 -76 37 -99 58 -72 67 6 2 9 17 7 33 l-3 30 -23 -32z"></path><path d="M1030 925 c0 -16 30 -35 54 -35 9 0 16 5 16 11 0 5 -4 8 -9 5 -15 -10 -43 6 -37 20 3 8 -1 14 -9 14 -8 0 -15 -7 -15 -15z"></path><path d="M166 840 c2 -47 8 -98 14 -115 10 -31 8 -1 -11 140 -7 52 -7 49 -3 -25z"></path><path d="M1119 887 c15 -19 41 -23 41 -7 0 6 -4 10 -9 10 -5 0 -18 3 -28 7 -16 6 -16 5 -4 -10z"></path><path d="M328 873 c6 -2 18 -2 25 0 6 3 1 5 -13 5 -14 0 -19 -2 -12 -5z"></path><path d="M1210 873 c-43 -7 -80 -25 -80 -39 0 -8 5 -14 12 -14 8 0 5 -7 -5 -17 -17 -17 -19 -17 -34 2 -10 13 -14 15 -10 4 7 -21 -10 -48 -20 -33 -5 6 -17 13 -28 17 -13 5 -9 -2 13 -22 l33 -28 47 43 c26 24 50 44 55 44 4 0 7 5 7 10 0 7 -8 6 -22 -1 -21 -11 -22 -11 -9 5 8 9 21 14 31 11 9 -3 23 1 30 10 7 8 11 14 9 14 -2 -1 -15 -4 -29 -6z"></path><path d="M378 863 c7 -3 16 -2 19 1 4 3 -2 6 -13 5 -11 0 -14 -3 -6 -6z"></path><path d="M453 853 c9 -2 25 -2 35 0 9 3 1 5 -18 5 -19 0 -27 -2 -17 -5z"></path><path d="M1005 800 c-4 -6 -2 -16 3 -23 17 -20 26 -112 13 -135 -10 -19 -7 -21 59 -32 38 -6 83 -9 100 -5 35 8 38 -2 9 -41 -16 -23 -14 -22 9 4 l30 34 -68 65 c-38 35 -87 78 -109 95 -23 16 -39 34 -35 39 3 5 3 9 0 9 -3 0 -8 -5 -11 -10z"></path><path d="M191 674 c0 -11 3 -14 6 -6 3 7 2 16 -1 19 -3 4 -6 -2 -5 -13z"></path><path d="M171 669 c-2 -54 75 -249 135 -341 34 -54 49 -68 68 -68 14 0 28 5 32 12 4 6 3 8 -4 5 -13 -9 -42 2 -42 15 0 5 8 7 19 3 36 -11 46 20 45 139 0 61 -6 122 -12 136 -10 22 -11 18 -10 -33 1 -31 -2 -60 -5 -64 -4 -3 -7 -1 -7 5 0 7 -7 12 -16 12 -8 0 -12 -5 -8 -11 4 -8 -1 -9 -17 -4 -55 17 -70 25 -64 35 3 5 0 7 -9 4 -16 -6 -39 30 -62 100 -13 39 -13 39 -8 6 9 -53 71 -197 111 -257 20 -30 33 -56 30 -59 -8 -8 -66 81 -98 151 -16 36 -40 102 -53 147 -14 46 -25 76 -25 67z"></path><path d="M1137 583 c-4 -3 -7 -19 -7 -33 0 -15 -7 -33 -15 -40 -9 -7 -14 -18 -12 -24 5 -12 -18 -38 -26 -30 -5 5 -127 -123 -127 -135 0 -4 12 -13 27 -20 22 -10 24 -10 15 1 -8 10 12 39 86 123 53 61 87 102 76 93 -31 -27 -35 -22 -13 17 16 26 17 35 7 35 -10 0 -9 3 2 10 8 5 10 10 4 10 -6 0 -14 -3 -17 -7z"></path><path d="M1618 470 l154 -5 18 -52 c23 -66 94 -222 132 -289 15 -28 25 -54 21 -57 -3 -4 2 -7 12 -7 13 0 15 3 7 13 -20 24 -120 234 -152 320 l-33 87 -156 -2 -156 -2 153 -6z"></path><path d="M940 285 c0 -32 235 -122 455 -175 169 -40 185 -43 185 -33 0 4 -48 18 -108 31 -146 32 -361 104 -450 152 -40 22 -75 40 -78 40 -2 0 -4 -7 -4 -15z"></path><path d="M1017 279 c7 -7 15 -10 18 -7 3 3 -2 9 -12 12 -14 6 -15 5 -6 -5z"></path><path d="M1638 93 c7 -3 16 -2 19 1 4 3 -2 6 -13 5 -11 0 -14 -3 -6 -6z"></path><path d="M1698 83 c6 -2 18 -2 25 0 6 3 1 5 -13 5 -14 0 -19 -2 -12 -5z"></path><path d="M1590 72 c0 -18 363 -52 373 -36 3 5 -29 10 -72 12 -42 2 -123 10 -180 18 -122 16 -121 16 -121 6z"></path></g><g transform="scale(0.05, 0.05)" fill="rgb(249, 230, 6)" stroke="none"></g><g transform="scale(0.05, 0.05)" fill="rgb(254, 254, 254)" stroke="none"></g></svg>