<svg version="1.0" xmlns="http://www.w3.org/2000/svg" width="300" height="300" viewBox="0 0 100 100">
<g transform="scale(0.05, 0.05)" fill="rgb(108, 137, 157)" stroke="none"><path d="M980 1683 c-144 -52 -287 -201 -355 -370 -19 -45 -30 -60 -52 -67 -193 -59 -282 -106 -374 -196 -110 -108 -138 -222 -74 -306 29 -38 106 -80 165 -90 29 -5 38 -13 51 -43 32 -76 130 -123 255 -124 64 0 91 5 134 25 l54 24 65 -38 c137 -80 308 -124 385 -98 79 26 83 106 10 218 -20 30 -34 55 -32 57 2 1 23 13 48 25 25 13 70 40 100 60 59 40 160 141 160 160 0 6 19 -4 43 -23 56 -46 98 -66 149 -73 123 -15 183 114 128 277 l-21 60 29 37 c45 57 65 103 66 150 3 117 -150 107 -274 -17 -38 -38 -52 -46 -65 -39 -38 22 -204 48 -306 48 l-106 0 23 68 c41 119 27 218 -38 265 -35 26 -111 31 -168 10zM492 588 c-10 -10 -20 -5 -49 24 -25 26 -34 41 -29 54 6 15 13 12 49 -24 33 -33 39 -44 29 -54zM780 625 c0 -8 -19 -27 -42 -42 -36 -24 -51 -28 -117 -28 -61 0 -76 3 -76 15 0 11 10 14 42 12 47 -4 135 21 153 44 16 18 40 18 40 -1z"></path></g><g transform="scale(0.05, 0.05)" fill="rgb(31, 58, 28)" stroke="none"><path d="M999 1687 c-143 -40 -326 -227 -376 -383 -13 -44 -22 -56 -42 -60 -255 -56 -461 -217 -487 -383 -14 -89 65 -177 181 -201 44 -9 55 -16 63 -38 14 -42 70 -90 131 -113 74 -28 205 -24 270 8 l42 21 92 -48 c165 -87 301 -117 367 -83 71 37 73 102 5 203 -19 29 -35 55 -35 59 0 3 37 26 81 50 75 42 187 137 222 190 l16 24 47 -42 c106 -93 220 -86 273 16 18 35 12 123 -12 195 l-23 68 28 27 c65 62 89 173 46 213 -48 44 -157 9 -244 -79 l-48 -49 -40 15 c-68 24 -204 43 -303 43 -87 0 -94 2 -88 18 45 108 55 188 29 252 -29 73 -104 102 -195 77zM1446 1305 c43 -8 93 -20 110 -25 33 -11 33 -11 18 -45 -23 -57 -18 -110 12 -134 41 -32 97 -24 177 26 l38 24 17 -38 c12 -27 17 -64 17 -125 0 -81 -2 -90 -26 -114 -39 -39 -96 -43 -161 -11 -29 15 -68 42 -87 61 l-34 35 -38 -52 c-105 -147 -353 -272 -592 -301 l-57 -7 11 28 c23 61 -22 143 -101 183 -152 78 -383 15 -415 -113 -9 -33 -26 -34 -98 -7 -81 31 -127 87 -127 157 0 144 221 324 463 377 l27 6 0 -57 c0 -101 52 -157 145 -157 109 0 286 122 370 256 l30 48 112 0 c61 0 146 -7 189 -15zM740 793 c213 -107 55 -320 -208 -280 -110 16 -182 76 -182 151 0 136 227 210 390 129z"></path><path d="M1228 879 c-23 -13 -23 -51 0 -72 43 -39 127 -4 103 42 -21 38 -67 51 -103 30z"></path><path d="M958 834 c-41 -22 -63 -69 -48 -105 34 -81 176 -81 210 1 34 82 -74 152 -162 104zM1084 809 c44 -34 30 -90 -29 -115 -58 -24 -113 -2 -130 54 -5 17 1 29 24 52 37 37 94 41 135 9z"></path></g><g transform="scale(0.05, 0.05)" fill="rgb(164, 218, 247)" stroke="none"><path d="M999 1687 c-143 -40 -326 -227 -376 -383 -13 -44 -22 -56 -42 -60 -255 -56 -461 -217 -487 -383 -14 -89 65 -177 181 -201 44 -9 55 -16 63 -38 14 -42 70 -90 131 -113 74 -28 205 -24 270 8 l42 21 92 -48 c165 -87 301 -117 367 -83 71 37 73 102 5 203 -19 29 -35 55 -35 59 0 3 37 26 81 50 75 42 187 137 222 190 l16 24 47 -42 c106 -93 220 -86 273 16 18 35 12 123 -12 195 l-23 68 28 27 c65 62 89 173 46 213 -48 44 -157 9 -244 -79 l-48 -49 -40 15 c-68 24 -204 43 -303 43 -87 0 -94 2 -88 18 45 108 55 188 29 252 -29 73 -104 102 -195 77zM1446 1305 c43 -8 93 -20 110 -25 33 -11 33 -11 18 -45 -23 -57 -18 -110 12 -134 41 -32 97 -24 177 26 l38 24 17 -38 c12 -27 17 -64 17 -125 0 -81 -2 -90 -26 -114 -39 -39 -96 -43 -161 -11 -29 15 -68 42 -87 61 l-34 35 -38 -52 c-105 -147 -353 -272 -592 -301 l-57 -7 11 28 c23 61 -22 143 -101 183 -152 78 -383 15 -415 -113 -9 -33 -26 -34 -98 -7 -81 31 -127 87 -127 157 0 144 221 324 463 377 l27 6 0 -57 c0 -101 52 -157 145 -157 109 0 286 122 370 256 l30 48 112 0 c61 0 146 -7 189 -15zM740 793 c213 -107 55 -320 -208 -280 -110 16 -182 76 -182 151 0 136 227 210 390 129z"></path><path d="M1228 879 c-23 -13 -23 -51 0 -72 43 -39 127 -4 103 42 -21 38 -67 51 -103 30z"></path><path d="M958 834 c-41 -22 -63 -69 -48 -105 34 -81 176 -81 210 1 34 82 -74 152 -162 104zM1084 809 c44 -34 30 -90 -29 -115 -58 -24 -113 -2 -130 54 -5 17 1 29 24 52 37 37 94 41 135 9z"></path></g><g transform="scale(0.05, 0.05)" fill="rgb(38, 164, 4)" stroke="none"><path d="M957 1666 c-136 -57 -261 -192 -326 -351 l-27 -67 -84 -25 c-125 -36 -233 -96 -311 -173 -76 -76 -109 -137 -109 -204 0 -96 72 -167 184 -182 40 -6 47 -11 56 -39 6 -17 23 -43 38 -58 31 -29 107 -67 137 -66 11 0 -3 7 -30 17 -144 50 -186 157 -95 243 55 52 123 72 224 67 140 -7 226 -71 226 -167 0 -39 -5 -49 -43 -86 -25 -24 -64 -48 -92 -57 -28 -9 -41 -17 -30 -17 11 0 40 8 64 19 l44 20 96 -49 c117 -60 215 -91 288 -91 58 0 107 19 117 45 17 45 -8 124 -61 193 -14 18 -23 35 -22 36 2 2 24 14 49 26 81 41 156 98 218 165 l60 66 49 -37 c63 -48 102 -64 158 -64 110 0 154 131 94 283 l-19 48 35 43 c64 79 82 153 46 197 -42 52 -169 12 -252 -78 l-39 -43 -73 20 c-85 23 -230 42 -307 40 -30 -1 -58 -1 -62 -1 -4 1 2 21 13 45 49 111 44 218 -12 272 -42 40 -122 44 -202 10zM1446 1305 c43 -8 93 -20 110 -25 33 -11 33 -11 18 -45 -23 -57 -18 -110 12 -134 41 -32 97 -24 177 26 l38 24 17 -38 c12 -27 17 -64 17 -125 0 -81 -2 -90 -26 -114 -39 -39 -96 -43 -161 -11 -29 15 -68 42 -87 61 l-34 35 -42 -57 c-97 -132 -314 -249 -534 -287 -114 -20 -113 -21 -100 12 23 61 -23 143 -101 183 -152 78 -383 15 -415 -113 -9 -33 -26 -34 -98 -7 -81 31 -127 87 -127 157 1 147 216 323 463 377 27 6 27 6 27 -46 0 -102 53 -162 144 -162 110 0 286 121 371 256 l30 48 112 0 c61 0 146 -7 189 -15z"></path><path d="M1228 879 c-23 -13 -23 -51 0 -72 43 -39 127 -4 103 42 -21 38 -67 51 -103 30zM1301 861 c20 -16 22 -23 13 -38 -15 -25 -52 -28 -75 -7 -24 21 -24 40 -1 53 25 15 37 13 63 -8z"></path><path d="M954 831 c-17 -10 -36 -32 -43 -49 -11 -26 -10 -35 5 -61 43 -72 160 -70 199 4 16 28 17 37 5 64 -24 58 -106 79 -166 42zM1071 825 c85 -44 39 -145 -66 -145 -25 0 -43 8 -60 25 -72 72 30 169 126 120z"></path><path d="M568 493 c18 -2 45 -2 60 0 15 2 0 4 -33 4 -33 0 -45 -2 -27 -4z"></path></g><g transform="scale(0.05, 0.05)" fill="rgb(156, 252, 77)" stroke="none"><path d="M957 1666 c-136 -57 -261 -192 -326 -351 l-27 -67 -84 -25 c-125 -36 -233 -96 -311 -173 -76 -76 -109 -137 -109 -204 0 -96 72 -167 184 -182 40 -6 47 -11 56 -39 6 -17 23 -43 38 -58 31 -29 107 -67 137 -66 11 0 -3 7 -30 17 -102 35 -154 98 -140 170 9 47 70 107 126 124 23 6 37 14 31 16 -37 12 -144 -70 -163 -125 -11 -34 -13 -35 -50 -30 -60 8 -127 45 -154 85 -69 101 5 251 176 362 64 42 188 93 252 105 l37 7 0 -51 c0 -200 207 -217 402 -32 63 58 149 169 154 196 1 6 9 27 18 48 46 106 40 211 -15 263 -42 40 -122 44 -202 10zM1125 1666 c44 -19 65 -61 65 -133 -1 -211 -238 -485 -433 -501 -145 -11 -186 134 -92 325 67 136 182 249 302 299 67 27 110 30 158 10z"></path><path d="M1793 1421 c-48 -12 -116 -55 -156 -100 l-37 -41 -70 19 c-87 24 -247 44 -315 39 l-50 -4 60 -2 c126 -4 335 -40 358 -61 4 -4 1 -24 -8 -44 -20 -49 -19 -90 4 -118 16 -19 28 -24 64 -22 43 1 119 32 132 53 21 35 55 -28 75 -140 l9 -55 -4 57 c-3 32 -14 80 -25 108 l-20 51 35 43 c104 127 76 248 -52 217zM1884 1388 c21 -29 20 -54 -3 -104 -60 -132 -245 -233 -295 -162 -9 12 -16 32 -16 43 1 63 90 179 170 220 60 32 123 33 144 3z"></path><path d="M1501 916 c-87 -141 -365 -287 -592 -311 l-66 -7 4 49 c12 116 -96 195 -260 191 l-72 -1 90 -7 c151 -11 235 -71 235 -169 0 -39 -5 -49 -43 -86 -25 -24 -64 -48 -92 -57 -28 -9 -41 -17 -30 -17 11 0 40 8 64 19 l44 20 96 -49 c117 -60 215 -91 288 -91 58 0 107 19 117 45 17 45 -8 124 -61 193 -14 18 -23 35 -22 36 2 2 24 14 49 26 81 41 156 98 218 165 l60 66 49 -37 c26 -20 62 -43 80 -50 43 -19 113 -18 141 2 23 16 52 64 52 86 0 7 -9 -5 -20 -28 -23 -46 -53 -64 -106 -64 -41 0 -116 37 -162 79 -18 17 -35 31 -37 31 -2 0 -13 -15 -24 -34zM1219 619 c68 -92 75 -168 21 -197 -65 -34 -261 17 -409 108 -32 20 -33 22 -16 41 13 13 31 19 61 19 53 0 161 23 234 49 30 11 61 20 67 20 7 1 26 -17 42 -40z"></path><path d="M1226 874 c-35 -34 -2 -84 54 -84 32 0 50 17 50 46 0 44 -72 71 -104 38zM1301 861 c20 -16 22 -23 13 -38 -15 -25 -52 -28 -75 -7 -24 21 -24 40 -1 53 25 15 37 13 63 -8z"></path><path d="M966 835 c-65 -35 -76 -96 -25 -139 94 -79 243 35 157 120 -32 32 -92 41 -132 19zM1071 825 c85 -44 39 -145 -66 -145 -25 0 -43 8 -60 25 -72 72 30 169 126 120z"></path><path d="M568 493 c18 -2 45 -2 60 0 15 2 0 4 -33 4 -33 0 -45 -2 -27 -4z"></path></g><g transform="scale(0.05, 0.05)" fill="rgb(255, 255, 255)" stroke="none"></g></svg>