<svg version="1.0" xmlns="http://www.w3.org/2000/svg" width="300" height="300" viewBox="0 0 100 100" >
<g transform="scale(0.05, 0.05)" fill="rgb(121, 120, 126)" stroke="none"><path d="M896 1979 c-34 -9 -66 -37 -66 -56 0 -7 10 -30 23 -51 31 -49 41 -73 38 -94 -3 -21 9 -23 29 -5 8 6 7 3 -3 -9 -19 -23 -23 -54 -6 -54 8 0 8 -4 0 -14 -7 -9 -8 -17 -3 -20 6 -4 7 -21 2 -43 -5 -20 -7 -40 -4 -44 2 -4 0 -10 -4 -13 -11 -7 -14 -66 -3 -66 4 0 6 -15 5 -32 -6 -72 -12 -114 -17 -128 -3 -8 -7 -22 -9 -30 -3 -8 -12 57 -21 145 -11 98 -23 167 -32 181 -28 44 -135 54 -150 16 -4 -10 4 -50 17 -89 18 -56 27 -71 38 -67 34 14 52 14 23 0 -34 -16 -49 -55 -15 -41 37 16 55 15 20 -1 -21 -9 -38 -23 -38 -32 0 -12 3 -13 12 -4 7 7 17 12 22 12 6 0 1 -6 -10 -14 -28 -20 -33 -99 -6 -89 14 5 13 3 -3 -10 -14 -11 -20 -29 -21 -66 -2 -37 1 -49 9 -44 8 5 8 2 0 -8 -7 -9 -14 -33 -15 -55 -2 -21 -9 -45 -15 -52 -11 -11 -16 -40 -12 -68 0 -4 -4 -10 -10 -14 -12 -7 -24 -59 -42 -180 -23 -159 -65 -230 -136 -230 -29 0 -58 12 -118 50 -95 60 -126 63 -174 19 -32 -29 -33 -32 -29 -90 4 -55 8 -63 50 -107 25 -26 68 -80 96 -121 42 -62 48 -77 39 -93 -7 -10 -17 -18 -23 -18 -6 0 -19 -9 -29 -20 -15 -17 -16 -24 -5 -50 7 -16 16 -27 21 -24 12 7 11 -3 -2 -28 -16 -29 1 -38 42 -24 24 8 44 10 60 3 13 -5 56 -7 96 -4 93 5 160 38 250 121 97 90 146 179 170 310 19 98 31 124 73 154 43 29 81 28 166 -4 151 -56 180 -64 245 -70 91 -9 146 18 201 98 38 57 53 72 42 43 -8 -19 -5 -19 35 1 58 29 66 60 63 227 -2 89 1 155 8 167 6 11 12 42 15 69 2 27 9 68 15 91 13 47 5 296 -11 371 -13 57 -44 89 -96 96 -30 4 -42 1 -58 -16 -18 -21 -18 -26 -5 -89 17 -85 21 -221 8 -269 -5 -21 -21 -53 -34 -72 -26 -38 -26 -37 -43 44 -14 73 -26 98 -61 139 -34 39 -67 46 -114 24 -43 -19 -42 -43 4 -113 38 -58 42 -70 42 -129 1 -50 -4 -71 -21 -94 l-21 -30 -105 34 c-57 19 -117 34 -133 34 -29 0 -30 2 -46 86 -10 50 -17 124 -16 177 2 57 -4 117 -14 157 -9 36 -16 86 -16 111 0 92 -11 134 -44 171 -33 39 -72 51 -120 37zM970 1836 c0 -2 -7 -6 -15 -10 -8 -3 -15 -1 -15 4 0 6 7 10 15 10 8 0 15 -2 15 -4zM1013 1793 c3 -5 -12 -8 -34 -8 -22 -1 -33 2 -26 7 15 10 54 10 60 1zM990 1743 c-19 -3 -39 -9 -44 -14 -6 -5 -15 -9 -20 -9 -6 0 -2 7 8 15 11 8 36 14 55 13 l36 -1 -35 -4zM1019 1706 c-2 -2 -22 -6 -44 -9 -27 -4 -35 -3 -25 3 14 9 79 15 69 6zM1680 1700 c0 -5 -2 -10 -4 -10 -3 0 -8 5 -11 10 -3 6 -1 10 4 10 6 0 11 -4 11 -10zM1700 1660 c-8 -5 -19 -10 -25 -10 -5 0 -3 5 5 10 8 5 20 10 25 10 6 0 3 -5 -5 -10zM1747 1664 c-3 -3 -12 -4 -19 -1 -8 3 -5 6 6 6 11 1 17 -2 13 -5zM1039 1626 c-2 -2 -26 -6 -54 -10 -34 -4 -45 -3 -35 4 14 9 99 15 89 6zM1737 1624 c-3 -3 -12 -4 -19 -1 -8 3 -5 6 6 6 11 1 17 -2 13 -5zM1033 1583 c-7 -2 -21 -2 -30 0 -10 3 -4 5 12 5 17 0 24 -2 18 -5zM957 1574 c-3 -3 -12 -4 -19 -1 -8 3 -5 6 6 6 11 1 17 -2 13 -5zM973 1533 c-7 -2 -19 -2 -25 0 -7 3 -2 5 12 5 14 0 19 -2 13 -5zM1760 1534 c-37 -8 -88 -9 -84 -2 3 4 26 7 52 7 26 -1 40 -3 32 -5zM1017 1524 c-3 -3 -12 -4 -19 -1 -8 3 -5 6 6 6 11 1 17 -2 13 -5zM990 1492 c0 -5 -17 -9 -37 -10 -30 0 -34 2 -18 8 26 11 55 12 55 2zM1750 1496 c0 -2 -18 -6 -39 -8 -22 -2 -37 0 -35 4 5 8 74 11 74 4zM1759 1451 c10 -6 -1 -8 -30 -4 -24 3 -46 7 -48 9 -10 9 65 3 78 -5zM803 1443 c-7 -2 -19 -2 -25 0 -7 3 -2 5 12 5 14 0 19 -2 13 -5zM1005 1440 c-3 -5 -24 -10 -46 -10 -24 0 -38 4 -34 10 3 6 24 10 46 10 24 0 38 -4 34 -10zM1760 1409 c10 -6 4 -7 -15 -3 -16 4 -37 11 -45 15 -10 6 -4 7 15 3 17 -4 37 -11 45 -15zM1029 1384 c2 -2 -25 -4 -60 -4 -44 0 -59 3 -49 10 13 8 98 3 109 -6zM803 1373 c-7 -2 -21 -2 -30 0 -10 3 -4 5 12 5 17 0 24 -2 18 -5zM997 1333 c-20 -2 -52 -2 -70 0 -17 2 0 4 38 4 39 0 53 -2 32 -4zM1030 1283 c2 -2 -32 -3 -77 -1 -44 2 -76 6 -69 11 11 7 136 -1 146 -10zM760 1266 c0 -2 -7 -7 -16 -10 -8 -3 -12 -2 -9 4 6 10 25 14 25 6zM973 1240 c24 0 36 -4 32 -10 -7 -12 -135 -10 -135 1 0 11 23 18 45 14 11 -3 37 -5 58 -5zM787 1234 c-3 -3 -12 -4 -19 -1 -8 3 -5 6 6 6 11 1 17 -2 13 -5zM975 1165 c22 -7 33 -14 25 -15 -11 -1 -9 -4 5 -10 36 -15 -9 -11 -55 5 -23 8 -53 15 -67 15 -14 0 -21 4 -18 10 8 14 61 11 110 -5zM1583 1129 c20 -5 37 -14 37 -20 0 -6 5 -7 12 -3 7 4 8 3 4 -5 -5 -8 -12 -9 -19 -2 -7 5 -34 16 -62 24 -56 17 -31 23 28 6zM958 1094 c37 -9 71 -21 77 -25 17 -16 -44 -9 -106 12 -33 12 -63 18 -67 14 -13 -12 46 -52 102 -70 31 -10 59 -22 63 -28 3 -5 -3 -7 -13 -4 -11 4 -32 9 -49 13 -38 9 -115 61 -115 78 0 31 16 32 108 10zM767 1074 c25 -33 55 -96 42 -89 -7 5 -10 3 -7 -6 3 -8 9 -14 14 -14 16 -1 56 -26 50 -32 -3 -4 0 -13 7 -21 22 -27 -25 3 -55 35 -29 31 -62 100 -59 122 1 7 -2 10 -7 7 -5 -3 -15 1 -21 8 -10 12 -9 14 5 12 9 -1 23 -11 31 -22zM730 1009 c13 -24 19 -49 15 -62 -4 -16 -4 -18 3 -8 7 10 14 6 28 -18 10 -17 21 -31 24 -31 3 0 21 -14 40 -31 l35 -31 -47 32 c-26 17 -53 40 -59 51 -13 25 -23 18 -14 -10 3 -11 33 -36 65 -56 33 -20 62 -40 65 -45 6 -9 -96 50 -120 70 -20 17 -73 180 -59 180 2 0 13 -18 24 -41zM883 981 c-2 -3 -16 8 -31 24 l-27 28 31 -24 c17 -13 30 -26 27 -28zM904 1004 c7 -19 2 -18 -19 6 -16 17 -16 20 -3 15 9 -4 19 -13 22 -21zM1147 953 c-2 -16 -4 -5 -4 22 0 28 2 40 4 28 2 -13 2 -35 0 -50zM1536 998 c10 -12 13 -18 7 -14 -8 4 -13 2 -13 -4 0 -21 60 -125 86 -147 14 -13 21 -23 16 -23 -27 0 -116 142 -110 177 2 11 -6 19 -22 24 -22 6 -22 7 -4 8 11 1 29 -9 40 -21zM1471 963 c-4 -28 -6 -32 -9 -15 -3 22 3 52 11 52 1 0 1 -17 -2 -37zM1000 969 c18 -11 -34 -1 -65 13 -13 5 -9 6 15 2 19 -4 42 -10 50 -15zM1034 965 c-9 -14 -18 -25 -21 -25 -5 0 5 18 20 38 17 22 18 13 1 -13zM1646 958 l29 -33 -32 29 c-31 28 -38 36 -30 36 2 0 16 -15 33 -32zM684 946 c3 -13 9 -32 12 -43 5 -17 5 -17 -6 -1 -6 10 -11 21 -11 25 -1 5 -5 16 -10 26 -6 10 -6 17 0 17 5 0 12 -11 15 -24zM1609 903 c29 -38 36 -50 16 -28 -39 42 -79 95 -72 95 2 0 27 -30 56 -67zM1004 911 c-2 -3 -12 3 -22 13 -16 17 -16 18 5 5 12 -7 20 -15 17 -18zM1211 902 c-6 -2 -9 -8 -6 -12 3 -5 -4 -24 -15 -42 -11 -18 -20 -43 -20 -55 0 -13 -5 -23 -11 -23 -16 0 -1 57 29 114 15 26 28 42 31 35 2 -7 -1 -15 -8 -17zM1075 910 c3 -5 1 -10 -4 -10 -6 0 -11 5 -11 10 0 6 2 10 4 10 3 0 8 -4 11 -10zM1145 910 c3 -5 1 -10 -4 -10 -6 0 -11 5 -11 10 0 6 2 10 4 10 3 0 8 -4 11 -10zM1499 840 c0 -15 -28 48 -28 65 0 11 6 2 14 -20 8 -22 15 -42 14 -45zM965 870 c21 -22 37 -40 34 -40 -3 0 -23 18 -44 40 -21 22 -37 40 -34 40 3 0 23 -18 44 -40zM911 883 c13 -16 12 -17 -3 -4 -10 7 -18 15 -18 17 0 8 8 3 21 -13zM1121 835 c-9 -30 -20 -58 -25 -62 -4 -4 -5 -1 -3 7 3 8 11 36 17 63 7 26 16 47 20 47 4 0 0 -25 -9 -55zM1060 833 c-4 -42 -5 -44 -8 -15 -3 30 2 62 10 62 2 0 1 -21 -2 -47zM1256 841 c-9 -16 -16 -38 -16 -48 1 -10 9 -1 20 22 22 45 26 39 8 -11 -13 -37 0 -78 40 -125 25 -30 24 -33 -2 -23 -15 6 -76 120 -76 143 0 14 33 82 38 77 2 -2 -4 -18 -12 -35zM1327 838 c-3 -8 -6 -5 -6 6 -1 11 2 17 5 13 3 -3 4 -12 1 -19zM723 807 c10 -4 16 -11 12 -16 -3 -5 0 -13 6 -17 8 -5 9 -3 4 6 -6 9 -2 10 16 5 43 -14 69 -24 69 -29 0 -2 -10 -2 -22 1 -23 5 -23 5 -3 -11 13 -11 -1 -7 -40 9 -33 14 -73 40 -90 57 -16 17 -24 28 -17 24 7 -4 12 -2 12 6 0 8 7 5 18 -8 9 -12 25 -24 35 -27zM1530 800 c12 -16 19 -30 16 -30 -2 0 -14 14 -26 30 -12 17 -19 30 -16 30 2 0 14 -13 26 -30zM1369 712 c24 -29 49 -52 54 -52 6 0 2 8 -7 19 -19 21 -86 130 -86 140 0 3 21 -25 46 -64 25 -38 52 -74 61 -79 13 -7 13 -10 2 -18 -11 -8 -10 -9 3 -5 9 3 29 2 45 -2 25 -7 26 -8 7 -13 -31 -8 -96 17 -119 46 -56 71 -65 86 -64 113 l2 28 6 -30 c3 -17 26 -54 50 -83zM740 710 c22 -7 38 -15 36 -18 -3 -2 -19 1 -37 7 -18 6 -34 9 -37 7 -2 -3 15 -10 37 -17 23 -7 47 -19 54 -28 10 -13 10 -14 -3 -5 -8 6 -34 16 -57 24 -46 14 -75 40 -80 70 -2 17 0 17 22 -4 13 -12 42 -29 65 -36zM1494 724 c3 -8 2 -12 -4 -9 -6 3 -10 10 -10 16 0 14 7 11 14 -7zM855 710 c10 -11 16 -20 13 -20 -3 0 -13 9 -23 20 -10 11 -16 20 -13 20 3 0 13 -9 23 -20zM1207 708 c-3 -8 -6 -5 -6 6 -1 11 2 17 5 13 3 -3 4 -12 1 -19zM722 628 c13 -13 17 -18 8 -12 -8 6 -24 16 -35 22 -11 6 -15 12 -8 12 7 0 22 -10 35 -22zM725 600 c10 -11 16 -20 13 -20 -3 0 -13 9 -23 20 -10 11 -16 20 -13 20 3 0 13 -9 23 -20zM674 565 c19 -14 42 -120 24 -109 -4 3 -8 21 -8 41 0 28 -8 43 -37 71 -35 33 -22 31 21 -3zM330 484 c59 -55 98 -62 153 -28 l42 25 -30 -27 c-16 -14 -24 -23 -17 -20 8 5 12 0 12 -15 0 -17 -3 -19 -14 -10 -8 7 -34 13 -57 14 -36 1 -49 8 -79 41 -19 22 -54 51 -77 66 -23 15 -40 30 -36 34 7 6 24 -7 103 -80zM338 563 c-10 -2 -26 -2 -35 0 -10 3 -2 5 17 5 19 0 27 -2 18 -5zM387 564 c-3 -3 -12 -4 -19 -1 -8 3 -5 6 6 6 11 1 17 -2 13 -5zM408 523 c-10 -2 -26 -2 -35 0 -10 3 -2 5 17 5 19 0 27 -2 18 -5zM648 443 c-4 -70 -10 -99 -31 -138 -32 -61 -35 -55 -5 11 20 46 23 66 27 172 0 23 4 42 7 42 3 0 4 -39 2 -87zM453 489 c-18 -18 -25 -20 -49 -11 l-29 10 37 1 c20 1 40 6 43 11 3 6 9 10 13 10 3 0 -3 -10 -15 -21zM295 450 c27 -27 47 -50 44 -50 -3 0 -27 23 -54 50 -27 28 -47 50 -44 50 3 0 27 -22 54 -50zM558 438 c-7 -13 -15 -43 -18 -67 -3 -25 -11 -46 -18 -49 -11 -3 -12 0 -3 16 6 11 11 35 11 52 0 35 15 70 31 70 6 0 5 -9 -3 -22zM884 444 c8 -22 8 -24 -8 -24 -7 0 -19 7 -26 15 -11 13 -10 14 5 9 13 -5 16 -4 11 4 -4 7 -3 12 2 12 6 0 13 -7 16 -16zM478 372 c2 -7 -6 -12 -17 -12 -14 0 -21 -6 -21 -20 0 -23 17 -26 34 -7 6 7 10 10 9 8 -2 -2 3 -11 10 -19 6 -9 7 -13 1 -9 -6 3 -22 0 -37 -8 -26 -13 -27 -13 -27 11 0 14 -7 27 -15 30 -8 4 -12 10 -9 16 3 5 12 7 18 5 7 -3 19 -1 27 4 11 7 10 11 -6 25 -19 15 -19 16 4 2 14 -8 27 -20 29 -26zM586 366 c-4 -18 -14 -40 -23 -47 -15 -13 -15 -11 0 18 10 18 17 42 17 54 0 12 3 20 6 16 4 -3 3 -22 0 -41zM393 350 c-6 -22 -7 -22 -14 -4 -4 10 -8 28 -8 39 -1 17 1 18 14 5 9 -10 12 -24 8 -40zM840 381 c15 -28 -4 -34 -26 -9 -11 12 -13 18 -6 14 6 -4 12 -2 12 3 0 17 8 13 20 -8zM790 311 c14 -27 3 -56 -17 -40 -8 7 -19 21 -25 32 -9 17 -8 19 6 14 9 -4 16 -2 16 3 0 16 8 12 20 -9zM715 254 c9 -14 14 -28 12 -31 -6 -5 -47 37 -47 49 0 17 18 7 35 -18zM403 235 c-3 -9 -8 -14 -10 -11 -3 3 -2 9 2 15 9 16 15 13 8 -4zM590 246 c0 -3 -4 -8 -10 -11 -5 -3 -10 -1 -10 4 0 6 5 11 10 11 6 0 10 -2 10 -4zM670 199 c0 -17 -18 -9 -35 17 l-16 25 25 -16 c14 -10 26 -21 26 -26zM537 198 c-3 -8 -6 -5 -6 6 -1 11 2 17 5 13 3 -3 4 -12 1 -19zM588 213 c-1 -5 3 -18 10 -30 8 -14 9 -23 3 -23 -14 0 -33 38 -26 50 7 12 16 13 13 3z"/><path d="M832 944 c10 -10 20 -16 22 -13 3 3 -5 11 -17 18 -21 13 -21 12 -5 -5z"/><path d="M672 724 c10 -10 20 -15 24 -12 3 4 -5 12 -18 18 -22 12 -22 12 -6 -6z"/></g><g transform="scale(0.05, 0.05)" fill="rgb(63, 63, 69)" stroke="none"><path d="M874 1966 c-42 -18 -49 -42 -25 -80 36 -56 53 -100 53 -139 l1 -38 24 23 c26 24 85 30 104 11 8 -8 1 -10 -27 -6 -30 4 -45 0 -66 -16 -24 -20 -27 -27 -25 -77 2 -30 -1 -57 -5 -60 -4 -3 -8 -9 -8 -14 0 -5 16 -2 35 6 41 17 121 19 131 2 4 -7 3 -8 -5 -4 -7 4 -39 5 -72 1 -62 -7 -108 -33 -95 -53 5 -9 11 -8 22 3 9 8 29 15 45 15 30 0 99 -24 99 -35 0 -3 -8 -2 -17 3 -34 18 -88 22 -113 9 -20 -10 -25 -21 -27 -56 -1 -40 0 -42 16 -27 22 20 88 20 121 0 23 -14 20 -14 -45 -9 -61 6 -73 4 -87 -12 -10 -10 -17 -27 -16 -38 0 -11 -3 -29 -8 -40 -7 -18 -6 -19 10 -6 20 17 176 26 176 10 0 -5 -38 -9 -84 -9 -58 0 -87 -4 -95 -14 -9 -11 0 -14 50 -20 34 -3 77 -6 94 -6 21 0 35 -6 39 -16 3 -8 2 -12 -3 -9 -18 10 -176 22 -187 14 -8 -6 -13 11 -17 58 -30 334 -36 350 -143 341 -35 -3 -39 -6 -42 -33 -1 -16 8 -56 20 -87 19 -45 27 -55 38 -48 8 6 31 9 50 8 33 -1 33 -1 5 -5 -40 -5 -75 -23 -75 -40 0 -16 0 -16 39 3 25 12 38 14 54 6 20 -10 18 -11 -14 -11 -22 -1 -46 -9 -60 -22 -21 -18 -21 -20 -4 -13 11 4 36 8 55 10 l35 3 -38 -8 c-49 -10 -60 -22 -64 -71 -4 -39 -3 -41 16 -31 11 6 35 10 53 10 26 -1 28 -3 8 -6 -57 -9 -70 -14 -81 -35 -10 -18 -9 -20 7 -14 16 6 16 5 -2 -15 l-19 -22 25 7 c14 4 39 10 55 12 17 2 21 1 10 -2 -47 -12 -75 -27 -75 -41 0 -10 4 -11 19 -3 11 5 28 10 38 9 10 0 2 -7 -19 -15 -20 -9 -39 -22 -42 -30 -7 -19 18 -18 35 2 12 14 14 12 24 -17 12 -34 39 -59 52 -46 4 4 2 27 -4 50 -10 37 -10 40 3 23 8 -11 14 -24 14 -29 0 -5 7 -6 16 -3 23 9 234 -5 228 -15 -3 -5 1 -9 8 -9 9 0 9 -3 -2 -10 -24 -15 -108 -12 -159 7 -49 17 -81 13 -81 -10 0 -8 27 -20 69 -31 66 -17 113 -17 171 -1 17 5 21 4 11 -3 -11 -8 -11 -10 0 -15 16 -6 -51 -37 -78 -37 -10 0 -48 11 -86 24 -68 25 -97 20 -53 -9 32 -21 125 -55 152 -55 12 0 33 9 47 20 18 15 28 17 33 9 4 -8 3 -9 -5 -5 -8 6 -10 1 -6 -17 4 -13 -2 -48 -14 -81 -11 -31 -23 -82 -27 -114 -8 -66 -25 -109 -19 -47 3 22 6 65 9 96 2 31 14 75 25 97 13 25 17 43 11 47 -6 3 -10 2 -10 -3 0 -6 -15 -25 -33 -43 -19 -19 -36 -41 -39 -48 -3 -12 -10 -11 -34 5 -16 12 -52 33 -80 48 -48 26 -84 68 -84 98 0 8 -10 23 -21 34 -12 10 -25 29 -30 42 -11 28 -42 26 -47 -3 -2 -16 -1 -17 7 -5 8 12 12 10 19 -10 9 -22 53 -94 98 -158 9 -13 35 -32 57 -44 23 -11 59 -40 80 -65 32 -38 37 -51 36 -91 -1 -47 -1 -47 -9 -12 -8 33 -49 76 -160 169 -23 19 -51 53 -62 75 -25 50 -66 106 -77 106 -19 0 -19 -32 0 -51 11 -11 33 -49 49 -84 23 -52 41 -73 93 -114 65 -51 98 -103 97 -154 -1 -19 -3 -18 -14 8 -20 46 -62 91 -114 121 -57 33 -68 47 -81 100 -12 47 -43 90 -58 81 -17 -11 -23 -47 -7 -47 7 0 18 -19 25 -42 6 -24 20 -56 32 -73 l21 -30 -21 18 c-12 10 -27 32 -33 48 -14 34 -35 38 -50 9 -9 -17 -8 -20 7 -20 10 0 26 -14 35 -31 13 -21 39 -40 92 -64 79 -36 113 -71 126 -131 11 -46 -1 -42 -25 9 -17 36 -31 48 -94 79 -41 21 -86 49 -101 63 -17 16 -33 23 -43 19 -20 -7 -23 -44 -4 -44 8 0 24 -11 37 -25 13 -14 50 -35 82 -47 64 -23 89 -50 107 -113 17 -63 13 -74 -10 -25 -27 60 -55 88 -99 100 -21 6 -58 26 -83 45 -45 35 -46 35 -57 14 -13 -24 -5 -32 76 -76 29 -15 57 -35 63 -45 14 -23 30 -94 37 -163 l5 -50 -15 38 c-7 21 -17 54 -21 75 -12 63 -32 89 -92 119 -45 23 -57 33 -55 49 3 13 -8 6 -32 -23 -20 -23 -45 -45 -56 -48 -30 -9 -90 11 -143 49 -68 49 -98 59 -131 46 -15 -5 -24 -14 -21 -20 3 -5 0 -7 -8 -4 -21 8 -36 -18 -42 -69 -5 -54 5 -76 62 -134 22 -23 60 -71 83 -107 46 -70 55 -80 45 -43 -5 18 -4 19 5 7 9 -12 10 -7 4 20 -4 19 -8 48 -9 64 -2 30 -44 74 -109 116 -28 18 -30 18 -44 2 -7 -9 -11 -12 -8 -6 3 7 -1 17 -9 24 -22 18 -18 32 5 18 23 -14 33 -8 24 16 -4 9 -13 15 -20 12 -8 -3 -14 -1 -14 4 0 19 30 10 42 -14 7 -13 45 -51 83 -84 57 -51 76 -62 106 -62 43 0 95 49 101 95 l4 30 8 -28 c7 -22 3 -36 -19 -68 -15 -23 -25 -49 -22 -60 5 -17 3 -18 -16 -4 -34 24 -43 17 -13 -10 15 -14 26 -35 26 -50 0 -14 4 -25 8 -25 16 0 35 48 29 72 -5 17 2 36 19 62 20 29 25 47 22 82 -3 37 -1 41 11 29 20 -19 16 -69 -7 -108 -11 -17 -23 -50 -27 -72 -4 -22 -9 -49 -12 -60 -6 -20 -5 -20 15 -1 12 10 25 37 31 60 8 39 9 40 10 9 1 -18 -6 -48 -15 -66 -16 -34 -17 -34 -62 -25 -29 5 -50 4 -56 -2 -16 -16 -24 -12 -31 20 -8 35 -30 40 -38 8 -4 -15 0 -28 13 -41 25 -22 25 -20 -9 -91 l-29 -58 46 -20 c102 -46 238 -5 356 106 95 88 148 187 177 330 16 80 22 95 53 124 20 17 46 32 60 32 13 0 36 10 52 22 27 21 28 21 11 1 -18 -21 -18 -21 45 -41 35 -11 88 -30 118 -42 70 -28 154 -42 203 -34 50 8 47 19 -6 20 -49 1 -100 27 -116 58 -6 12 -23 36 -36 55 -15 20 -25 48 -25 67 0 46 -14 43 -29 -5 -13 -44 -7 -65 34 -125 19 -28 22 -37 10 -32 -9 3 -24 6 -32 6 -9 0 -14 3 -10 6 3 3 -5 31 -19 61 -29 67 -29 73 -3 125 18 36 21 55 17 149 -2 60 0 100 4 89 4 -11 12 -20 18 -20 5 0 10 -16 10 -35 0 -80 32 -200 71 -266 49 -82 73 -104 126 -118 55 -15 69 -7 128 70 37 49 44 63 34 75 -6 8 -17 14 -23 14 -20 0 -74 63 -98 115 -35 75 -37 78 -54 64 -8 -6 -14 -19 -14 -28 0 -43 34 -125 66 -161 23 -25 30 -40 22 -42 -18 -6 8 -38 31 -39 10 0 12 -2 3 -6 -6 -2 -9 -10 -6 -15 10 -15 -77 -1 -93 15 -6 7 -38 64 -69 127 -41 83 -58 129 -61 165 l-3 50 15 -54 c18 -64 19 -65 53 -89 l27 -20 -2 104 -1 103 31 -5 c81 -15 109 -27 140 -60 17 -20 47 -50 65 -68 37 -38 41 -52 10 -35 -20 10 -19 7 7 -22 43 -49 0 -13 -96 78 -62 59 -83 73 -108 73 -24 0 -31 -4 -31 -19 0 -14 8 -21 27 -23 21 -2 44 -24 95 -87 37 -47 78 -91 90 -98 20 -11 20 -12 4 -13 -14 0 -17 -5 -13 -22 4 -12 1 -28 -5 -35 -24 -30 23 -12 55 21 42 42 46 65 39 228 -3 84 -1 132 6 140 6 8 13 42 17 77 3 35 9 69 12 75 10 15 4 298 -7 357 -13 67 -26 88 -64 104 -55 23 -106 2 -106 -45 0 -35 9 -43 27 -25 15 16 68 21 59 6 -3 -4 -19 -11 -36 -15 -28 -5 -50 -30 -37 -42 3 -3 19 2 36 10 16 9 45 16 63 15 29 -1 27 -2 -17 -13 -72 -17 -77 -22 -69 -59 4 -18 7 -42 6 -54 -2 -21 0 -21 33 -8 20 9 47 12 65 9 49 -10 44 -21 -9 -16 -52 5 -91 -10 -91 -34 0 -11 4 -12 19 -4 28 14 84 12 107 -4 17 -13 14 -13 -26 -4 -67 15 -95 0 -104 -52 -7 -45 -36 -110 -58 -128 -11 -9 -16 2 -27 61 -22 124 -79 196 -143 183 -33 -7 -68 -32 -68 -49 0 -6 18 -38 40 -72 57 -87 61 -170 12 -243 -7 -11 -24 -8 -87 12 -43 14 -104 31 -136 37 l-57 11 -19 72 c-12 50 -17 102 -16 176 1 58 -2 119 -7 135 -13 43 -18 72 -25 177 -7 92 -17 120 -56 159 -23 23 -79 25 -125 5zM976 1829 c-22 -5 -46 -14 -53 -21 -18 -15 -29 -2 -13 17 8 10 28 15 59 14 l46 -1 -39 -9zM1026 1785 c18 -13 17 -14 -12 -6 -20 6 -44 4 -70 -5 l-39 -13 24 20 c28 23 70 25 97 4zM1040 1700 c10 -6 4 -8 -22 -4 -23 4 -47 1 -67 -9 -32 -16 -44 -6 -13 12 22 13 82 14 102 1zM1039 1661 c9 -6 -7 -10 -48 -13 -51 -2 -59 -1 -44 10 19 14 72 16 92 3zM1035 1631 c15 -6 6 -10 -33 -15 -29 -4 -60 -9 -70 -13 -13 -5 -14 -3 -5 7 6 7 26 16 45 20 42 10 39 10 63 1zM1705 1615 c-50 -18 -57 -18 -25 0 14 8 34 14 45 14 11 0 2 -6 -20 -14zM1780 1575 c11 -13 8 -13 -19 -4 -35 12 -40 19 -12 19 10 0 24 -7 31 -15zM1717 1574 c-3 -3 -12 -4 -19 -1 -8 3 -5 6 6 6 11 1 17 -2 13 -5zM819 1556 c-2 -2 -24 -6 -48 -9 -29 -4 -40 -2 -30 4 13 8 88 14 78 5zM1010 1490 c-19 -4 -51 -10 -70 -14 -33 -5 -34 -5 -16 9 12 9 40 15 70 14 49 -1 49 -1 16 -9zM1425 1490 c-3 -5 -16 -15 -28 -21 -21 -10 -21 -9 2 10 25 23 36 27 26 11zM1040 1465 c14 -8 21 -14 15 -14 -5 0 -21 6 -35 14 -14 8 -20 14 -15 14 6 0 21 -6 35 -14zM1459 1466 c-2 -2 -15 -9 -29 -16 -23 -12 -24 -12 -11 3 7 10 20 17 29 17 8 0 13 -2 11 -4zM1783 1440 c10 -10 7 -10 -13 -4 -14 5 -44 9 -67 9 -22 0 -39 4 -36 9 8 12 102 1 116 -14zM1469 1437 c-2 -1 -13 -9 -24 -17 -19 -14 -19 -14 -6 3 7 9 18 17 24 17 6 0 8 -1 6 -3zM1773 1408 c27 -14 14 -20 -17 -8 -15 5 -44 10 -64 10 -28 0 -33 3 -22 10 16 11 73 5 103 -12zM780 1406 c0 -2 -9 -6 -20 -9 -11 -3 -18 -1 -14 4 5 9 34 13 34 5zM1518 1403 c-10 -2 -26 -2 -35 0 -10 3 -2 5 17 5 19 0 27 -2 18 -5zM1058 1386 c3 -3 -24 -6 -61 -6 -36 0 -74 -3 -84 -7 -16 -6 -16 -5 -4 10 11 14 26 17 78 13 36 -3 68 -7 71 -10zM1727 1384 c-3 -3 -12 -4 -19 -1 -8 3 -5 6 6 6 11 1 17 -2 13 -5zM829 1376 c-2 -2 -26 -6 -53 -9 -30 -3 -43 -1 -35 4 13 8 97 13 88 5zM1496 1371 c-6 -9 -46 -22 -46 -15 0 3 10 9 23 14 29 11 29 11 23 1zM1726 1351 c23 -10 45 -25 49 -31 5 -7 -10 -3 -31 9 -21 12 -52 26 -69 30 -20 6 -23 9 -10 10 11 0 39 -8 61 -18zM1785 1360 c3 -6 -1 -7 -9 -4 -18 7 -21 14 -7 14 6 0 13 -4 16 -10zM1500 1330 c-34 -11 -60 -11 -35 0 11 5 29 8 40 8 16 0 15 -2 -5 -8zM1737 1304 c25 -22 25 -24 3 -10 -13 9 -38 16 -55 16 -23 0 -27 3 -15 10 23 15 37 12 67 -16zM785 1310 c-3 -5 -14 -10 -23 -9 -14 0 -13 2 3 9 27 11 27 11 20 0zM1703 1279 c14 -6 30 -23 37 -38 l12 -26 -30 29 c-17 15 -45 32 -64 36 -30 7 -31 8 -6 9 15 1 38 -4 51 -10zM1497 1264 c-3 -3 -12 -4 -19 -1 -8 3 -5 6 6 6 11 1 17 -2 13 -5zM1575 1260 c-4 -6 8 -10 28 -10 61 0 96 -19 118 -64 17 -35 18 -38 2 -20 -10 12 -32 29 -49 38 -42 20 -114 36 -114 25 0 -5 -7 -9 -15 -9 -14 0 -13 3 2 25 17 23 41 36 28 15zM1078 1235 c14 -14 -19 -20 -114 -20 -57 0 -104 2 -104 6 0 22 30 28 118 24 52 -3 97 -7 100 -10zM1674 1159 c21 -15 45 -38 53 -49 12 -17 3 -13 -36 14 -55 37 -106 56 -156 56 -23 0 -27 3 -15 10 26 17 112 0 154 -31zM1634 1111 c34 -22 94 -81 82 -81 -5 0 -2 -8 5 -17 8 -10 -12 6 -44 34 -62 56 -139 88 -183 77 -30 -8 -32 4 -2 15 29 10 103 -4 142 -28zM1224 930 c-3 -19 -17 -54 -30 -79 -29 -56 -30 -65 -4 -91 11 -11 20 -30 19 -42 -1 -18 -3 -16 -10 10 -10 32 -33 43 -42 20 -3 -7 -6 3 -6 24 -1 20 10 60 24 90 27 58 31 102 14 161 -6 21 -7 53 -3 70 7 29 9 25 26 -48 10 -45 15 -95 12 -115zM1157 940 c-6 -43 -54 -170 -71 -188 -7 -7 2 33 21 90 18 57 33 121 34 143 0 37 1 38 10 15 6 -14 8 -41 6 -60zM291 663 c13 -16 12 -17 -3 -4 -10 7 -18 15 -18 17 0 8 8 3 21 -13zM276 642 c-4 -3 -14 2 -24 12 -16 18 -16 18 6 6 13 -6 21 -14 18 -18zM646 588 c45 -30 50 -38 62 -93 13 -64 25 -147 18 -130 -2 6 -7 28 -11 49 -5 29 -9 36 -16 25 -6 -10 -9 -1 -9 29 0 49 -13 79 -44 104 -32 27 -39 21 -15 -11 18 -25 21 -42 20 -113 -1 -73 -5 -91 -35 -151 l-35 -69 19 -44 c19 -43 19 -44 1 -34 -39 21 -41 71 -5 143 19 37 30 78 36 141 l9 89 -31 43 c-47 66 -38 71 36 22zM365 600 c-3 -5 -12 -10 -18 -10 -7 0 -6 4 3 10 19 12 23 12 15 0zM327 594 c-3 -3 -12 -4 -19 -1 -8 3 -5 6 6 6 11 1 17 -2 13 -5zM405 571 c-3 -6 -34 -10 -73 -9 l-67 2 60 3 c33 2 64 8 69 13 12 12 20 5 11 -9zM930 570 c0 -5 -5 -10 -11 -10 -5 0 -7 5 -4 10 3 6 8 10 11 10 2 0 4 -4 4 -10zM438 541 c-10 -16 -23 -21 -53 -20 -22 0 -49 4 -60 9 -13 5 -2 6 30 3 42 -4 53 -2 69 16 23 26 32 21 14 -8zM839 495 l0 -20 -9 20 c-5 11 -9 29 -9 40 l0 20 9 -20 c5 -11 9 -29 9 -40zM473 502 c-23 -32 -68 -40 -98 -18 -19 14 -17 14 20 9 34 -4 44 -1 64 21 31 33 41 24 14 -12zM316 468 c24 -22 44 -45 44 -51 0 -6 -21 9 -47 33 l-46 45 40 -50 c23 -27 44 -61 47 -75 5 -19 2 -16 -13 10 -11 19 -42 57 -70 84 -83 81 -42 84 45 4zM911 505 c1 -17 -18 -17 -25 0 -4 11 -1 15 10 13 8 -2 15 -7 15 -13zM885 420 l-7 -22 -24 23 c-22 21 -22 23 -6 35 24 18 47 -5 37 -36zM850 358 c0 -24 -12 -23 -38 5 -17 18 -19 26 -10 35 15 15 48 -12 48 -40zM662 293 c-30 -46 -30 -46 -10 -62 13 -11 19 -26 16 -41 -3 -22 -5 -21 -31 18 -15 23 -23 42 -19 42 5 0 22 26 38 58 16 31 31 51 32 44 2 -7 -10 -34 -26 -59zM785 319 c31 -59 -5 -76 -39 -19 -15 27 -16 30 -1 30 9 0 13 5 10 10 -3 6 -2 10 4 10 6 0 18 -14 26 -31zM710 268 c27 -45 27 -67 -1 -42 -27 24 -42 52 -34 64 9 15 14 13 35 -22zM475 280 c-3 -5 -12 -10 -18 -10 -7 0 -6 4 3 10 19 12 23 12 15 0zM544 221 c-13 -51 -20 -51 -21 -1 -1 42 2 49 13 39 9 -7 12 -21 8 -38zM453 200 c3 -11 1 -18 -4 -14 -5 3 -9 12 -9 20 0 20 7 17 13 -6z"/><path d="M242 504 c10 -10 20 -15 24 -12 3 4 -5 12 -18 18 -22 12 -22 12 -6 -6z"/><path d="M900 1015 c26 -26 100 -47 120 -35 13 8 -10 20 -39 20 -9 0 -34 9 -56 20 -51 26 -55 25 -25 -5z"/><path d="M390 395 c0 -10 10 -15 26 -15 22 0 25 2 14 15 -7 8 -19 15 -26 15 -8 0 -14 -7 -14 -15z"/><path d="M442 338 c6 -18 28 -21 28 -4 0 9 -7 16 -16 16 -9 0 -14 -5 -12 -12z"/><path d="M361 277 c-6 -12 -25 -30 -41 -39 -36 -21 -37 -29 -7 -64 26 -30 61 -28 55 4 -1 10 4 29 13 43 8 13 18 29 22 35 4 6 -2 19 -12 28 -16 15 -18 15 -30 -7z"/></g><g transform="scale(0.05, 0.05)" fill="rgb(174, 174, 180)" stroke="none"><path d="M895 1973 c-53 -13 -69 -59 -36 -102 18 -23 20 -24 36 -8 9 9 19 18 23 18 40 7 62 6 62 -2 0 -5 -12 -9 -26 -9 -36 0 -64 -17 -64 -41 0 -19 0 -19 28 1 22 17 36 19 75 14 29 -4 47 -12 47 -20 0 -10 -7 -11 -30 -3 -37 13 -103 -15 -108 -46 -2 -12 0 -16 5 -9 21 28 79 42 117 28 32 -12 15 -21 -31 -17 -42 4 -51 2 -72 -21 -14 -14 -21 -29 -17 -33 4 -4 10 -3 14 3 10 16 48 34 69 34 10 0 30 -7 46 -14 28 -15 36 -9 15 12 -7 7 -8 12 -2 12 6 0 7 25 4 63 -5 58 -32 116 -65 139 -11 8 -58 9 -90 1zM982 1923 c8 -10 2 -13 -28 -14 -22 -1 -51 -2 -66 -3 -16 -1 -28 -1 -28 1 0 1 12 9 28 17 32 18 79 17 94 -1z"/><path d="M1630 1751 c-12 -23 -13 -61 -2 -61 4 0 13 5 19 11 13 13 72 19 79 7 3 -4 -8 -10 -23 -13 -39 -9 -73 -26 -73 -38 0 -5 10 -6 23 -2 41 14 109 17 119 7 8 -8 -2 -11 -31 -10 -43 0 -101 -18 -101 -33 0 -13 34 -11 47 2 6 6 32 10 57 8 41 -4 46 -2 46 16 0 48 -21 95 -50 110 -42 22 -97 20 -110 -4z"/><path d="M953 1730 c-12 -5 -27 -19 -33 -31 -12 -21 -11 -21 11 -5 26 18 104 22 114 6 4 -6 -13 -10 -44 -10 -38 0 -56 -5 -72 -21 -26 -26 -18 -36 13 -15 26 19 80 21 110 5 19 -10 20 -9 15 12 -4 13 -7 29 -7 36 0 6 -14 16 -31 22 -37 13 -46 13 -76 1z"/><path d="M687 1673 c-10 -9 -9 -43 2 -43 4 0 6 -12 3 -26 -4 -24 -2 -26 19 -20 21 6 22 5 8 -6 -29 -24 -12 -38 27 -22 21 9 44 12 57 7 18 -6 13 -9 -28 -18 -36 -8 -51 -16 -54 -30 -3 -15 0 -17 10 -8 21 16 72 24 89 13 11 -7 6 -10 -20 -10 -35 0 -80 -23 -80 -40 0 -6 15 -2 34 7 24 11 42 13 62 7 l29 -8 -30 -3 c-42 -5 -85 -23 -85 -36 0 -7 4 -7 12 1 15 15 84 16 93 2 4 -7 -2 -9 -19 -4 -28 7 -86 -12 -86 -28 0 -6 7 -7 16 -4 39 15 64 17 81 7 15 -8 11 -10 -24 -11 -23 0 -48 -3 -57 -6 -33 -13 -14 -21 42 -18 l57 3 -54 -9 c-72 -11 -93 -32 -24 -23 29 3 58 1 69 -5 15 -9 12 -10 -18 -5 -56 8 -97 -12 -96 -47 1 -25 4 -28 19 -20 24 13 86 13 94 -1 5 -7 -4 -8 -27 -4 -35 6 -78 -11 -86 -33 -3 -11 0 -12 16 -3 11 6 38 11 60 11 34 0 41 -4 51 -28 13 -31 6 -30 175 -35 73 -2 101 -6 104 -16 3 -9 0 -11 -7 -7 -7 5 -10 2 -9 -6 5 -21 -133 -23 -188 -2 -46 18 -77 14 -68 -9 5 -14 121 -47 163 -47 28 0 101 30 101 42 0 5 5 6 10 3 6 -3 10 -13 10 -21 0 -10 -5 -12 -12 -8 -10 6 -10 4 0 -8 7 -9 12 -20 10 -24 -1 -5 4 -30 11 -56 7 -26 11 -64 8 -85 -7 -57 -50 -161 -76 -186 l-23 -22 14 25 c25 43 71 225 64 254 -8 32 -26 34 -26 4 0 -13 -9 -50 -19 -83 -10 -33 -22 -83 -26 -112 -4 -28 -13 -60 -21 -70 -13 -16 -13 -15 -4 10 5 16 10 54 10 86 0 32 7 78 15 101 8 24 13 45 10 48 -8 9 -42 -28 -55 -58 l-12 -29 -42 28 c-22 15 -58 36 -80 46 -37 18 -76 65 -76 94 0 7 -13 29 -30 48 -16 18 -30 38 -30 43 0 6 -5 10 -11 10 -16 0 -3 -49 21 -80 11 -14 31 -46 45 -72 23 -44 70 -88 94 -88 20 0 94 -74 108 -108 9 -21 11 -46 7 -70 l-7 -36 -13 43 c-14 49 -58 98 -124 141 -43 27 -90 79 -90 97 0 5 -16 32 -36 62 -25 37 -39 50 -47 42 -7 -7 -3 -21 15 -48 14 -21 31 -56 39 -77 15 -42 47 -79 119 -137 49 -39 84 -115 78 -166 -4 -26 -5 -24 -17 16 -18 62 -56 108 -118 143 -55 31 -69 50 -93 126 -14 46 -33 67 -50 57 -12 -8 -13 -35 -1 -35 5 0 17 -25 26 -56 9 -31 27 -67 40 -80 13 -13 20 -24 15 -24 -8 0 -22 16 -69 79 -18 25 -41 22 -41 -5 0 -8 4 -12 10 -9 5 3 20 -10 31 -30 19 -32 87 -75 118 -75 19 0 84 -65 97 -97 16 -38 18 -93 4 -93 -5 0 -10 9 -10 21 0 38 -30 84 -72 112 -23 15 -49 27 -58 27 -9 0 -35 16 -58 36 -23 19 -50 34 -59 32 -21 -4 -30 -38 -10 -38 7 0 24 -11 37 -25 12 -13 44 -31 69 -40 26 -8 57 -23 70 -31 31 -22 61 -90 60 -139 l0 -40 -17 49 c-19 60 -68 111 -113 120 -19 3 -50 20 -71 36 -42 34 -53 37 -62 13 -8 -19 -3 -22 77 -64 42 -21 61 -39 71 -62 20 -48 40 -128 40 -163 0 -24 3 -30 16 -27 10 3 21 -6 30 -21 18 -34 26 -33 50 6 29 48 47 135 32 158 -7 12 -8 21 -2 25 6 3 10 0 10 -7 0 -8 5 -6 11 5 6 9 7 26 4 37 -4 11 -2 20 4 20 5 0 13 9 16 20 8 24 71 67 100 68 11 0 47 -8 80 -18 33 -11 77 -22 97 -26 l38 -6 -16 38 c-9 22 -22 51 -30 65 -11 23 -10 32 13 80 23 49 25 62 20 149 -3 60 -12 114 -25 148 -11 28 -16 52 -12 52 5 0 12 -5 15 -10 4 -6 10 -8 15 -5 20 12 38 -44 43 -130 10 -151 31 -229 85 -309 43 -64 53 -73 101 -89 48 -16 56 -16 77 -2 13 8 29 25 35 37 9 19 9 21 -2 11 -16 -16 -60 -17 -92 -2 -13 6 -34 32 -45 57 -12 26 -39 81 -60 122 -31 59 -40 91 -46 150 -3 41 -15 92 -25 113 -20 41 -17 40 37 -7 18 -16 25 -17 31 -8 4 7 15 10 23 7 9 -4 18 -3 21 2 9 15 130 7 167 -10 51 -25 140 -105 134 -121 -3 -8 -1 -17 4 -20 5 -3 9 14 10 37 2 39 -2 45 -46 81 -61 50 -105 68 -170 70 -46 1 -50 3 -35 14 32 24 117 10 169 -27 45 -33 67 -35 48 -4 -24 39 -64 57 -136 62 -65 6 -71 8 -51 19 30 17 37 65 19 140 -18 77 -59 150 -92 162 -55 21 -125 -21 -103 -62 9 -17 11 -17 31 2 12 11 28 20 36 20 7 0 0 -12 -17 -26 -17 -14 -28 -30 -25 -35 3 -5 19 2 36 16 19 16 41 25 61 24 l32 -1 -36 -12 c-42 -13 -81 -44 -73 -58 3 -5 16 0 28 11 11 11 35 22 51 25 25 5 23 3 -11 -13 -48 -22 -58 -34 -49 -61 6 -18 8 -18 40 -3 27 13 39 14 57 5 21 -10 19 -11 -18 -11 -29 -1 -46 -7 -60 -23 -19 -21 -19 -21 1 -13 11 4 38 10 60 11 22 2 31 1 20 -2 -78 -20 -85 -25 -85 -56 0 -29 -37 -108 -50 -108 -4 0 -33 9 -66 19 -53 17 -108 30 -186 46 -21 4 -28 11 -28 29 0 14 -7 52 -16 86 -11 42 -15 93 -12 158 l3 95 -29 8 c-16 4 -51 4 -79 -2 -28 -5 -52 -7 -54 -5 -10 10 44 29 83 30 54 1 46 16 -9 16 -47 0 -91 -24 -83 -46 3 -7 1 -16 -4 -19 -23 -14 -7 -22 18 -9 29 15 137 19 146 6 3 -5 -26 -9 -64 -10 -71 -1 -110 -16 -110 -41 0 -12 3 -12 12 -3 17 17 78 15 117 -6 50 -25 52 -42 4 -36 l-38 5 35 -18 c43 -22 57 -69 18 -60 -83 20 -116 19 -138 -3 -12 -12 -19 -24 -16 -28 4 -3 12 0 18 6 13 13 107 16 146 6 12 -4 22 -11 22 -18 0 -7 -27 -10 -86 -8 -74 3 -88 1 -99 -15 -16 -22 -11 -30 9 -14 17 14 178 11 183 -4 2 -6 -25 -9 -73 -7 -77 4 -124 -2 -124 -16 0 -4 12 -7 28 -8 105 -4 182 -17 182 -30 0 -12 -11 -14 -62 -7 -35 4 -86 8 -114 8 l-51 0 -12 100 c-6 55 -14 123 -16 150 -9 94 -16 114 -42 135 -25 19 -101 28 -116 13zM1054 1551 c11 -4 15 -10 10 -13 -10 -6 -54 8 -54 17 0 7 21 5 44 -4zM1520 1410 c12 -7 8 -10 -15 -10 -17 0 -41 -7 -53 -16 -12 -8 -22 -13 -22 -9 0 5 61 45 70 45 3 0 12 -5 20 -10zM832 1302 c4 -4 -18 -7 -48 -7 -47 0 -52 2 -37 13 18 13 70 9 85 -6zM1540 1294 c-37 -8 -88 -9 -84 -2 3 4 26 7 52 7 26 -1 40 -3 32 -5zM1513 1263 c-13 -2 -33 -2 -45 0 -13 2 -3 4 22 4 25 0 35 -2 23 -4zM1107 1227 c17 -18 13 -18 -114 -15 -73 2 -133 5 -133 9 0 3 6 11 13 18 20 21 212 11 234 -12zM1493 1233 c-7 -2 -21 -2 -30 0 -10 3 -4 5 12 5 17 0 24 -2 18 -5zM1203 1099 c32 -123 31 -182 -7 -253 -31 -59 -32 -68 -6 -84 20 -12 28 -62 10 -62 -5 0 -7 7 -4 15 6 16 -12 45 -27 45 -5 0 -9 -6 -9 -14 0 -8 -4 -17 -8 -20 -17 -10 1 99 24 149 29 61 29 71 5 177 -31 135 -34 161 -19 156 7 -3 25 -52 41 -109zM1484 1201 c3 -4 -6 -6 -19 -3 -14 2 -25 6 -25 8 0 8 39 4 44 -5zM980 726 c0 -39 -6 -30 -13 19 -4 27 -3 35 3 25 5 -8 10 -28 10 -44zM1116 732 c-17 -16 -18 -16 -5 5 7 12 15 20 18 17 3 -2 -3 -12 -13 -22zM837 507 c4 -31 10 -44 20 -43 20 1 38 -27 30 -48 -6 -16 -10 -15 -34 5 -21 17 -28 33 -30 62 0 21 -4 50 -8 65 -5 21 -4 24 5 15 7 -6 15 -31 17 -56zM920 499 c0 -12 -27 -11 -35 1 -11 17 5 32 21 19 8 -6 14 -15 14 -20z"/><path d="M1667 1598 c-24 -18 -14 -73 12 -62 32 14 69 16 91 4 29 -15 41 -3 15 17 -14 10 -36 13 -75 10 -53 -5 -54 -4 -25 9 38 17 87 18 104 2 10 -11 12 -9 9 7 -3 17 -12 20 -58 23 -34 2 -62 -2 -73 -10z"/><path d="M1672 1514 c-28 -19 -30 -39 -3 -24 25 13 87 13 112 0 15 -9 19 -7 19 5 0 33 -89 46 -128 19z"/><path d="M910 1505 c-16 -19 -5 -34 12 -17 7 7 37 12 68 12 39 0 51 3 40 10 -24 16 -106 12 -120 -5z"/><path d="M1677 1478 c-17 -6 -27 -16 -25 -26 1 -10 -1 -23 -5 -29 -5 -7 -4 -13 2 -13 5 0 13 5 16 10 9 15 62 12 96 -6 42 -21 31 -27 -23 -13 -60 16 -90 7 -107 -33 -8 -18 -16 -37 -19 -43 -2 -5 1 -4 9 3 7 6 24 12 38 12 32 0 108 -45 114 -67 7 -33 27 35 27 93 0 54 -1 55 -37 70 -22 10 -51 14 -72 10 -24 -4 -31 -2 -24 5 14 14 75 14 101 0 27 -14 32 -14 32 3 0 11 -75 40 -92 35 -2 0 -16 -5 -31 -11zM1758 1374 c20 -8 33 -17 30 -20 -5 -4 -28 4 -98 35 -24 11 -24 11 4 6 17 -4 45 -13 64 -21zM1723 1357 c18 -8 39 -22 47 -32 8 -10 11 -16 5 -14 -5 3 -26 12 -45 21 -19 9 -46 21 -60 26 -25 10 -25 11 -2 11 12 1 37 -5 55 -12z"/><path d="M917 1462 c-25 -27 -21 -33 11 -16 33 17 46 17 95 0 50 -18 48 -2 -3 18 -53 21 -83 20 -103 -2z"/><path d="M1640 1303 c0 -6 18 -13 40 -17 43 -7 64 -29 75 -81 7 -30 7 -30 -12 5 -26 49 -70 72 -122 64 -54 -9 -53 -24 2 -24 23 0 53 -7 65 -16 26 -18 52 -65 57 -103 6 -46 7 -47 16 -11 29 122 29 119 -1 152 -21 23 -39 32 -74 35 -28 4 -46 2 -46 -4z"/><path d="M764 1223 c-12 -2 -30 -13 -40 -24 -21 -23 -7 -25 24 -3 20 14 23 14 28 -3 20 -64 38 -80 51 -47 6 17 -22 85 -34 83 -5 -1 -18 -4 -29 -6z"/><path d="M1470 1105 c0 -10 10 -15 30 -15 57 0 104 -29 173 -105 37 -40 67 -80 67 -89 0 -16 18 -31 27 -22 3 3 0 12 -7 21 -9 10 -9 15 -1 15 23 0 -2 56 -48 103 -65 69 -134 107 -193 107 -36 0 -48 -4 -48 -15z"/><path d="M870 1082 c0 -13 60 -40 153 -69 10 -3 34 6 57 21 46 31 54 54 10 31 -40 -20 -89 -19 -150 5 -56 22 -70 24 -70 12z"/><path d="M1470 1039 c0 -15 5 -19 19 -14 15 4 31 -8 68 -52 26 -32 74 -83 106 -115 31 -31 57 -62 57 -68 0 -6 5 -8 11 -4 6 3 8 18 5 33 -3 14 -3 20 0 13 3 -6 10 -10 15 -6 19 12 7 32 -38 64 -27 19 -77 65 -113 102 -54 57 -70 68 -98 68 -26 0 -32 -4 -32 -21z"/><path d="M894 1022 c19 -22 75 -43 111 -41 11 1 0 7 -25 15 -25 7 -58 21 -75 30 l-30 17 19 -21z"/><path d="M1480 948 c0 -53 38 -137 75 -166 20 -16 23 -22 11 -22 -19 0 -21 -11 -4 -28 22 -22 55 -13 82 22 l25 34 -33 16 c-41 19 -83 73 -106 135 -24 63 -50 68 -50 9z"/><path d="M1282 827 c-7 -16 -12 -39 -12 -53 0 -33 34 -99 62 -119 23 -16 23 -16 -7 -10 -28 5 -28 4 5 -9 21 -9 67 -14 115 -14 66 1 72 2 35 7 -57 9 -106 35 -121 64 -6 12 -21 32 -32 45 -12 13 -24 43 -27 70 -6 47 -7 47 -18 19z"/><path d="M1684 785 c-9 -14 -14 -28 -12 -31 8 -8 38 25 38 42 0 20 -7 17 -26 -11z"/><path d="M252 702 c-24 -4 -26 -22 -2 -30 8 -3 10 0 5 8 -6 9 -3 10 11 2 26 -14 70 -62 57 -62 -6 0 -13 6 -16 14 -3 9 -15 12 -31 9 -16 -3 -26 -1 -26 6 0 17 -43 31 -57 19 -18 -14 -16 -28 3 -28 8 0 12 -5 9 -10 -4 -6 32 -48 80 -94 72 -70 94 -85 128 -90 39 -7 44 -5 75 28 25 28 32 45 33 78 0 33 2 38 9 23 16 -37 10 -79 -16 -116 -21 -30 -24 -41 -15 -58 16 -30 13 -33 -9 -11 -11 11 -26 20 -32 20 -7 0 -2 -7 10 -16 15 -10 22 -25 22 -47 0 -29 1 -30 17 -15 10 10 16 31 15 53 -1 24 7 49 23 73 29 43 31 69 8 116 -14 31 -20 34 -47 30 -51 -9 -56 -12 -56 -38 0 -38 -35 -56 -93 -47 -68 11 -73 25 -6 17 46 -5 59 -3 72 12 23 25 26 66 5 70 -12 2 -17 -5 -20 -24 -4 -34 -43 -48 -103 -37 l-40 8 60 5 c51 4 61 9 72 30 8 17 9 28 1 37 -16 20 -26 15 -30 -14 -3 -25 -7 -28 -43 -30 -40 -1 -40 -1 -6 5 27 6 36 13 42 35 7 25 4 29 -39 50 -26 13 -57 21 -70 19zM500 561 c0 -44 -44 -91 -85 -91 -18 0 -38 7 -45 15 -12 14 -8 15 27 9 35 -5 42 -3 62 22 12 15 24 38 27 51 8 31 14 29 14 -6z"/><path d="M265 660 c3 -5 11 -10 16 -10 6 0 7 5 4 10 -3 6 -11 10 -16 10 -6 0 -7 -4 -4 -10z"/><path d="M567 637 c-14 -21 -13 -26 9 -63 30 -49 30 -58 -1 -116 -14 -26 -25 -62 -25 -81 0 -18 -6 -39 -12 -46 -11 -11 -10 -13 2 -9 8 2 23 28 32 58 23 69 31 76 24 20 -7 -57 -35 -110 -59 -110 -17 0 -17 -2 -3 -22 22 -31 20 -60 -5 -92 -36 -46 -84 -23 -95 46 -5 30 -2 38 21 56 16 13 22 22 13 22 -8 0 -19 -5 -26 -12 -9 -9 -13 -4 -18 20 -4 18 -11 35 -15 38 -13 8 -11 -50 2 -63 13 -13 -2 -70 -28 -112 -14 -22 -14 -25 3 -38 14 -10 19 -10 26 0 6 9 8 7 8 -5 0 -10 11 -19 30 -23 80 -18 213 28 298 103 l44 38 -31 33 c-36 39 -37 42 -13 68 9 10 16 17 15 15 -1 -2 9 -19 22 -38 13 -20 21 -42 18 -50 -10 -26 4 -14 31 26 18 27 22 40 13 40 -7 0 -24 11 -37 25 -12 13 -26 22 -30 20 -4 -2 -7 8 -7 23 1 36 -29 139 -47 168 -13 19 -118 84 -137 84 -4 0 -13 -10 -22 -23zM634 600 c59 -34 65 -41 78 -115 19 -106 19 -129 0 -160 -18 -29 -18 -30 6 -72 19 -35 21 -43 8 -43 -8 0 -20 8 -25 18 -26 44 -42 57 -50 43 -6 -9 -1 -26 11 -48 14 -24 18 -37 10 -45 -7 -7 -18 2 -35 27 l-25 37 28 42 c60 88 67 222 15 276 -16 17 -33 30 -39 30 -5 0 1 -12 15 -26 22 -24 24 -32 21 -116 -2 -77 -7 -98 -33 -151 -32 -62 -32 -75 -3 -143 2 -6 -2 -11 -10 -11 -8 0 -22 18 -32 39 l-18 39 37 77 c28 61 37 93 40 150 4 70 3 76 -29 123 -49 71 -48 73 30 29zM560 130 c0 -5 -4 -10 -10 -10 -5 0 -10 5 -10 10 0 6 5 10 10 10 6 0 10 -4 10 -10z"/><path d="M701 407 c-1 -21 -8 -54 -16 -74 -20 -47 -12 -54 14 -12 22 36 25 70 11 104 -7 16 -9 12 -9 -18z"/><path d="M204 583 c3 -16 16 -22 16 -8 0 3 0 10 0 15 0 6 -4 10 -9 10 -5 0 -8 -8 -7 -17z"/><path d="M176 557 c3 -10 9 -15 12 -12 3 3 0 11 -7 18 -10 9 -11 8 -5 -6z"/><path d="M250 525 c14 -10 47 -39 74 -64 26 -25 43 -37 36 -26 -14 23 -102 98 -122 103 -7 2 -2 -4 12 -13z"/><path d="M230 496 c0 -2 16 -23 35 -46 81 -97 123 -199 81 -200 -6 0 -20 -7 -31 -16 -17 -12 -18 -17 -7 -35 11 -17 11 -20 0 -13 -10 6 -9 4 1 -10 8 -9 20 -15 28 -12 9 4 11 1 7 -5 -4 -7 -1 -10 7 -7 8 3 14 16 14 31 1 14 9 34 18 45 19 21 22 48 7 57 -6 4 -7 11 -4 17 5 7 2 8 -6 3 -9 -6 -10 -1 -5 16 4 15 3 19 -3 11 -6 -9 -14 -2 -26 27 -15 32 -116 152 -116 137z"/><path d="M297 460 c23 -25 49 -61 57 -80 8 -19 15 -29 16 -22 0 24 -28 67 -72 107 l-43 40 42 -45z"/><path d="M394 399 c-4 -7 -3 -9 4 -5 5 3 13 0 15 -6 4 -9 6 -10 6 -1 1 17 -16 25 -25 12z"/><path d="M450 334 c0 -8 5 -12 10 -9 6 3 10 10 10 16 0 5 -4 9 -10 9 -5 0 -10 -7 -10 -16z"/><path d="M466 261 c-12 -13 -14 -21 -6 -26 5 -3 7 -11 4 -17 -4 -7 -2 -8 5 -4 6 4 20 2 29 -6 16 -12 16 -11 2 6 -14 18 -13 19 3 13 18 -7 22 8 11 37 -8 21 -27 20 -48 -3z"/></g><g transform="scale(0.05, 0.05)" fill="rgb(218, 218, 225)" stroke="none"><path d="M934 1971 c3 -5 -1 -12 -10 -15 -10 -4 -13 -2 -9 7 4 6 1 5 -7 -4 -7 -9 -24 -16 -38 -15 -19 1 -26 -5 -28 -21 -4 -28 1 -29 36 -3 36 27 96 29 122 5 11 -10 20 -23 20 -30 0 -6 6 -19 13 -30 13 -16 14 -15 9 13 -5 38 -62 102 -91 102 -12 0 -20 -4 -17 -9z"/><path d="M868 1893 c-6 -7 -7 -20 -4 -29 5 -14 9 -13 32 5 15 12 36 21 48 22 11 0 30 4 41 9 14 6 0 8 -43 7 -36 -1 -68 -7 -74 -14z"/><path d="M897 1853 c-4 -3 -7 -16 -7 -27 0 -12 3 -16 8 -10 15 24 55 36 96 30 29 -4 37 -3 26 4 -17 11 -113 14 -123 3z"/><path d="M923 1803 c-36 -25 -27 -33 14 -12 45 23 50 23 86 5 15 -8 27 -11 27 -6 0 30 -90 39 -127 13z"/><path d="M932 1764 c-12 -8 -22 -20 -22 -25 0 -6 10 -3 22 5 29 21 77 20 107 -1 18 -12 23 -13 19 -2 -12 36 -88 50 -126 23z"/><path d="M1637 1755 c-19 -18 -21 -33 -8 -53 6 -10 10 -10 21 3 18 21 110 21 110 -1 0 -10 -6 -13 -17 -10 -10 3 -25 1 -33 -4 -12 -8 -12 -10 5 -10 11 0 30 -3 42 -6 19 -5 21 -2 18 21 -4 38 -35 66 -82 72 -29 4 -44 1 -56 -12z"/><path d="M942 1723 c-7 -2 -17 -14 -24 -26 -11 -22 -11 -22 11 -2 23 20 80 26 116 11 20 -8 20 -7 1 8 -19 15 -76 20 -104 9z"/><path d="M938 1679 c-26 -15 -23 -32 3 -18 12 6 45 9 75 7 44 -4 52 -2 43 9 -13 15 -96 17 -121 2z"/><path d="M693 1673 c-7 -2 -13 -13 -13 -24 0 -16 3 -18 19 -9 31 16 37 12 13 -10 -24 -23 -27 -35 -12 -45 6 -3 10 -1 10 4 0 6 7 11 17 11 15 0 15 -1 0 -18 -26 -28 -22 -47 5 -28 26 18 61 20 89 6 16 -9 19 -7 19 10 0 38 -28 90 -55 100 -27 10 -71 12 -92 3zM795 1600 c3 -5 -1 -10 -10 -10 -9 0 -13 5 -10 10 3 6 8 10 10 10 2 0 7 -4 10 -10z"/><path d="M1643 1673 c-7 -2 -13 -9 -13 -14 0 -14 26 -10 40 6 10 12 10 15 -1 14 -8 0 -20 -3 -26 -6z"/><path d="M934 1634 c-18 -14 -18 -15 6 -8 14 4 43 11 65 15 l40 6 -46 2 c-27 1 -53 -5 -65 -15z"/><path d="M1745 1635 c42 -13 60 -10 35 5 -8 6 -28 9 -45 9 -29 -1 -28 -2 10 -14z"/><path d="M1655 1629 c-12 -19 5 -23 22 -6 16 16 16 17 1 17 -9 0 -20 -5 -23 -11z"/><path d="M938 1598 c-16 -5 -28 -14 -28 -19 0 -6 7 -6 18 -1 30 16 121 23 142 12 11 -6 20 -7 20 -1 0 22 -100 28 -152 9z"/><path d="M1672 1599 c-12 -5 -22 -14 -22 -20 0 -7 8 -9 23 -3 12 4 45 8 73 8 38 1 50 4 46 14 -5 14 -83 15 -120 1z"/><path d="M931 1558 c-14 -7 -26 -18 -28 -25 -3 -9 4 -8 25 2 25 13 35 13 80 0 28 -9 56 -23 62 -33 8 -13 10 -8 8 23 l-3 40 -60 3 c-34 1 -71 -3 -84 -10zM1055 1552 c6 -4 11 -13 13 -20 2 -9 -7 -8 -30 4 -18 9 -35 18 -37 20 -8 7 44 4 54 -4z"/><path d="M1678 1559 c-25 -14 -23 -33 1 -19 25 13 67 13 93 -1 27 -14 36 -2 12 16 -22 17 -81 19 -106 4z"/><path d="M1415 1542 c-28 -6 -55 -32 -55 -54 0 -23 2 -23 42 2 35 21 65 25 86 11 9 -5 3 -8 -18 -9 -38 -1 -80 -26 -80 -49 0 -12 6 -9 25 11 17 19 34 26 60 26 41 0 44 9 13 37 -28 24 -46 31 -73 25z"/><path d="M730 1530 c-24 -15 -6 -21 29 -9 17 6 43 8 56 5 14 -4 25 -2 25 4 0 13 -90 13 -110 0z"/><path d="M1683 1520 c-13 -5 -23 -14 -23 -20 0 -7 7 -7 21 1 19 10 68 7 105 -8 8 -3 14 -1 14 5 0 11 -54 32 -79 31 -9 0 -26 -4 -38 -9z"/><path d="M916 1504 c-23 -23 -21 -23 26 -7 23 8 53 12 67 8 20 -4 22 -3 11 5 -23 15 -87 12 -104 -6z"/><path d="M753 1500 c-13 -5 -23 -14 -23 -20 0 -7 6 -8 19 0 26 14 74 13 89 -2 7 -7 12 -8 12 -2 0 31 -50 43 -97 24z"/><path d="M1040 1471 c19 -11 37 -17 39 -15 8 8 -13 21 -44 28 -30 6 -30 6 5 -13z"/><path d="M932 1473 c-7 -2 -17 -14 -23 -25 -10 -19 -10 -19 15 -2 25 16 57 16 111 0 11 -4 2 3 -20 14 -40 20 -59 23 -83 13z"/><path d="M1664 1464 c-19 -15 -19 -16 1 -9 44 16 53 16 93 2 45 -16 60 -3 16 13 -38 15 -88 12 -110 -6z"/><path d="M753 1457 c-19 -10 -14 -12 38 -12 58 0 74 7 43 19 -24 9 -57 7 -81 -7z"/><path d="M1432 1444 c-12 -8 -22 -21 -22 -29 0 -9 9 -5 26 11 20 21 33 25 64 22 21 -2 36 0 34 4 -9 14 -79 8 -102 -8z"/><path d="M1673 1440 c-35 -14 -28 -18 20 -13 29 4 54 0 75 -11 18 -9 32 -12 32 -7 0 10 -73 41 -93 40 -6 0 -22 -4 -34 -9z"/><path d="M764 1430 c-38 -15 -37 -29 1 -17 26 8 42 7 61 -2 29 -13 37 -11 26 6 -10 15 -63 23 -88 13z"/><path d="M1473 1429 c-18 -5 -37 -18 -43 -29 -14 -26 -6 -25 31 2 25 19 34 21 59 11 33 -12 41 0 11 17 -11 5 -21 10 -23 9 -2 0 -18 -5 -35 -10z"/><path d="M916 1414 c-19 -18 -21 -28 -5 -18 6 4 46 6 88 6 l76 0 -60 13 c-77 18 -81 18 -99 -1z"/><path d="M1653 1398 c-22 -29 -23 -36 -3 -31 29 8 82 -5 110 -27 36 -28 18 -35 -29 -11 -22 12 -55 20 -73 20 -31 -1 -30 -2 8 -8 23 -4 58 -19 77 -34 38 -29 53 -34 41 -16 -3 6 -1 15 7 19 10 7 10 11 -1 25 -20 24 -47 36 -99 44 -37 6 -42 10 -27 16 13 6 40 1 79 -13 33 -12 57 -16 55 -10 -4 12 -81 38 -114 38 -12 0 -26 -6 -31 -12z"/><path d="M744 1385 c-17 -13 -16 -14 15 -4 23 8 43 9 67 1 19 -5 34 -7 34 -2 0 22 -88 26 -116 5z"/><path d="M1461 1387 c-14 -6 -26 -18 -29 -25 -3 -10 3 -9 22 3 18 12 37 16 61 12 39 -6 48 7 13 17 -32 8 -40 7 -67 -7z"/><path d="M753 1360 c-13 -5 -23 -11 -23 -12 0 -2 31 -3 70 -3 38 0 66 3 62 7 -12 12 -86 18 -109 8z"/><path d="M902 1358 c-7 -7 -12 -16 -12 -22 0 -6 5 -5 12 2 7 7 40 12 79 12 37 0 71 5 74 10 9 15 -138 13 -153 -2z"/><path d="M1458 1349 c-10 -5 -18 -15 -18 -21 0 -7 5 -6 15 2 8 7 34 11 60 8 31 -2 45 1 45 9 0 16 -77 17 -102 2z"/><path d="M754 1330 c-12 -5 -25 -14 -30 -21 -5 -9 -2 -10 12 -4 40 16 62 16 94 0 17 -9 30 -19 27 -22 -3 -2 -14 0 -25 6 -28 15 -73 13 -94 -3 -24 -18 -23 -29 1 -16 40 21 146 1 110 -20 -11 -7 -11 -13 0 -33 16 -30 78 -42 199 -39 45 1 82 -1 82 -5 1 -5 6 -42 12 -83 18 -124 15 -187 -15 -264 -14 -37 -34 -77 -43 -87 -23 -26 0 -25 26 1 22 22 29 4 8 -20 -7 -8 -3 -6 10 4 16 14 22 30 22 58 0 21 8 55 19 76 32 65 32 85 1 228 -16 76 -30 139 -30 141 0 2 -5 3 -11 3 -6 0 -8 -7 -5 -16 4 -11 1 -14 -12 -10 -9 3 -70 6 -134 8 -87 1 -118 5 -118 14 0 7 5 16 11 20 13 8 182 6 207 -3 13 -4 14 -3 6 6 -11 12 -179 35 -201 27 -8 -4 -13 3 -13 19 0 13 -3 26 -7 28 -18 11 -90 15 -109 7z"/><path d="M908 1319 c-11 -7 22 -13 139 -24 54 -5 62 -4 57 10 -3 8 -11 16 -18 16 -42 6 -168 4 -178 -2z"/><path d="M1451 1306 c-9 -11 -5 -12 28 -3 28 8 46 8 63 0 20 -10 17 -12 -28 -12 -28 -1 -56 -7 -62 -13 -8 -10 3 -12 51 -8 55 4 62 8 65 28 3 20 0 22 -51 22 -34 0 -59 -5 -66 -14z"/><path d="M1686 1291 c52 -24 74 -55 73 -101 l-1 -35 -9 30 c-4 17 -22 44 -39 60 -24 23 -38 28 -71 27 -57 -3 -61 -10 -10 -18 52 -8 89 -37 108 -83 l15 -35 13 24 c7 14 11 28 9 32 -3 4 -1 15 4 24 15 27 -45 83 -93 89 l-40 5 41 -19z"/><path d="M738 1249 c-31 -17 -20 -28 12 -12 18 8 41 12 55 9 14 -4 25 -2 25 4 0 13 -70 12 -92 -1z"/><path d="M1475 1250 l-40 -7 52 -2 c28 0 55 4 58 9 7 11 -9 11 -70 0z"/><path d="M787 1224 c-13 -14 -7 -52 12 -75 17 -21 20 -22 26 -7 7 18 -27 93 -38 82z"/><path d="M1175 1212 c24 -77 55 -222 55 -259 0 -26 -9 -61 -22 -86 -34 -63 -37 -80 -18 -102 27 -31 35 -65 15 -65 -9 0 -15 6 -12 13 5 14 -10 47 -22 47 -5 0 -11 -8 -15 -17 -3 -10 -8 -23 -11 -29 -5 -10 27 -22 103 -38 20 -4 22 -1 16 17 -4 12 -15 39 -26 61 l-20 38 27 59 c25 57 26 62 16 164 -10 115 -46 215 -76 215 -11 0 -15 -6 -10 -18z"/><path d="M1430 1222 c0 -5 14 -9 32 -10 17 0 34 -4 37 -9 3 -4 35 -8 71 -8 60 0 70 -3 108 -34 45 -35 61 -36 42 -2 -20 38 -86 64 -152 59 -32 -2 -58 -1 -58 4 0 4 -18 8 -40 8 -22 0 -40 -4 -40 -8z"/><path d="M734 1206 c-10 -8 -17 -17 -14 -19 3 -3 16 3 30 13 29 22 14 27 -16 6z"/><path d="M1276 1190 c18 -21 23 -43 28 -126 15 -230 85 -378 194 -410 29 -8 43 -8 65 3 37 18 34 27 -9 31 -19 1 -43 6 -53 11 -9 5 -45 65 -78 133 -53 105 -63 136 -72 207 -12 90 -31 134 -71 159 l-25 16 21 -24z"/><path d="M1409 1183 c-13 -15 -12 -15 5 -6 12 7 29 8 43 2 12 -4 25 -4 28 0 6 10 -18 21 -45 21 -9 0 -24 -8 -31 -17z"/><path d="M1352 1153 c38 -38 58 -40 39 -5 -6 11 -25 25 -43 31 l-33 12 37 -38z"/><path d="M735 1150 c4 -14 22 -47 40 -75 18 -27 40 -65 49 -82 10 -21 34 -42 64 -57 26 -13 65 -43 87 -66 37 -37 40 -46 40 -95 0 -63 -20 -96 -21 -36 -2 50 -40 101 -115 152 -63 43 -78 60 -128 148 -19 34 -40 61 -48 61 -18 0 -17 -4 11 -48 12 -20 35 -62 50 -93 20 -44 39 -65 85 -97 69 -49 105 -116 99 -186 l-3 -42 41 44 c23 24 46 43 50 41 34 -10 112 230 94 290 -9 28 -9 28 -16 -8 -2 -13 -13 -54 -23 -90 -11 -36 -22 -87 -26 -112 -3 -26 -11 -54 -18 -63 -27 -36 -3 165 28 238 15 35 -34 -2 -52 -40 -19 -38 -25 -41 -44 -18 -7 9 -38 29 -70 44 -60 31 -99 70 -99 100 0 10 -9 29 -20 42 -11 12 -29 34 -40 48 l-21 25 6 -25zM980 756 c5 -14 5 -36 0 -53 -8 -28 -8 -27 -9 9 -1 20 -4 43 -7 52 -3 9 -3 16 0 16 4 0 11 -11 16 -24z"/><path d="M1439 1157 c5 -5 40 -10 78 -11 77 -3 133 -28 187 -85 31 -33 56 -40 56 -17 0 20 -76 85 -126 107 -32 15 -62 19 -123 17 -45 -1 -77 -6 -72 -11z"/><path d="M860 1137 c0 -8 32 -19 83 -31 81 -18 82 -17 132 4 l50 21 -75 -5 c-54 -4 -82 -1 -100 9 -32 18 -90 19 -90 2z"/><path d="M1470 1105 c0 -10 10 -15 34 -15 60 0 93 -20 166 -101 39 -43 76 -79 81 -79 5 0 8 12 7 26 -3 32 -111 141 -166 166 -48 22 -122 24 -122 3z"/><path d="M882 1074 c9 -9 21 -13 28 -9 14 9 -5 25 -30 25 -12 0 -12 -3 2 -16z"/><path d="M1085 1060 c-11 -5 -31 -9 -45 -9 -19 -1 -26 -7 -27 -22 -2 -18 2 -20 25 -14 15 3 38 17 52 31 26 26 26 27 -5 14z"/><path d="M1477 1053 c-11 -10 -8 -35 3 -28 22 14 53 -10 111 -87 34 -44 77 -89 95 -100 20 -12 34 -28 34 -40 0 -11 4 -16 11 -12 6 3 8 17 4 31 -3 15 -2 22 4 19 5 -4 12 -2 15 3 3 4 -21 29 -54 55 -33 26 -76 67 -96 92 -48 59 -106 89 -127 67z"/><path d="M900 1022 c0 -15 28 -28 75 -35 l40 -6 -44 14 c-24 8 -49 20 -57 26 -10 8 -14 8 -14 1z"/><path d="M670 1005 c-10 -12 -10 -19 -3 -23 6 -4 20 -31 32 -61 11 -30 30 -64 42 -77 13 -13 17 -24 11 -24 -17 0 -48 33 -67 70 -13 25 -19 29 -30 20 -11 -9 -9 -15 11 -35 13 -13 24 -29 24 -35 0 -6 38 -28 84 -50 72 -33 88 -44 110 -82 17 -29 26 -60 26 -87 0 -26 4 -40 10 -36 6 3 10 0 10 -7 0 -7 6 -4 12 6 8 15 8 21 0 24 -7 2 -12 22 -12 45 0 71 -34 122 -113 175 -67 44 -72 51 -93 110 -26 76 -36 89 -54 67z"/><path d="M1480 962 c0 -55 30 -131 66 -167 23 -23 29 -35 19 -35 -22 0 -19 -17 5 -30 27 -14 50 -6 74 27 19 26 19 27 0 37 -10 6 -36 28 -56 49 -21 20 -42 37 -48 37 -6 0 -8 5 -4 12 5 8 2 9 -9 5 -10 -3 -17 -2 -17 3 0 6 6 10 13 11 6 0 3 4 -8 9 l-20 9 20 1 c20 1 20 1 1 15 -11 8 -15 15 -8 15 6 0 9 7 6 15 -10 26 -34 17 -34 -13zM1560 846 c0 -2 -7 -7 -16 -10 -8 -3 -12 -2 -9 4 6 10 25 14 25 6zM1565 820 c-3 -5 -12 -10 -18 -10 -7 0 -6 4 3 10 19 12 23 12 15 0z"/><path d="M1745 891 c-3 -5 -1 -12 5 -16 5 -3 10 1 10 9 0 18 -6 21 -15 7z"/><path d="M1283 823 c-27 -46 -14 -91 45 -155 18 -20 22 -28 11 -29 -35 -3 52 -17 106 -17 59 0 59 0 18 8 -56 12 -80 25 -100 58 -9 15 -27 38 -39 52 -14 15 -24 41 -26 65 -3 37 -4 39 -15 18z"/><path d="M626 805 c-3 -8 -1 -15 4 -15 6 0 20 -11 32 -25 12 -14 47 -34 77 -46 90 -33 131 -85 131 -164 0 -23 4 -34 11 -30 5 4 19 -1 30 -11 18 -16 19 -16 19 9 0 20 -5 27 -19 27 -15 0 -19 10 -23 51 -7 68 -31 97 -118 141 -40 21 -83 46 -95 58 -25 24 -41 26 -49 5z"/><path d="M1682 774 c-7 -14 -8 -23 -2 -19 15 9 32 45 22 45 -5 0 -14 -12 -20 -26z"/><path d="M610 722 c0 -17 72 -72 95 -72 26 0 56 -50 75 -125 11 -43 20 -86 20 -97 0 -10 4 -17 10 -15 5 1 21 -11 34 -28 22 -26 25 -28 31 -12 5 12 -1 25 -18 41 -14 13 -28 21 -31 18 -3 -3 -6 20 -6 52 0 32 -5 66 -10 77 -6 10 -7 19 -2 19 12 0 30 -45 35 -85 3 -19 5 -11 5 20 1 35 -4 60 -19 85 -26 42 -43 55 -90 69 -20 6 -53 24 -74 41 -43 35 -55 37 -55 12z"/><path d="M278 675 c17 -14 35 -25 41 -25 6 0 11 -7 11 -15 0 -11 -7 -14 -25 -9 -15 4 -25 2 -25 -5 0 -6 -8 -8 -17 -4 -14 4 -15 3 -7 -6 7 -7 30 -11 55 -9 39 3 44 6 47 29 2 21 -4 31 -31 48 -19 11 -44 21 -56 21 -21 0 -21 -2 7 -25z"/><path d="M190 661 c0 -6 5 -13 10 -16 6 -3 10 1 10 9 0 9 -4 16 -10 16 -5 0 -10 -4 -10 -9z"/><path d="M220 656 c0 -2 7 -6 15 -10 8 -3 15 -1 15 4 0 6 -7 10 -15 10 -8 0 -15 -2 -15 -4z"/><path d="M575 649 c-9 -13 -11 -11 52 -43 60 -30 83 -58 83 -102 0 -17 7 -51 15 -74 8 -23 12 -54 9 -69 l-5 -26 20 24 c25 28 26 50 5 133 -22 86 -33 101 -105 137 -72 36 -66 34 -74 20z"/><path d="M376 641 c-4 -6 -5 -15 -2 -19 12 -19 -14 -33 -63 -34 -41 0 -58 5 -79 24 -21 18 -23 19 -9 2 9 -11 17 -25 17 -31 0 -15 147 -133 165 -133 7 0 20 -2 28 -6 21 -8 74 41 80 76 4 16 2 40 -3 52 -8 20 -9 19 -9 -13 -2 -70 -87 -117 -138 -76 -24 18 -13 25 24 16 33 -7 41 -5 64 17 30 29 44 84 22 84 -7 0 -13 -8 -13 -19 0 -10 -9 -30 -21 -45 -19 -24 -25 -26 -72 -20 -31 4 -58 14 -67 24 -8 10 -22 20 -30 23 -8 3 13 6 48 6 56 1 64 4 73 25 12 26 -2 69 -15 47z"/><path d="M410 590 c0 -26 -4 -30 -37 -35 -68 -11 -69 -13 -10 -14 52 -1 59 1 69 23 11 26 5 56 -12 56 -5 0 -10 -13 -10 -30z"/><path d="M575 583 c31 -47 31 -71 1 -131 -27 -53 -45 -151 -22 -119 8 9 16 35 20 57 8 50 26 63 26 18 0 -45 -48 -147 -60 -128 -5 8 -11 12 -14 10 -2 -3 4 -16 15 -29 23 -28 19 -31 54 39 22 44 28 72 32 145 4 89 4 90 -28 133 -41 52 -59 56 -24 5z"/><path d="M525 593 c28 -69 25 -93 -15 -143 -19 -24 -20 -28 -6 -60 l15 -35 1 35 c0 19 12 53 25 75 29 47 31 63 8 110 -17 35 -42 51 -28 18z"/><path d="M630 576 c0 -4 7 -18 16 -31 27 -42 15 -175 -24 -251 l-31 -61 16 -52 c10 -28 22 -50 27 -48 20 6 18 47 -3 76 -21 30 -27 51 -13 51 4 0 19 22 34 48 23 40 27 62 29 128 1 45 -3 90 -9 101 -12 21 -42 50 -42 39z"/><path d="M866 495 c-3 -8 6 -27 19 -41 14 -15 25 -22 25 -16 0 6 2 17 6 25 3 8 -5 21 -20 30 -21 14 -25 14 -30 2z"/><path d="M698 390 c-3 -30 -9 -64 -13 -75 l-7 -20 14 20 c21 28 27 59 19 97 -7 31 -8 29 -13 -22z"/><path d="M774 366 c-3 -8 5 -31 19 -51 l24 -36 16 24 c15 23 14 26 -6 44 -34 31 -47 36 -53 19z"/><path d="M346 337 c3 -10 9 -15 12 -12 3 3 0 11 -7 18 -10 9 -11 8 -5 -6z"/><path d="M710 316 c-11 -14 -9 -23 11 -60 22 -43 24 -44 46 -29 l24 16 -24 26 c-13 14 -29 34 -34 44 -9 17 -11 17 -23 3z"/><path d="M410 292 c0 -5 7 -15 15 -22 8 -7 15 -8 15 -2 0 5 -7 15 -15 22 -8 7 -15 8 -15 2z"/><path d="M365 271 c-3 -11 -14 -23 -25 -26 -35 -11 -44 -32 -22 -55 l19 -21 32 42 c35 49 36 52 17 68 -11 10 -16 8 -21 -8z"/><path d="M478 269 c-25 -14 -22 -26 7 -31 31 -6 39 3 22 25 -9 12 -16 14 -29 6z"/><path d="M650 265 c-7 -8 -8 -15 -2 -15 5 0 15 -14 22 -31 11 -25 11 -35 1 -51 -12 -20 -11 -19 18 1 17 12 31 24 31 27 0 2 -13 22 -29 44 -25 34 -30 38 -41 25z"/><path d="M393 190 c-21 -49 -21 -50 -2 -60 15 -8 19 -7 19 4 0 8 5 18 10 21 7 4 9 -3 5 -22 -5 -21 -4 -24 4 -13 6 9 11 10 11 3 0 -6 13 -14 30 -18 33 -7 73 2 65 15 -3 4 3 14 12 21 15 12 16 12 11 -7 -4 -17 -1 -20 23 -16 16 2 29 8 29 13 0 5 -6 6 -13 3 -8 -3 -14 1 -14 8 -1 22 -32 84 -33 65 0 -29 -44 -67 -69 -60 -22 6 -51 50 -51 78 0 29 -15 15 -37 -35z"/></g><g transform="scale(0.05, 0.05)" fill="rgb(11, 11, 15)" stroke="none"><path d="M944 1959 c-4 -7 1 -9 14 -7 11 2 30 -6 42 -17 l23 -20 -18 28 c-18 27 -48 36 -61 16z"/><path d="M846 1934 c-11 -28 -6 -39 9 -20 8 11 15 23 15 28 0 14 -18 9 -24 -8z"/><path d="M932 1900 c-18 -4 -36 -11 -39 -14 -9 -8 58 5 77 15 18 10 7 10 -38 -1z"/><path d="M865 1870 c3 -5 8 -10 11 -10 2 0 4 5 4 10 0 6 -5 10 -11 10 -5 0 -7 -4 -4 -10z"/><path d="M908 1849 c-10 -5 -18 -15 -18 -21 0 -6 8 -4 18 5 9 8 33 17 52 20 l35 4 -35 1 c-19 1 -43 -3 -52 -9z"/><path d="M928 1798 c-13 -13 -17 -17 -8 -11 30 24 78 27 107 8 l28 -18 -19 21 c-26 29 -78 29 -108 0z"/><path d="M948 1769 c-14 -6 -29 -17 -33 -26 -5 -15 -4 -15 13 0 21 19 91 23 110 7 8 -6 8 -5 0 4 -18 20 -58 27 -90 15z"/><path d="M1647 1759 c-10 -6 -17 -22 -17 -37 l0 -27 18 21 c23 29 51 38 58 19 4 -9 19 -15 37 -15 31 0 31 0 12 20 -23 22 -83 33 -108 19z"/><path d="M944 1714 c-18 -15 -18 -15 3 -5 12 6 34 11 48 11 14 0 36 -5 48 -11 21 -10 21 -10 3 5 -11 9 -34 16 -51 16 -17 0 -40 -7 -51 -16z"/><path d="M939 1670 l-24 -20 33 16 c22 11 45 14 75 9 31 -4 38 -3 27 4 -25 18 -86 13 -111 -9z"/><path d="M1721 1686 c2 -2 18 -6 34 -10 22 -5 26 -4 15 4 -14 9 -59 15 -49 6z"/><path d="M698 1669 c-10 -5 -18 -17 -18 -26 0 -11 3 -13 13 -5 18 16 90 22 105 10 21 -18 13 -30 -18 -26 -16 3 -30 1 -30 -4 0 -4 9 -8 19 -8 27 0 51 -10 51 -22 0 -5 -9 -6 -20 -3 -23 7 -90 -12 -90 -26 0 -12 17 -12 25 1 9 14 78 13 93 -2 15 -15 15 -9 1 48 -6 25 -19 48 -28 53 -29 15 -86 21 -103 10z"/><path d="M1650 1670 c-8 -5 -12 -12 -9 -15 4 -3 12 1 19 10 14 17 11 19 -10 5z"/><path d="M983 1643 c9 -2 23 -2 30 0 6 3 -1 5 -18 5 -16 0 -22 -2 -12 -5z"/><path d="M1740 1640 c34 -11 60 -11 35 0 -11 5 -29 8 -40 8 -16 0 -15 -2 5 -8z"/><path d="M935 1630 c-3 -6 1 -7 9 -4 18 7 21 14 7 14 -6 0 -13 -4 -16 -10z"/><path d="M1660 1630 c-8 -5 -12 -12 -9 -15 4 -3 12 1 19 10 14 17 11 19 -10 5z"/><path d="M960 1603 c-14 -3 -29 -9 -35 -14 -7 -7 -5 -8 5 -5 8 4 42 10 75 15 46 7 51 9 20 8 -22 0 -51 -2 -65 -4z"/><path d="M1735 1600 c3 -5 17 -10 31 -10 14 0 22 4 19 10 -3 6 -17 10 -31 10 -14 0 -22 -4 -19 -10z"/><path d="M1670 1590 c-24 -15 -7 -19 20 -5 15 8 19 14 10 14 -8 1 -22 -3 -30 -9z"/><path d="M941 1557 c-19 -7 -37 -19 -39 -27 -4 -10 0 -9 13 4 14 14 28 17 59 13 28 -4 36 -3 25 4 -10 8 0 9 35 6 30 -3 43 -1 35 4 -20 12 -88 10 -128 -4z"/><path d="M1683 1558 c-13 -6 -23 -15 -23 -21 0 -5 7 -4 15 3 10 8 33 11 67 8 46 -5 49 -4 33 8 -22 16 -61 17 -92 2z"/><path d="M734 1524 c-18 -14 -18 -15 5 -4 13 7 40 10 61 8 21 -2 36 0 34 4 -9 14 -80 8 -100 -8z"/><path d="M1020 1536 c0 -2 7 -7 16 -10 8 -3 12 -2 9 4 -6 10 -25 14 -25 6z"/><path d="M1379 1522 c-16 -13 -20 -24 -15 -38 4 -11 10 -14 14 -8 9 15 67 44 87 44 9 0 13 5 10 10 -10 17 -71 11 -96 -8z"/><path d="M1065 1521 c-3 -5 -2 -12 3 -15 5 -3 9 1 9 9 0 17 -3 19 -12 6z"/><path d="M924 1505 c-18 -14 -17 -14 11 -6 57 17 60 19 34 20 -14 1 -34 -6 -45 -14z"/><path d="M1673 1513 c-7 -2 -13 -10 -13 -16 0 -8 4 -7 12 1 15 15 57 16 92 2 14 -5 26 -6 26 -1 0 18 -83 28 -117 14z"/><path d="M758 1498 c-16 -5 -28 -14 -28 -19 0 -6 9 -5 21 2 12 6 37 9 55 7 38 -4 46 6 12 16 -27 7 -26 7 -60 -6z"/><path d="M1412 1467 c-12 -13 -22 -27 -22 -32 0 -5 7 0 15 13 9 12 30 26 48 31 30 8 30 9 6 10 -15 1 -35 -9 -47 -22z"/><path d="M1056 1466 c10 -8 21 -12 24 -10 5 6 -21 24 -34 24 -6 0 -1 -6 10 -14z"/><path d="M1673 1472 c-6 -4 10 -7 35 -7 26 0 58 -4 72 -8 l25 -8 -25 15 c-26 16 -87 21 -107 8z"/><path d="M802 1460 c14 -4 32 -11 40 -15 7 -3 4 1 -6 9 -11 9 -29 16 -40 15 -17 -1 -16 -2 6 -9z"/><path d="M919 1453 c-13 -16 -12 -17 4 -4 11 9 32 12 63 8 29 -3 41 -1 33 4 -25 15 -86 10 -100 -8z"/><path d="M1445 1448 c-22 -12 -35 -28 -35 -43 0 -5 7 0 15 13 9 12 30 26 48 31 20 6 24 9 12 10 -11 0 -29 -5 -40 -11z"/><path d="M1718 1430 c29 -4 59 -13 67 -20 9 -7 15 -8 15 -2 0 14 -57 32 -99 31 -30 -1 -27 -3 17 -9z"/><path d="M744 1414 c-18 -14 -18 -15 5 -3 13 6 41 9 62 6 22 -3 37 -1 33 4 -9 15 -79 10 -100 -7z"/><path d="M1449 1409 l-24 -21 29 17 c16 10 41 15 57 13 16 -3 29 -1 29 4 0 17 -68 8 -91 -13z"/><path d="M909 1403 c-13 -15 -12 -15 6 -5 12 6 50 9 85 7 57 -4 60 -3 25 5 -62 14 -101 12 -116 -7z"/><path d="M1678 1403 c6 -2 18 -2 25 0 6 3 1 5 -13 5 -14 0 -19 -2 -12 -5z"/><path d="M744 1384 c-10 -8 -12 -12 -4 -8 8 4 30 11 50 15 35 7 35 7 4 8 -16 0 -39 -6 -50 -15z"/><path d="M1449 1373 c-13 -16 -12 -17 3 -4 11 8 34 12 58 9 22 -2 40 0 40 4 0 17 -87 8 -101 -9z"/><path d="M1770 1375 c14 -7 27 -11 30 -9 6 7 -22 24 -40 23 -9 0 -5 -6 10 -14z"/><path d="M1713 1366 c21 -8 47 -22 58 -32 10 -9 19 -12 19 -6 0 14 -72 52 -97 52 -10 -1 -1 -7 20 -14z"/><path d="M912 1362 c-18 -12 102 -14 130 -2 17 6 6 9 -47 9 -38 0 -76 -3 -83 -7z"/><path d="M748 1353 c7 -3 16 -2 19 1 4 3 -2 6 -13 5 -11 0 -14 -3 -6 -6z"/><path d="M810 1356 c0 -2 11 -6 25 -8 14 -3 25 -1 25 3 0 5 -11 9 -25 9 -14 0 -25 -2 -25 -4z"/><path d="M1463 1350 c-13 -5 -23 -11 -23 -12 0 -2 27 -3 60 -3 59 0 75 7 44 19 -21 8 -55 7 -81 -4z"/><path d="M1668 1343 c7 -3 16 -2 19 1 4 3 -2 6 -13 5 -11 0 -14 -3 -6 -6z"/><path d="M734 1314 c-18 -15 -18 -15 3 -5 31 16 75 13 101 -5 17 -12 22 -12 20 -2 -2 7 -7 16 -13 20 -18 14 -91 8 -111 -8z"/><path d="M1734 1321 c7 -11 46 -35 46 -28 0 3 -12 12 -26 22 -15 9 -23 12 -20 6z"/><path d="M901 1315 c11 -11 199 -21 196 -10 -2 6 -46 11 -102 13 -55 1 -97 0 -94 -3z"/><path d="M1454 1304 c-18 -14 -18 -15 5 -3 13 6 43 9 67 6 24 -2 41 -1 38 4 -9 15 -89 10 -110 -7z"/><path d="M745 1286 c-19 -15 -18 -15 13 -5 23 8 41 8 64 0 22 -8 29 -8 22 -1 -19 19 -77 23 -99 6z"/><path d="M1706 1286 c18 -8 37 -22 43 -33 9 -15 10 -15 11 -2 0 23 -32 49 -61 49 -22 -1 -21 -2 7 -14z"/><path d="M1454 1274 c-10 -8 -13 -12 -5 -8 8 4 28 11 45 15 29 6 29 7 5 8 -14 1 -34 -6 -45 -15z"/><path d="M868 1256 c-14 -12 -23 -27 -21 -34 4 -9 9 -6 17 10 11 22 16 23 111 21 109 -3 93 12 -21 19 -51 3 -66 1 -86 -16z"/><path d="M1538 1273 c7 -3 16 -2 19 1 4 3 -2 6 -13 5 -11 0 -14 -3 -6 -6z"/><path d="M1641 1255 c61 -16 66 -20 89 -63 19 -36 20 -36 14 -7 -10 48 -56 85 -107 84 l-42 -1 46 -13z"/><path d="M748 1253 c-10 -2 -18 -9 -18 -14 0 -6 6 -7 13 -2 6 4 30 10 52 14 l40 6 -35 1 c-19 0 -43 -2 -52 -5z"/><path d="M1468 1243 c12 -2 32 -2 45 0 12 2 2 4 -23 4 -25 0 -35 -2 -22 -4z"/><path d="M1126 1216 c7 -17 4 -18 -28 -12 -45 8 -120 -3 -111 -16 3 -6 34 -8 74 -6 78 6 81 4 85 -87 1 -27 7 -75 14 -105 11 -52 10 -60 -14 -118 -14 -34 -26 -68 -26 -76 0 -8 -12 -28 -26 -45 -14 -17 -22 -31 -17 -31 13 0 63 57 63 71 0 6 12 38 26 70 22 48 26 68 21 111 -8 76 -45 240 -58 253 -7 7 -8 4 -3 -9z"/><path d="M1176 1219 c16 -26 53 -210 54 -264 0 -47 -6 -69 -25 -100 -30 -49 -31 -69 -5 -95 11 -11 20 -31 20 -45 0 -25 19 -41 39 -33 5 1 -1 26 -15 53 -29 61 -29 66 -4 115 39 77 21 278 -32 353 -18 25 -47 40 -32 16z"/><path d="M1478 1217 c18 -7 31 -15 28 -17 -2 -3 23 -4 57 -2 55 3 67 0 107 -27 57 -39 72 -39 35 -1 -34 35 -82 51 -151 49 -27 -1 -62 1 -79 5 -29 6 -29 6 3 -7z"/><path d="M1764 1215 c-3 -8 -4 -20 -2 -27 3 -7 7 -1 10 15 6 29 1 36 -8 12z"/><path d="M734 1205 c-10 -8 -14 -15 -8 -15 6 0 17 7 24 15 16 19 9 19 -16 0z"/><path d="M784 1188 c8 -38 22 -56 35 -42 11 11 -15 74 -30 74 -8 0 -9 -11 -5 -32z"/><path d="M870 1200 c0 -12 47 -12 75 0 15 6 8 9 -27 9 -27 1 -48 -3 -48 -9z"/><path d="M1281 1185 c11 -13 19 -50 23 -105 13 -166 35 -248 84 -323 50 -77 70 -93 127 -102 31 -5 44 -3 54 9 11 13 8 16 -28 22 -22 4 -45 12 -51 19 -5 6 -37 65 -71 130 -52 99 -63 129 -70 194 -11 92 -22 122 -57 153 -19 16 -22 17 -11 3z"/><path d="M1428 1193 c7 -3 16 -2 19 1 4 3 -2 6 -13 5 -11 0 -14 -3 -6 -6z"/><path d="M1468 1183 c7 -3 16 -2 19 1 4 3 -2 6 -13 5 -11 0 -14 -3 -6 -6z"/><path d="M1359 1156 c28 -30 31 -31 31 -13 0 8 -12 19 -27 26 l-28 13 24 -26z"/><path d="M1485 1156 c-16 -12 -12 -12 31 -6 27 4 51 4 54 0 3 -4 16 -10 30 -13 14 -4 53 -29 88 -57 48 -40 62 -47 62 -33 0 25 -79 90 -131 108 -52 19 -110 19 -134 1z"/><path d="M744 1135 c4 -16 16 -39 26 -50 10 -11 27 -38 38 -60 23 -45 57 -80 88 -89 12 -4 45 -31 73 -61 44 -47 51 -59 51 -95 0 -23 -5 -50 -10 -61 -6 -10 -8 -19 -6 -19 16 0 36 66 36 118 0 32 7 81 15 107 8 27 13 51 11 53 -4 3 -33 -33 -52 -64 -10 -17 -13 -17 -29 -4 -9 8 -46 31 -82 50 -60 33 -74 47 -102 110 -6 14 -23 41 -37 60 l-27 35 7 -30z"/><path d="M860 1140 c0 -5 5 -10 10 -10 6 0 10 5 10 10 0 6 -4 10 -10 10 -5 0 -10 -4 -10 -10z"/><path d="M1063 1123 c-13 -2 -23 -9 -23 -14 0 -10 32 -4 60 12 13 7 13 8 0 7 -8 0 -25 -3 -37 -5z"/><path d="M1477 1112 c-4 -5 10 -12 32 -15 58 -7 108 -35 138 -76 26 -35 95 -101 105 -101 3 0 4 9 3 20 -2 27 -99 126 -147 151 -45 23 -123 36 -131 21z"/><path d="M696 1092 c-4 -7 -3 -12 1 -12 9 0 63 -99 63 -114 0 -19 47 -70 97 -107 62 -47 92 -103 94 -177 l1 -47 11 44 c7 31 7 52 0 72 -13 35 3 51 16 17 8 -19 10 -20 10 -4 1 19 -64 87 -153 160 -27 22 -56 58 -66 80 -25 56 -65 103 -74 88z"/><path d="M877 1079 c7 -7 15 -10 18 -7 3 3 -2 9 -12 12 -14 6 -15 5 -6 -5z"/><path d="M1072 1054 c-18 -8 -30 -19 -27 -24 7 -12 35 1 55 24 15 19 15 19 -28 0z"/><path d="M1486 1052 c-12 -11 -5 -21 16 -24 14 -2 47 -34 88 -85 36 -45 82 -93 103 -107 37 -26 38 -26 32 -5 -6 18 -4 21 9 16 9 -4 16 -2 16 3 0 6 -4 10 -9 10 -5 0 -53 42 -108 93 -89 85 -132 114 -147 99z"/><path d="M1103 950 c-12 -41 -27 -104 -32 -138 -6 -35 -16 -71 -23 -80 -12 -15 -11 -15 4 -4 9 8 21 28 27 45 43 142 52 181 49 214 -3 36 -4 34 -25 -37z"/><path d="M667 996 c-3 -8 0 -17 8 -20 7 -2 20 -29 29 -60 10 -34 26 -62 43 -75 14 -12 24 -24 20 -27 -11 -11 -48 18 -72 56 -26 40 -39 48 -50 30 -3 -5 0 -10 7 -10 8 0 22 -14 32 -31 12 -21 42 -42 94 -67 91 -44 134 -95 136 -161 0 -23 6 -43 13 -46 7 -2 13 0 13 5 0 6 -4 10 -8 10 -4 0 -6 15 -4 34 9 73 -35 146 -117 193 -51 30 -80 60 -81 83 -1 23 -38 100 -48 100 -6 0 -12 -6 -15 -14zM800 810 c0 -5 -2 -10 -4 -10 -3 0 -8 5 -11 10 -3 6 -1 10 4 10 6 0 11 -4 11 -10z"/><path d="M1480 970 c0 -17 2 -19 14 -8 14 13 12 28 -5 28 -5 0 -9 -9 -9 -20z"/><path d="M1546 862 c-3 -6 0 -12 6 -15 8 -3 3 -8 -11 -14 -23 -9 -23 -10 20 -46 37 -32 40 -37 20 -37 -12 0 -19 -4 -16 -10 3 -5 18 -10 33 -10 20 0 33 8 45 30 18 29 18 30 0 37 -10 3 -34 21 -54 40 -21 20 -39 30 -43 25zM1565 820 c-3 -5 -11 -10 -16 -10 -6 0 -7 5 -4 10 3 6 11 10 16 10 6 0 7 -4 4 -10zM1580 800 c0 -5 -5 -10 -11 -10 -5 0 -7 5 -4 10 3 6 8 10 11 10 2 0 4 -4 4 -10z"/><path d="M635 810 c-6 -10 63 -79 80 -80 6 0 33 -11 62 -24 56 -26 76 -55 99 -136 l12 -45 1 45 c1 86 -50 155 -129 173 -14 4 -44 22 -67 42 -45 38 -49 40 -58 25z"/><path d="M1274 796 c-9 -36 19 -96 64 -137 28 -26 45 -33 86 -35 l51 -3 -38 10 c-28 8 -52 28 -88 71 -27 32 -49 67 -49 76 0 9 -4 24 -9 31 -8 12 -11 9 -17 -13z"/><path d="M1687 783 c-4 -3 -7 -11 -7 -17 0 -6 5 -5 12 2 6 6 9 14 7 17 -3 3 -9 2 -12 -2z"/><path d="M1163 743 c-3 -10 -8 -21 -10 -25 -2 -5 5 -8 16 -8 14 0 21 6 21 19 0 27 -19 36 -27 14z"/><path d="M1126 733 c-6 -14 -5 -15 5 -6 7 7 10 15 7 18 -3 3 -9 -2 -12 -12z"/><path d="M615 730 c-10 -16 13 -39 64 -65 25 -12 54 -32 64 -42 18 -21 57 -145 57 -185 1 -22 1 -22 11 -4 11 18 8 73 -7 133 -7 25 -6 27 9 14 10 -7 21 -28 26 -45 8 -25 9 -27 10 -8 1 26 -30 92 -52 110 -7 6 -33 18 -56 27 -24 8 -60 28 -81 45 -24 19 -41 27 -45 20z"/><path d="M280 679 c14 -11 36 -24 49 -30 20 -8 21 -12 10 -25 -7 -8 -20 -13 -30 -11 -9 3 -23 1 -30 -4 -16 -10 40 -13 65 -3 21 8 21 54 1 54 -8 0 -15 4 -15 8 0 10 -45 32 -63 32 -7 0 -1 -10 13 -21z"/><path d="M577 644 c-3 -3 15 -17 41 -31 60 -30 92 -66 92 -102 0 -15 7 -49 16 -75 9 -26 14 -57 11 -69 -6 -22 -6 -22 14 2 23 28 23 34 4 108 -26 101 -33 112 -97 143 -63 31 -71 34 -81 24z"/><path d="M381 623 c0 -12 -9 -27 -18 -32 -17 -10 -17 -10 0 -11 20 0 31 20 24 47 -4 15 -5 14 -6 -4z"/><path d="M421 598 c-1 -32 -13 -40 -66 -49 l-40 -6 46 -2 c54 -1 72 14 66 56 l-4 28 -2 -27z"/><path d="M241 586 c7 -15 15 -23 17 -16 3 7 -3 19 -13 28 -15 16 -16 15 -4 -12z"/><path d="M460 577 c0 -34 -21 -58 -60 -67 l-35 -8 37 -1 c28 -1 41 5 57 25 22 28 29 74 11 74 -5 0 -10 -10 -10 -23z"/><path d="M536 585 c17 -61 16 -76 -10 -115 -29 -43 -31 -57 -15 -80 9 -12 10 -12 5 4 -4 12 2 33 17 55 36 54 38 72 16 116 -10 22 -17 31 -13 20z"/><path d="M589 564 c21 -39 18 -60 -18 -129 -22 -41 -27 -65 -13 -65 5 0 13 17 18 37 14 56 32 53 24 -4 -7 -52 -39 -133 -53 -133 -4 0 -5 -4 -2 -10 12 -19 22 -10 48 48 17 38 28 82 32 136 6 73 4 81 -20 117 -32 49 -41 51 -16 3z"/><path d="M640 563 c0 -6 5 -15 10 -18 6 -3 10 -46 10 -94 0 -75 -4 -95 -25 -135 -28 -52 -30 -60 -15 -51 6 4 22 28 35 55 33 65 36 191 5 230 -11 14 -20 20 -20 13z"/><path d="M906 541 c-3 -5 1 -14 9 -21 12 -10 15 -10 15 3 0 19 -16 31 -24 18z"/><path d="M501 531 c0 -7 -17 -29 -37 -47 -19 -19 -29 -34 -22 -34 23 0 70 56 65 77 -3 10 -5 12 -6 4z"/><path d="M881 484 c9 -10 19 -26 22 -34 4 -10 6 -8 6 7 1 13 -8 27 -21 34 -22 11 -22 11 -7 -7z"/><path d="M700 389 c0 -22 -5 -50 -11 -62 -10 -21 -10 -21 5 -3 14 18 23 106 11 106 -3 0 -5 -18 -5 -41z"/><path d="M842 391 c7 -12 17 -20 21 -18 10 3 10 22 0 22 -5 0 -14 4 -21 9 -11 7 -11 4 0 -13z"/><path d="M775 371 c-3 -6 5 -29 18 -51 l24 -40 13 25 c7 14 11 26 9 27 -2 2 -16 13 -30 26 -17 15 -29 20 -34 13zM818 332 c20 -31 1 -27 -22 5 -12 16 -14 24 -6 21 7 -2 20 -14 28 -26z"/><path d="M712 308 c-7 -9 -4 -25 13 -55 22 -42 22 -42 41 -22 16 17 16 22 4 29 -9 6 -16 6 -18 0 -8 -22 -22 -8 -16 15 4 16 2 25 -6 25 -6 0 -8 5 -5 10 9 14 -1 12 -13 -2z"/><path d="M366 274 c-3 -9 -6 -22 -6 -31 0 -8 -7 -21 -15 -29 -13 -14 -15 -14 -15 0 0 9 5 16 12 16 6 0 9 3 6 6 -4 3 -16 0 -28 -6 -13 -7 -18 -15 -13 -19 5 -3 14 -14 20 -24 8 -16 12 -14 36 22 15 22 22 43 17 46 -5 3 -7 12 -3 20 3 8 3 15 0 15 -3 0 -8 -7 -11 -16z"/><path d="M476 261 c-3 -5 1 -12 10 -15 22 -8 25 -4 9 11 -8 7 -16 9 -19 4z"/><path d="M650 261 c0 -6 5 -13 10 -16 6 -3 10 1 10 9 0 9 -4 16 -10 16 -5 0 -10 -4 -10 -9z"/><path d="M598 245 c-8 -8 13 -75 23 -75 5 0 6 -7 3 -15 -4 -9 0 -15 9 -15 9 0 15 8 14 19 0 11 -6 19 -11 18 -6 -1 -11 7 -12 19 -1 26 -18 57 -26 49z"/><path d="M410 228 c0 -9 -3 -24 -7 -34 -4 -12 -3 -15 5 -10 7 4 18 -8 29 -34 16 -36 21 -40 55 -40 28 0 38 5 43 20 7 21 25 28 25 9 0 -5 5 -7 10 -4 6 3 10 11 10 16 0 6 -5 7 -11 4 -6 -4 -10 -1 -8 6 1 8 1 23 0 34 -2 15 -7 11 -22 -17 -32 -62 -78 -48 -113 32 -8 19 -15 27 -16 18z"/><path d="M682 200 c5 -17 14 -27 19 -24 15 9 10 28 -10 41 -19 12 -19 11 -9 -17z"/><path d="M390 161 c0 -6 5 -13 10 -16 6 -3 10 1 10 9 0 9 -4 16 -10 16 -5 0 -10 -4 -10 -9z"/></g><g transform="scale(0.05, 0.05)" fill="rgb(255, 255, 255)" stroke="none"></g></svg>